# Blender v2.80 (sub 75) OBJ File: 'LargeRock1.blend'
# www.blender.org
mtllib LargeRock1.mtl
o Cube
v 2.037016 -3.521353 4.368926
v -3.224138 -3.481832 4.110647
v -4.631189 -3.698695 1.905610
v 2.841715 -3.687504 2.174979
v -4.123322 -0.871426 5.480233
v 3.629602 -1.247511 5.419655
v 5.416191 -1.727070 2.000643
v -5.691484 -0.642523 2.516558
v -1.140879 -3.734728 4.860216
v -0.370372 -4.109200 1.992526
v 0.098018 -0.828907 6.919941
v 3.946650 7.417065 4.932934
v -1.205422 8.247016 5.181551
v 4.663947 7.873793 1.850936
v -2.010493 8.861728 3.028791
v -2.857085 3.792285 5.943164
v 4.644784 3.560936 5.506002
v 6.361005 3.761525 2.367184
v -4.660022 4.442667 2.836817
v 1.111246 8.452623 5.622069
v 1.101946 9.548045 2.978418
v 1.040594 3.944862 7.169858
v 1.979619 -4.032485 -5.039896
v -3.209138 -3.687829 -4.941494
v -4.833286 -4.027182 -2.647824
v 2.639619 -4.015991 -2.378455
v 3.840566 -1.960751 -5.825399
v -4.412623 -1.525115 -5.731882
v 5.214094 -2.055556 -2.552792
v -5.893581 -0.971009 -2.036876
v -0.767635 -3.932195 -5.557545
v -0.572469 -4.437686 -2.560908
v -0.381754 -1.719270 -7.225045
v 3.417747 7.686065 -4.087396
v -1.652658 8.400764 -3.990932
v 4.461851 7.962031 -2.007638
v -2.338461 8.533241 -1.524643
v 4.691398 3.661187 -5.499661
v -3.618277 4.109445 -5.113167
v 6.158908 3.433038 -2.186251
v -4.862118 4.114180 -1.716618
v 0.912100 8.071119 -4.753578
v 0.899849 9.606153 -1.575016
v 0.013149 4.046748 -6.710051
vt 0.500000 0.875000
vt 0.625000 0.875000
vt 0.625000 1.000000
vt 0.500000 1.000000
vt 0.250000 0.750000
vt 0.250000 0.625000
vt 0.250000 0.625000
vt 0.250000 0.750000
vt 0.500000 0.500000
vt 0.500000 0.375000
vt 0.500000 0.375000
vt 0.500000 0.500000
vt 0.375000 0.500000
vt 0.500000 0.625000
vt 0.375000 0.625000
vt 0.125000 0.625000
vt 0.125000 0.750000
vt 0.375000 0.375000
vt 0.375000 0.250000
vt 0.500000 0.250000
vt 0.375000 0.875000
vt 0.375000 0.875000
vt 0.500000 0.875000
vt 0.500000 0.625000
vt 0.375000 0.625000
vt 0.250000 0.625000
vt 0.375000 0.625000
vt 0.250000 0.625000
vt 0.375000 1.000000
vt 0.500000 0.250000
vt 0.625000 0.125000
vt 0.500000 0.125000
vt 0.500000 0.125000
vt 0.625000 0.125000
vt 0.625000 0.250000
vt 0.500000 0.250000
vt 0.625000 0.375000
vt 0.625000 0.500000
vt 0.375000 0.125000
vt 0.375000 0.125000
vt 0.375000 0.750000
vt 0.125000 0.625000
vt 0.500000 0.625000
vt 0.500000 0.625000
vt 0.625000 0.625000
vt 0.375000 0.625000
vt 0.625000 0.625000
vt 0.625000 0.875000
vt 0.625000 0.250000
vt 0.375000 0.250000
vt 0.250000 0.500000
vt 0.250000 0.500000
vt 0.750000 0.625000
vt 0.750000 0.500000
vt 0.750000 0.500000
vt 0.750000 0.625000
vt 0.500000 0.750000
vt 0.625000 0.750000
vt 0.125000 0.500000
vt 0.625000 0.625000
vt 0.750000 0.750000
vt 0.500000 0.750000
vt 0.375000 0.750000
vt 0.625000 0.500000
vt 0.750000 0.750000
vt 0.500000 0.750000
vt 0.625000 0.750000
vt 0.875000 0.625000
vt 0.875000 0.750000
vt 0.375000 0.500000
vt 0.500000 0.000000
vt 0.625000 0.000000
vt 0.375000 0.000000
vt 0.875000 0.500000
vn 0.1045 -0.9849 0.1377
vn 0.8635 -0.1850 0.4691
vn -0.3120 0.0013 0.9501
vn -0.7836 -0.4283 0.4501
vn 0.6238 -0.6899 0.3673
vn -0.3005 -0.4902 0.8182
vn 0.2140 -0.5862 0.7814
vn -0.0972 -0.9924 0.0759
vn -0.8527 0.1611 0.4969
vn 0.9301 0.3632 -0.0551
vn 0.9854 -0.1675 -0.0316
vn -0.1200 -0.9842 0.1298
vn 0.3922 -0.1122 0.9130
vn -0.2671 0.9636 -0.0131
vn -0.1764 0.9173 0.3570
vn -0.2636 0.2879 0.9207
vn 0.4214 0.9068 -0.0045
vn 0.8726 0.3135 0.3745
vn 0.6069 -0.7942 0.0304
vn -0.9800 0.1969 0.0293
vn -0.7756 0.4069 0.4825
vn -0.9385 -0.3388 0.0661
vn -0.8632 0.5047 0.0138
vn 0.1262 -0.9898 0.0658
vn 0.3809 0.2540 0.8891
vn 0.4414 0.8508 0.2852
vn 0.9091 -0.1221 -0.3982
vn -0.3671 0.1299 -0.9211
vn 0.0648 -0.9933 -0.0956
vn 0.6283 -0.7447 -0.2251
vn 0.1937 -0.5620 -0.8042
vn -0.8288 -0.3738 -0.4163
vn -0.2977 -0.5092 -0.8075
vn -0.1101 -0.9764 -0.1857
vn 0.2837 0.0397 -0.9581
vn -0.9119 0.1873 -0.3651
vn -0.8337 0.4727 -0.2855
vn 0.2717 0.3823 -0.8832
vn 0.8423 0.3661 -0.3955
vn -0.1622 0.9407 -0.2979
vn 0.3080 0.8793 -0.3633
vn -0.2996 0.4203 -0.8565
usemtl Material
s off
f 10/1/1 4/2/1 1/3/1 9/4/1
f 6/5/2 7/6/2 18/7/2 17/8/2
f 5/9/3 11/10/3 22/11/3 16/12/3
f 2/13/4 5/9/4 8/14/4 3/15/4
f 4/16/5 7/6/5 6/5/5 1/17/5
f 9/18/6 11/10/6 5/9/6 2/13/6
f 1/19/7 6/20/7 11/10/7 9/18/7
f 10/1/8 3/21/8 25/22/8 32/23/8
f 8/14/9 5/9/9 16/12/9 19/24/9
f 14/25/10 18/7/10 40/26/10 36/27/10
f 18/7/11 7/6/11 29/28/11 40/26/11
f 3/21/12 10/1/12 9/4/12 2/29/12
f 11/10/13 6/20/13 17/30/13 22/11/13
f 15/31/14 21/32/14 43/33/14 37/34/14
f 21/32/15 15/31/15 13/35/15 20/36/15
f 22/11/16 20/37/16 13/38/16 16/12/16
f 21/32/17 14/39/17 36/40/17 43/33/17
f 18/7/18 14/25/18 12/41/18 17/8/18
f 7/6/19 4/16/19 26/42/19 29/28/19
f 8/14/20 19/24/20 41/43/20 30/44/20
f 16/12/21 13/38/21 15/45/21 19/24/21
f 3/15/22 8/14/22 30/44/22 25/46/22
f 19/24/23 15/45/23 37/47/23 41/43/23
f 4/2/24 10/1/24 32/23/24 26/48/24
f 17/30/25 12/49/25 20/37/25 22/11/25
f 14/39/26 21/32/26 20/36/26 12/50/26
f 29/28/27 27/51/27 38/52/27 40/26/27
f 33/53/28 28/54/28 39/55/28 44/56/28
f 31/57/29 23/58/29 26/48/29 32/23/29
f 23/59/30 27/51/30 29/28/30 26/42/30
f 31/60/31 33/53/31 27/61/31 23/58/31
f 25/46/32 30/44/32 28/62/32 24/63/32
f 24/64/33 28/54/33 33/53/33 31/60/33
f 24/63/34 31/57/34 32/23/34 25/22/34
f 27/61/35 33/53/35 44/56/35 38/65/35
f 28/62/36 30/44/36 41/43/36 39/66/36
f 41/43/37 37/47/37 35/67/37 39/66/37
f 44/56/38 42/68/38 34/69/38 38/65/38
f 38/52/39 34/70/39 36/27/39 40/26/39
f 42/71/40 35/72/40 37/34/40 43/33/40
f 34/73/41 42/71/41 43/33/41 36/40/41
f 39/55/42 35/74/42 42/68/42 44/56/42
