# Blender v2.80 (sub 75) OBJ File: 'Stag1.blend'
# www.blender.org
mtllib Stag1.mtl
o Cube
v -0.081583 3.525611 -0.392654
v -0.469693 2.047122 -0.321021
v -0.424528 2.213027 0.133320
v 0.151360 4.410280 -0.231175
v 0.225269 4.391605 -0.230284
v 0.827004 1.576079 -0.670955
v -0.085897 -0.215482 -1.022031
v 0.459864 -0.834115 -1.096302
v 0.937844 1.515114 0.205806
v 1.137539 0.632689 0.168310
v 1.089826 0.458757 -0.628109
v 1.232258 0.025836 -0.243628
v -0.834503 -1.724190 -0.656627
v -0.726972 -1.558637 0.739768
v -0.806774 -3.491606 -0.978645
v -0.682399 -2.593837 0.902645
v 1.365462 -2.604609 -0.280936
v 1.207846 -3.216626 -0.900976
v 0.772102 -3.514001 -1.169884
v 1.059747 -3.708524 -1.028344
v -0.647715 -3.735098 0.902853
v -0.796870 -3.832944 -0.984406
v -0.763943 -3.886304 -0.989101
v -0.563509 -3.869147 0.904401
v 0.851387 -4.297994 -0.646072
v -0.425634 -4.366641 -0.655659
v -0.278632 -4.409257 0.422810
v 0.787296 -4.342174 0.222177
v 0.539200 -0.245836 0.632508
v 1.196906 -1.450477 0.829326
v 0.383380 -0.574933 0.689049
v 1.214148 -2.893090 0.760823
v 0.907003 -3.379003 0.932544
v 0.996319 -3.583502 0.754587
vt 0.453862 0.801396
vt 0.559750 0.795061
vt 0.532280 0.802432
vt 0.460480 0.885503
vt 0.429873 0.789758
vt 0.420934 0.753259
vt 0.437468 0.733609
vt 0.438289 0.736526
vt 0.585009 0.698984
vt 0.549702 0.711401
vt 0.178941 0.601629
vt 0.526744 0.685822
vt 0.290296 0.436204
vt 0.264264 0.547710
vt 0.494396 0.368376
vt 0.491933 0.129840
vt 0.490871 0.238879
vt 0.491371 0.406707
vt 0.646626 0.504779
vt 0.484068 0.122702
vt 0.347058 0.308883
vt 0.603402 0.552185
vt 0.334360 0.471236
vt 0.290315 0.552110
vt 0.343223 0.362383
vt 0.355843 0.349056
vt 0.449544 0.712996
vt 0.426968 0.623621
vt 0.431899 0.435474
vt 0.376881 0.317627
vt 0.402022 0.438052
vt 0.432807 0.501883
vt 0.369978 0.318112
vt 0.412701 0.443874
vn 0.0540 -0.9974 -0.0468
vn -0.8435 -0.5288 0.0941
vn 0.0360 -0.5527 -0.8326
vn 0.9542 0.0525 -0.2944
vn -0.9672 0.2541 0.0034
vn 0.0537 0.1656 -0.9847
vn 0.9688 0.2238 -0.1069
vn 0.9921 0.0414 0.1182
vn -0.6329 0.1292 -0.7634
vn -0.9937 0.0903 0.0658
vn 0.0807 0.0483 0.9956
vn -0.9963 -0.0303 0.0803
vn 0.4832 0.0802 -0.8718
vn -0.1200 0.0133 -0.9927
vn 0.1844 -0.5981 0.7799
vn 0.9521 -0.3009 0.0550
vn 0.0113 0.0609 0.9981
vn -0.0218 0.1758 0.9842
vn 0.3730 0.2220 0.9009
usemtl Material
s off
f 26/1/1 25/2/1 28/3/1 27/4/1
f 27/4/2 24/5/2 21/6/2 22/7/2 23/8/2 26/1/2
f 26/1/3 23/8/3 19/9/3 20/10/3 25/2/3
f 17/11/4 18/12/4 11/13/4 12/14/4
f 3/15/5 4/16/5 1/17/5 2/18/5
f 7/19/6 1/17/6 4/16/6 5/20/6 6/21/6 8/22/6
f 5/20/7 9/23/7 10/24/7 12/14/7 11/13/7 6/21/7
f 32/25/8 17/11/8 12/14/8 10/24/8 30/26/8
f 7/19/9 15/27/9 13/28/9 2/18/9 1/17/9
f 2/18/10 13/28/10 14/29/10 3/15/10
f 31/30/11 33/31/11 34/32/11 32/25/11 30/26/11 29/33/11
f 22/7/12 21/6/12 16/34/12 14/29/12 13/28/12 15/27/12
f 11/13/13 18/12/13 20/10/13 19/9/13 8/22/13 6/21/13
f 19/9/14 23/8/14 22/7/14 15/27/14 7/19/14 8/22/14
f 27/4/15 28/3/15 34/32/15 33/31/15 24/5/15
f 25/2/16 20/10/16 18/12/16 17/11/16 32/25/16 34/32/16 28/3/16
f 21/6/17 24/5/17 33/31/17 31/30/17 16/34/17
f 16/34/18 31/30/18 29/33/18 9/23/18 5/20/18 4/16/18 3/15/18 14/29/18
f 9/23/19 29/33/19 30/26/19 10/24/19
