# Blender v2.80 (sub 75) OBJ File: 'FanMill.blend'
# www.blender.org
mtllib FanMill.mtl
o Cube
v 1.000000 7.100255 -49.424004
v 1.000000 5.100255 -49.424004
v 1.000000 7.100255 49.344536
v 1.000000 5.100255 49.344536
v -1.000000 7.100255 -49.424004
v -1.000000 5.100255 -49.424004
v -1.000000 7.100255 49.344536
v -1.000000 5.100255 49.344536
v -1.000000 5.100255 -0.039732
v 1.000000 7.100255 -0.039732
v -1.000000 7.100255 -0.039732
v 1.000000 5.100255 -0.039732
v -1.000000 7.100255 -24.731863
v 1.000000 5.100255 -24.731863
v -1.000000 5.100255 -24.731863
v 1.000000 7.100255 -24.731863
v -1.000000 5.100255 24.652403
v 1.000000 7.100255 24.652403
v -1.000000 7.100255 24.652403
v 1.000000 5.100255 24.652403
v 1.000000 6.188311 -49.424004
v -1.000000 7.046206 49.344536
v 1.000000 7.046206 49.344536
v -1.000000 6.200826 -49.424004
v 1.000000 7.046206 -0.039732
v -1.000000 7.046206 -0.039732
v 1.000000 6.188311 -20.132830
v -1.000000 6.200826 -20.132830
v -1.000000 6.188721 20.240913
v 0.953999 6.253788 20.275888
v 1.000000 6.043162 -49.424004
v 1.000000 5.185266 49.344536
v -1.000000 6.030646 -49.424004
v 1.000000 5.185266 -0.039732
v -1.000000 5.185266 -0.039732
v 1.000000 6.043162 -20.132830
v -1.000000 6.030646 -20.132830
v -1.000000 6.042751 20.240913
v 0.953118 6.125427 20.275766
v -1.000000 5.185266 49.344536
v -1.000000 5.100255 49.116234
v 1.000000 7.100255 49.116234
v -1.000000 7.100255 49.116234
v 1.000000 5.100255 49.116234
v -1.000000 6.188721 49.116234
v 1.047442 6.230816 49.151020
v 1.046562 6.102456 49.150902
v -1.000000 6.042751 49.116234
v 11.306263 8.886372 20.206247
v 11.305380 8.758012 20.206133
v 11.399704 8.863400 49.081383
v 11.398825 8.735040 49.081261
v -11.923948 7.649118 -20.132830
v -11.923948 7.649118 -49.424004
v -11.923948 7.478938 -49.424004
v -11.923948 7.478938 -20.132830
v 11.463957 4.179996 -49.424004
v 11.463957 4.179996 -20.132830
v 11.463957 4.034847 -49.424004
v 11.463957 4.034847 -20.132830
v -11.257670 4.002479 49.116234
v -11.257670 4.002479 20.240913
v -11.257670 3.856509 20.240913
v -11.257670 3.856509 49.116234
v 49.399670 7.351196 0.644898
v 49.399670 5.351196 0.644898
v -49.368793 7.351196 0.524614
v -49.368793 5.351196 0.524614
v 49.402100 7.351196 -1.355100
v 49.402100 5.351196 -1.355100
v -49.366360 7.351196 -1.475384
v -49.366360 5.351196 -1.475384
v 0.017865 5.351196 -1.415244
v 0.015430 7.351196 0.584755
v 0.017865 7.351196 -1.415244
v 0.015430 5.351196 0.584755
v 24.709976 7.351196 -1.385171
v 24.707542 5.351196 0.614827
v 24.709976 5.351196 -1.385171
v 24.707542 7.351196 0.614827
v -24.674252 5.351196 -1.445314
v -24.676689 7.351196 0.554685
v -24.674252 7.351196 -1.445314
v -24.676689 5.351196 0.554685
v 49.399670 6.439251 0.644898
v -49.366360 7.297147 -1.475384
v -49.368793 7.297147 0.524614
v 49.402100 6.451767 -1.355100
v 0.015430 7.297147 0.584755
v 0.017865 7.297147 -1.415244
v 19.923094 6.439251 0.614827
v 19.925528 6.451767 -1.385171
v -19.371975 6.439662 -1.445314
v -19.409325 6.504729 0.508641
v 49.399670 6.294104 0.644898
v -49.368793 5.436207 0.524614
v 49.402100 6.281587 -1.355100
v 0.015430 5.436207 0.584755
v 0.017865 5.436207 -1.415244
v 19.923094 6.294104 0.614827
v 19.925528 6.281587 -1.385171
v -19.371975 6.293693 -1.445314
v -19.409203 6.376369 0.507760
v -49.366360 5.436207 -1.475384
v -49.138069 5.351196 -1.475106
v -49.140495 7.351196 0.524893
v -49.138069 7.351196 -1.475106
v -49.140495 5.351196 0.524893
v -49.138069 6.439662 -1.475106
v -49.175343 6.481758 0.572290
v -49.175217 6.353397 0.571411
v -49.138069 6.293693 -1.475106
v -19.356552 9.137313 12.228231
v -19.356434 9.008953 12.227348
v -49.122562 9.114342 12.291884
v -49.122444 8.985981 12.291004
v 19.943460 7.900060 -11.861411
v 49.420033 7.900060 -11.831336
v 49.420033 7.729879 -11.831336
v 19.943460 7.729879 -11.861411
v 49.383121 4.430937 12.378246
v 19.906542 4.430937 12.348173
v 49.383121 4.285789 12.378246
v 19.906542 4.285789 12.348173
v -49.120964 4.253421 -12.219768
v -19.354874 4.253421 -12.189976
v -19.354874 4.107450 -12.189976
v -49.120964 4.107450 -12.219768
vt 0.375000 0.249422
vt 0.625000 0.249422
vt 0.625000 0.250000
vt 0.375000 0.250000
vt 0.618244 0.250000
vt 0.625000 0.250000
vt 0.625000 0.500000
vt 0.618244 0.500000
vt 0.618244 0.687500
vt 0.625000 0.687500
vt 0.625000 0.750000
vt 0.618244 0.750000
vt 0.375000 0.999422
vt 0.625000 0.999422
vt 0.625000 1.000000
vt 0.375000 1.000000
vt 0.368244 0.749422
vt 0.375000 0.749422
vt 0.375000 0.750000
vt 0.368244 0.750000
vt 0.868244 0.500000
vt 0.875000 0.500000
vt 0.875000 0.750000
vt 0.868244 0.750000
vt 0.368244 0.562500
vt 0.375000 0.562500
vt 0.375000 0.625000
vt 0.368244 0.625000
vt 0.375000 0.812500
vt 0.625000 0.812500
vt 0.625000 0.875000
vt 0.375000 0.875000
vt 0.618244 0.562500
vt 0.625000 0.562500
vt 0.625000 0.625000
vt 0.618244 0.625000
vt 0.375000 0.062500
vt 0.625000 0.062500
vt 0.625000 0.125000
vt 0.375000 0.125000
vt 0.375000 0.000000
vt 0.625000 0.000000
vt 0.375000 0.750000
vt 0.625000 0.750000
vt 0.368244 0.500000
vt 0.375000 0.500000
vt 0.618244 0.500578
vt 0.625000 0.500578
vt 0.375000 0.687500
vt 0.368244 0.687500
vt 0.625000 0.937500
vt 0.375000 0.937500
vt 0.625000 0.187500
vt 0.375000 0.187500
vt 0.135626 0.625000
vt 0.135626 0.687500
vt 0.618244 0.562500
vt 0.618244 0.500578
vt 0.385626 0.625000
vt 0.385626 0.687500
vt 0.368244 0.562500
vt 0.368244 0.500000
vt 0.385626 0.562500
vt 0.135626 0.562500
vt 0.635626 0.500000
vt 0.635626 0.750000
vt 0.135626 0.749422
vt 0.135626 0.750000
vt 0.618244 0.687500
vt 0.385626 0.687500
vt 0.385626 0.250000
vt 0.385626 0.500000
vt 0.375000 0.250000
vt 0.375000 0.500000
vt 0.375000 0.687500
vt 0.385626 0.750000
vt 0.125000 0.749422
vt 0.125000 0.750000
vt 0.625000 0.500000
vt 0.125000 0.562500
vt 0.125000 0.625000
vt 0.375000 0.562500
vt 0.375000 0.625000
vt 0.125000 0.500000
vt 0.135626 0.500000
vt 0.375000 0.500578
vt 0.385626 0.500578
vt 0.125000 0.687500
vt 0.368244 0.687500
vt 0.135626 0.687500
vt 0.368244 0.749422
vt 0.135626 0.749422
vt 0.618244 0.750000
vt 0.385626 0.750000
vt 0.635626 0.500000
vt 0.868244 0.500000
vt 0.135626 0.500000
vt 0.135626 0.562500
vt 0.868244 0.750000
vt 0.635626 0.750000
vt 0.385626 0.500578
vt 0.385626 0.562500
vt 0.375000 0.249422
vt 0.625000 0.249422
vt 0.625000 0.250000
vt 0.375000 0.250000
vt 0.618244 0.250000
vt 0.625000 0.250000
vt 0.625000 0.500000
vt 0.618244 0.500000
vt 0.618244 0.687500
vt 0.625000 0.687500
vt 0.625000 0.750000
vt 0.618244 0.750000
vt 0.375000 0.999422
vt 0.625000 0.999422
vt 0.625000 1.000000
vt 0.375000 1.000000
vt 0.368244 0.749422
vt 0.375000 0.749422
vt 0.375000 0.750000
vt 0.368244 0.750000
vt 0.868244 0.500000
vt 0.875000 0.500000
vt 0.875000 0.750000
vt 0.868244 0.750000
vt 0.368244 0.562500
vt 0.375000 0.562500
vt 0.375000 0.625000
vt 0.368244 0.625000
vt 0.375000 0.812500
vt 0.625000 0.812500
vt 0.625000 0.875000
vt 0.375000 0.875000
vt 0.618244 0.562500
vt 0.625000 0.562500
vt 0.625000 0.625000
vt 0.618244 0.625000
vt 0.375000 0.062500
vt 0.625000 0.062500
vt 0.625000 0.125000
vt 0.375000 0.125000
vt 0.375000 0.000000
vt 0.625000 0.000000
vt 0.375000 0.750000
vt 0.625000 0.750000
vt 0.368244 0.500000
vt 0.375000 0.500000
vt 0.618244 0.500578
vt 0.625000 0.500578
vt 0.375000 0.687500
vt 0.368244 0.687500
vt 0.625000 0.937500
vt 0.375000 0.937500
vt 0.625000 0.187500
vt 0.375000 0.187500
vt 0.135626 0.625000
vt 0.135626 0.687500
vt 0.618244 0.562500
vt 0.618244 0.500578
vt 0.385626 0.625000
vt 0.385626 0.687500
vt 0.368244 0.562500
vt 0.368244 0.500000
vt 0.385626 0.562500
vt 0.135626 0.562500
vt 0.635626 0.500000
vt 0.635626 0.750000
vt 0.135626 0.749422
vt 0.135626 0.750000
vt 0.618244 0.687500
vt 0.385626 0.687500
vt 0.385626 0.250000
vt 0.385626 0.500000
vt 0.375000 0.250000
vt 0.375000 0.500000
vt 0.375000 0.687500
vt 0.385626 0.750000
vt 0.125000 0.749422
vt 0.125000 0.750000
vt 0.625000 0.500000
vt 0.125000 0.562500
vt 0.125000 0.625000
vt 0.375000 0.562500
vt 0.375000 0.625000
vt 0.125000 0.500000
vt 0.135626 0.500000
vt 0.375000 0.500578
vt 0.385626 0.500578
vt 0.125000 0.687500
vt 0.368244 0.687500
vt 0.135626 0.687500
vt 0.368244 0.749422
vt 0.135626 0.749422
vt 0.618244 0.750000
vt 0.385626 0.750000
vt 0.635626 0.500000
vt 0.868244 0.500000
vt 0.135626 0.500000
vt 0.135626 0.562500
vt 0.868244 0.750000
vt 0.635626 0.750000
vt 0.385626 0.500578
vt 0.385626 0.562500
vn 0.0000 1.0000 0.0000
vn 0.0000 0.0000 1.0000
vn -1.0000 0.0000 0.0000
vn 0.0000 -1.0000 0.0000
vn 0.9986 0.0518 0.0123
vn 0.0000 0.0000 -1.0000
vn 1.0000 0.0000 0.0000
vn 0.9987 -0.0516 0.0001
vn 1.0000 -0.0004 0.0023
vn -0.2085 0.9780 0.0000
vn 0.1885 0.9821 0.0000
vn 0.9718 -0.0004 0.2359
vn 0.9989 -0.0433 0.0161
vn 0.9991 0.0428 0.0001
vn 1.0000 -0.0036 -0.0018
vn -0.0070 0.0010 -1.0000
vn 1.0000 0.0053 -0.0017
vn 1.0000 -0.0069 -0.0032
vn 0.0070 -0.0010 1.0000
vn 0.2464 -0.9692 -0.0016
vn -0.2464 0.9692 0.0016
vn -0.1314 -0.9913 0.0000
vn 0.1314 0.9913 0.0000
vn -0.1885 -0.9821 0.0000
vn 0.2085 -0.9780 0.0000
vn -1.0000 0.0000 -0.0012
vn 0.0011 -0.0030 -1.0000
vn -0.0135 0.0518 0.9986
vn 1.0000 0.0000 0.0012
vn -0.0012 0.0061 1.0000
vn 0.0012 0.0068 -1.0000
vn -0.0011 0.0029 1.0000
vn 0.0012 -0.0062 -1.0000
vn 0.0011 0.0032 -1.0000
vn -0.0013 -0.0589 0.9983
vn -0.0039 -0.0004 1.0000
vn 0.0002 0.9799 -0.1994
vn 0.0015 0.0000 -1.0000
vn -0.0002 0.9857 0.1687
vn 0.0016 0.0000 -1.0000
vn -0.0015 0.0000 1.0000
vn -0.2370 -0.0004 0.9715
vn -1.0000 0.0000 -0.0017
vn 0.0011 0.0029 -1.0000
vn -0.0173 -0.0433 0.9989
vn -0.0012 -0.0058 1.0000
vn 0.0012 -0.0064 -1.0000
vn -0.0011 -0.0028 1.0000
vn 0.0012 0.0058 -1.0000
vn 0.0011 -0.0031 -1.0000
vn -0.0014 0.0488 0.9988
vn 0.0012 0.0000 -1.0000
vn 0.0006 -0.0014 1.0000
vn 1.0000 0.0010 -0.0047
vn 0.0006 0.0027 1.0000
vn 0.0021 -0.0069 1.0000
vn -1.0000 -0.0010 0.0047
vn 0.0012 -0.9757 0.2192
vn -0.0012 0.9757 -0.2192
vn 0.0010 0.0000 -1.0000
vn 1.0000 0.0000 0.0017
vn 0.0001 -0.9906 -0.1369
vn -0.0001 0.9906 0.1369
vn -0.0010 0.0000 1.0000
vn 1.0000 0.0000 0.0014
vn -1.0000 0.0000 -0.0014
vn 0.0002 -0.9857 -0.1687
vn -1.0000 0.0000 -0.0016
vn 1.0000 0.0000 0.0016
vn -0.0002 -0.9799 0.1994
usemtl Material
s off
f 42/1/1 43/2/1 7/3/1 3/4/1
f 23/5/2 3/6/2 7/7/2 22/8/2
f 28/9/3 13/10/3 5/11/3 24/12/3
f 41/13/4 44/14/4 4/15/4 8/16/4
f 46/17/5 42/18/5 3/19/5 23/20/5
f 24/21/6 5/22/6 1/23/6 21/24/6
f 27/25/7 16/26/7 10/27/7 25/28/7
f 15/29/4 14/30/4 12/31/4 9/32/4
f 29/33/3 19/34/3 11/35/3 26/36/3
f 16/37/1 13/38/1 11/39/1 10/40/1
f 1/41/1 5/42/1 13/38/1 16/37/1
f 6/43/4 2/44/4 14/30/4 15/29/4
f 21/45/7 1/46/7 16/26/7 27/25/7
f 26/36/3 11/35/3 13/10/3 28/9/3
f 45/47/3 43/48/3 19/34/3 29/33/3
f 25/28/8 10/27/8 18/49/8 30/50/8
f 9/32/4 12/31/4 20/51/4 17/52/4
f 10/40/1 11/39/1 19/53/1 18/54/1
f 34/55/9 25/28/9 30/50/9 39/56/9
f 45/47/10 29/33/10 62/57/10 61/58/10
f 35/59/3 26/36/3 28/9/3 37/60/3
f 21/45/11 27/25/11 58/61/11 57/62/11
f 38/63/3 29/33/3 26/36/3 35/59/3
f 36/64/7 27/25/7 25/28/7 34/55/7
f 33/65/6 24/21/6 21/24/6 31/66/6
f 47/67/12 46/17/12 23/20/12 32/68/12
f 37/60/2 28/9/2 53/69/2 56/70/2
f 32/71/2 23/5/2 22/8/2 40/72/2
f 4/73/2 32/71/2 40/72/2 8/74/2
f 15/75/3 37/60/3 33/76/3 6/43/3
f 44/77/13 47/67/13 32/68/13 4/78/13
f 6/79/6 33/65/6 31/66/6 2/44/6
f 14/80/7 36/64/7 34/55/7 12/81/7
f 17/82/3 38/63/3 35/59/3 9/83/3
f 2/84/7 31/85/7 36/64/7 14/80/7
f 9/83/3 35/59/3 37/60/3 15/75/3
f 41/86/3 48/87/3 38/63/3 17/82/3
f 12/81/14 34/55/14 39/56/14 20/88/14
f 8/74/3 40/72/3 48/87/3 41/86/3
f 20/88/15 39/56/15 47/67/15 44/77/15
f 39/56/16 30/50/16 49/89/16 50/90/16
f 40/72/3 22/8/3 45/47/3 48/87/3
f 22/8/3 7/7/3 43/48/3 45/47/3
f 30/50/17 18/49/17 42/18/17 46/17/17
f 17/52/4 20/51/4 44/14/4 41/13/4
f 18/54/1 19/53/1 43/2/1 42/1/1
f 50/90/18 49/89/18 51/91/18 52/92/18
f 46/17/19 47/67/19 52/92/19 51/91/19
f 47/67/20 39/56/20 50/90/20 52/92/20
f 30/50/21 46/17/21 51/91/21 49/89/21
f 56/70/3 53/69/3 54/93/3 55/94/3
f 24/21/6 33/65/6 55/95/6 54/96/6
f 33/76/22 37/60/22 56/70/22 55/94/22
f 28/9/23 24/12/23 54/93/23 53/69/23
f 59/97/7 57/62/7 58/61/7 60/98/7
f 31/66/6 21/24/6 57/99/6 59/100/6
f 27/25/2 36/64/2 60/98/2 58/61/2
f 36/64/24 31/85/24 59/97/24 60/98/24
f 64/101/3 61/58/3 62/57/3 63/102/3
f 48/87/2 45/47/2 61/58/2 64/101/2
f 29/33/6 38/63/6 63/102/6 62/57/6
f 38/63/25 48/87/25 64/101/25 63/102/25
f 106/103/1 107/104/1 71/105/1 67/106/1
f 87/107/26 67/108/26 71/109/26 86/110/26
f 92/111/27 77/112/27 69/113/27 88/114/27
f 105/115/4 108/116/4 68/117/4 72/118/4
f 110/119/28 106/120/28 67/121/28 87/122/28
f 88/123/29 69/124/29 65/125/29 85/126/29
f 91/127/30 80/128/30 74/129/30 89/130/30
f 79/131/4 78/132/4 76/133/4 73/134/4
f 93/135/31 83/136/31 75/137/31 90/138/31
f 80/139/1 77/140/1 75/141/1 74/142/1
f 65/143/1 69/144/1 77/140/1 80/139/1
f 70/145/4 66/146/4 78/132/4 79/131/4
f 85/147/32 65/148/32 80/128/32 91/127/32
f 90/138/33 75/137/33 77/112/33 92/111/33
f 109/149/34 107/150/34 83/136/34 93/135/34
f 89/130/35 74/129/35 82/151/35 94/152/35
f 73/134/4 76/133/4 84/153/4 81/154/4
f 74/142/1 75/141/1 83/155/1 82/156/1
f 98/157/36 89/130/36 94/152/36 103/158/36
f 109/149/37 93/135/37 126/159/37 125/160/37
f 99/161/38 90/138/38 92/111/38 101/162/38
f 85/147/39 91/127/39 122/163/39 121/164/39
f 102/165/40 93/135/40 90/138/40 99/161/40
f 100/166/41 91/127/41 89/130/41 98/157/41
f 97/167/29 88/123/29 85/126/29 95/168/29
f 111/169/42 110/119/42 87/122/42 96/170/42
f 101/162/43 92/111/43 117/171/43 120/172/43
f 96/173/26 87/107/26 86/110/26 104/174/26
f 68/175/26 96/173/26 104/174/26 72/176/26
f 79/177/44 101/162/44 97/178/44 70/145/44
f 108/179/45 111/169/45 96/170/45 68/180/45
f 70/181/29 97/167/29 95/168/29 66/146/29
f 78/182/46 100/166/46 98/157/46 76/183/46
f 81/184/47 102/165/47 99/161/47 73/185/47
f 66/186/48 95/187/48 100/166/48 78/182/48
f 73/185/49 99/161/49 101/162/49 79/177/49
f 105/188/50 112/189/50 102/165/50 81/184/50
f 76/183/51 98/157/51 103/158/51 84/190/51
f 72/176/52 104/174/52 112/189/52 105/188/52
f 84/190/53 103/158/53 111/169/53 108/179/53
f 103/158/54 94/152/54 113/191/54 114/192/54
f 104/174/52 86/110/52 109/149/52 112/189/52
f 86/110/52 71/109/52 107/150/52 109/149/52
f 94/152/55 82/151/55 106/120/55 110/119/55
f 81/154/4 84/153/4 108/116/4 105/115/4
f 82/156/1 83/155/1 107/104/1 106/103/1
f 114/192/56 113/191/56 115/193/56 116/194/56
f 110/119/57 111/169/57 116/194/57 115/193/57
f 111/169/58 103/158/58 114/192/58 116/194/58
f 94/152/59 110/119/59 115/193/59 113/191/59
f 120/172/60 117/171/60 118/195/60 119/196/60
f 88/123/61 97/167/61 119/197/61 118/198/61
f 97/178/62 101/162/62 120/172/62 119/196/62
f 92/111/63 88/114/63 118/195/63 117/171/63
f 123/199/64 121/164/64 122/163/64 124/200/64
f 95/168/65 85/126/65 121/201/65 123/202/65
f 91/127/66 100/166/66 124/200/66 122/163/66
f 100/166/67 95/187/67 123/199/67 124/200/67
f 128/203/60 125/160/60 126/159/60 127/204/60
f 112/189/68 109/149/68 125/160/68 128/203/68
f 93/135/69 102/165/69 127/204/69 126/159/69
f 102/165/70 112/189/70 128/203/70 127/204/70
