# Blender v2.80 (sub 75) OBJ File: 'throne.blend'
# www.blender.org
mtllib throne.mtl
o Cube
v 0.208981 4.801991 -0.997857
v 0.208981 2.801991 -0.997857
v 0.208981 4.801991 0.997857
v 0.208981 2.801991 0.997857
v -0.208981 4.801991 -0.997857
v -0.208981 2.801991 -0.997857
v -0.208981 4.801991 0.997857
v -0.208981 2.801991 0.997857
v 0.208981 4.801991 -3.428714
v 0.208981 2.801991 -3.428714
v 0.208981 4.801991 -1.432999
v 0.208981 2.801991 -1.432999
v -0.208981 4.801991 -3.428714
v -0.208981 2.801991 -3.428714
v -0.208981 4.801991 -1.432999
v -0.208981 2.801991 -1.432999
v 0.208981 4.801991 -5.804273
v 0.208981 2.801991 -5.804273
v 0.208981 4.801991 -3.808558
v 0.208981 2.801991 -3.808558
v -0.208981 4.801991 -5.804273
v -0.208981 2.801991 -5.804273
v -0.208981 4.801991 -3.808558
v -0.208981 2.801991 -3.808558
v 0.208981 2.801991 -6.090637
v -0.208981 2.801991 -6.090637
v 0.208981 4.801991 -6.090637
v -0.208981 4.801991 -6.090637
v -0.208981 2.801991 1.281039
v -0.208981 4.801991 1.281039
v 0.208981 4.801991 1.281039
v 0.208981 2.801991 1.281039
v 0.208981 5.730270 0.997857
v -0.208981 5.730270 0.997857
v 0.208981 5.730270 -0.997857
v -0.208981 5.730270 -0.997857
v 0.208981 6.689436 -1.432999
v -0.208981 6.689436 -1.432999
v 0.208981 6.689436 -3.428714
v -0.208981 6.689436 -3.428714
v 0.208981 5.730270 -3.808558
v -0.208981 5.730270 -3.808558
v 0.208981 5.730270 -5.804273
v -0.208981 5.730270 -5.804273
v -0.208981 5.730270 -6.090637
v 0.208981 5.730270 -6.090637
v 0.208981 5.730270 1.281039
v -0.208981 5.730270 1.281039
v 0.208981 4.801991 -3.808558
v 0.208981 2.801991 -3.808558
v -0.208981 4.801991 -3.808558
v -0.208981 2.801991 -3.808558
v 0.208981 6.687881 -3.808558
v -0.208981 6.687881 -3.808558
v 0.208981 4.801991 -0.997857
v 0.208981 2.801991 -0.997857
v -0.208981 4.801991 -0.997857
v -0.208981 2.801991 -0.997857
v 0.208981 6.687104 -0.997857
v -0.208981 6.687104 -0.997857
v 2.171129 4.801991 0.997857
v 2.171129 2.801991 0.997857
v 2.171129 4.801991 -5.804273
v 2.171129 2.801991 -5.804273
v 2.171129 4.801991 -6.090637
v 2.171129 2.801991 -6.090637
v 2.171129 4.801991 1.281039
v 2.171129 2.801991 1.281039
v -0.208981 2.041269 -0.997857
v -0.208981 2.041269 0.997857
v 0.208981 2.295436 -0.997857
v -0.208981 2.041269 -3.428714
v -0.208981 2.041269 -1.432999
v -0.208981 2.041269 -5.804273
v -0.208981 2.041269 -3.808558
v 0.208981 2.295436 -3.808558
v 0.208981 2.295436 -0.997857
v -0.208981 2.041269 -0.997857
v 0.208981 2.041269 -6.090637
v -0.208981 2.041269 -6.090637
v -0.208981 2.041269 1.281039
v 0.208981 2.041269 1.281039
v 0.208981 2.295436 -3.808558
v -0.208981 2.041269 -3.808558
v 2.598824 2.801991 0.997857
v 2.598824 2.801991 -0.997857
v 2.598824 2.801991 -1.432999
v 2.598824 2.801991 -3.428714
v 2.598824 2.801991 -6.090637
v 2.598824 2.041269 -6.090637
v 2.598824 2.801991 -3.808558
v 2.598824 2.801991 -5.804273
v 2.598824 2.801991 -0.997857
v 2.598824 2.801991 1.281039
v 2.598824 2.801991 -3.808558
v 2.598824 2.041269 0.997857
v 2.598824 2.041269 -0.997857
v 2.598824 2.041269 -1.432999
v 2.598824 2.041269 -3.428714
v 2.598824 2.041269 -3.808558
v 2.598824 2.041269 -5.804273
v 2.598824 2.041269 -0.997857
v 2.598824 2.041269 1.281039
v 2.598824 2.041269 -3.808558
v -0.208981 1.895866 -0.997857
v 0.208981 1.895866 -0.997857
v -0.208981 1.895866 -3.808558
v 0.208981 1.895866 -3.808558
v 0.208981 1.895866 -0.997857
v -0.208981 1.895866 -0.997857
v 0.208981 1.895866 -3.808558
v -0.208981 1.895866 -3.808558
v 2.598824 1.895866 -3.808558
v 2.598824 1.895866 -0.997857
v 2.598824 1.895866 -0.997857
v 2.598824 1.895866 -3.808558
v -0.350665 1.902239 -0.997857
v -0.350665 1.902239 0.997858
v 0.117636 1.502669 1.429941
v 0.117636 1.902239 1.429941
v -0.350665 1.902239 1.429941
v -0.350665 1.502669 1.429941
v -0.350665 1.902239 -3.428714
v -0.350665 1.902239 -1.432999
v 3.033792 1.902239 -3.428714
v 3.033792 1.502669 -3.428714
v 3.033792 1.902239 -3.808558
v 3.033792 1.502669 -3.808558
v -0.350665 1.902239 -5.804273
v -0.350665 1.902239 -3.808558
v 3.033792 1.502669 0.997858
v 3.033792 1.902239 0.997858
v 3.033792 1.902239 1.429941
v 3.033792 1.502669 1.429941
v -0.350665 1.502669 -0.997857
v -0.350665 1.902239 -0.997857
v 0.117636 1.902239 -6.239538
v -0.350665 1.902239 -6.239538
v 0.117636 1.502669 -6.239538
v 3.033792 1.902239 -6.239538
v 3.033792 1.502669 -6.239538
v -0.350665 1.902239 -3.808558
v 3.033792 1.902239 -0.997857
v 3.033792 1.902239 -1.432999
v 3.033792 1.902239 -3.808558
v 3.033792 1.902239 -5.804273
v 3.033792 1.902239 -0.997857
v -0.350665 1.502669 -0.997857
v -0.350665 1.502669 -3.808558
v -0.350665 1.502669 -5.804273
v -0.350665 1.502669 0.997858
v 0.117636 1.502669 -0.997857
v 0.117636 1.502669 0.997858
v -0.350665 1.502669 -3.428714
v -0.350665 1.502669 -1.432999
v 0.117636 1.502669 -3.428714
v 0.117636 1.502669 -1.432999
v 0.117636 1.502669 -5.804273
v 0.117636 1.502669 -3.808558
v 0.117636 1.502669 -0.997857
v -0.350665 1.502669 -6.239538
v 0.117636 1.502669 -3.808558
v -0.350665 1.502669 -3.808558
v 3.033792 1.502669 -3.808558
v 3.033792 1.502669 -5.804273
v 3.033792 1.502669 -0.997857
v 3.033792 1.502669 -1.432999
v 3.033792 1.502669 -0.997857
vt 0.875000 0.750000
vt 0.875000 0.500000
vt 0.875000 0.500000
vt 0.875000 0.750000
vt 0.625000 0.500000
vt 0.375000 0.500000
vt 0.375000 0.500000
vt 0.625000 0.500000
vt 0.625000 0.750000
vt 0.375000 0.750000
vt 0.375000 0.750000
vt 0.125000 0.500000
vt 0.125000 0.500000
vt 0.375000 0.750000
vt 0.125000 0.500000
vt 0.375000 0.500000
vt 0.375000 0.750000
vt 0.125000 0.750000
vt 0.625000 0.250000
vt 0.625000 0.250000
vt 0.625000 0.500000
vt 0.625000 0.750000
vt 0.625000 0.500000
vt 0.375000 0.500000
vt 0.375000 0.750000
vt 0.625000 0.750000
vt 0.375000 0.750000
vt 0.375000 0.500000
vt 0.375000 0.750000
vt 0.375000 0.750000
vt 0.375000 0.500000
vt 0.125000 0.500000
vt 0.375000 0.500000
vt 0.375000 0.750000
vt 0.125000 0.750000
vt 0.125000 0.500000
vt 0.375000 0.500000
vt 0.625000 0.500000
vt 0.625000 0.750000
vt 0.125000 0.750000
vt 0.125000 0.750000
vt 0.375000 0.750000
vt 0.375000 0.750000
vt 0.625000 0.500000
vt 0.625000 0.750000
vt 0.125000 0.500000
vt 0.375000 0.750000
vt 0.125000 0.500000
vt 0.375000 0.500000
vt 0.375000 0.750000
vt 0.125000 0.500000
vt 0.375000 0.500000
vt 0.375000 0.750000
vt 0.625000 0.500000
vt 0.375000 0.500000
vt 0.375000 0.750000
vt 0.375000 0.500000
vt 0.375000 1.000000
vt 0.375000 1.000000
vt 0.375000 0.250000
vt 0.375000 0.250000
vt 0.375000 0.250000
vt 0.375000 0.250000
vt 0.625000 0.500000
vt 0.625000 0.750000
vt 0.375000 0.750000
vt 0.375000 0.750000
vt 0.375000 0.750000
vt 0.625000 1.000000
vt 0.625000 1.000000
vt 0.625000 1.000000
vt 0.625000 1.000000
vt 0.625000 0.750000
vt 0.375000 0.750000
vt 0.375000 0.500000
vt 0.375000 0.500000
vt 0.625000 0.750000
vt 0.625000 0.750000
vt 0.625000 0.750000
vt 0.375000 0.000000
vt 0.625000 0.000000
vt 0.625000 0.250000
vt 0.375000 0.250000
vt 0.375000 0.000000
vt 0.625000 0.000000
vt 0.625000 0.250000
vt 0.375000 0.250000
vt 0.375000 0.000000
vt 0.625000 0.000000
vt 0.625000 0.250000
vt 0.375000 0.250000
vt 0.625000 0.750000
vt 0.625000 0.500000
vt 0.625000 0.500000
vt 0.375000 0.250000
vt 0.625000 0.500000
vt 0.375000 0.000000
vt 0.625000 0.000000
vt 0.625000 0.250000
vt 0.375000 0.250000
vt 0.625000 0.750000
vt 0.375000 0.500000
vt 0.625000 0.750000
vt 0.375000 0.500000
vt 0.375000 0.500000
vt 0.375000 0.750000
vt 0.625000 0.750000
vt 0.625000 0.750000
vt 0.625000 0.500000
vt 0.375000 0.500000
vt 0.125000 0.500000
vt 0.125000 0.500000
vt 0.375000 0.500000
vt 0.125000 0.750000
vt 0.375000 0.750000
vt 0.375000 0.750000
vt 0.125000 0.750000
vt 0.875000 0.750000
vt 0.375000 0.250000
vt 0.625000 0.250000
vt 0.125000 0.750000
vt 0.125000 0.500000
vt 0.125000 0.500000
vt 0.125000 0.750000
vt 0.375000 0.750000
vt 0.375000 0.500000
vt 0.125000 0.750000
vt 0.125000 0.750000
vt 0.125000 0.750000
vt 0.125000 0.750000
vt 0.375000 1.000000
vt 0.375000 1.000000
vt 0.375000 0.750000
vt 0.375000 0.750000
vt 0.375000 0.750000
vt 0.375000 0.500000
vt 0.375000 0.500000
vt 0.625000 1.000000
vt 0.625000 1.000000
vt 0.625000 1.000000
vt 0.625000 1.000000
vt 0.375000 0.500000
vt 0.375000 0.750000
vt 0.125000 0.500000
vt 0.125000 0.750000
vt 0.125000 0.750000
vt 0.125000 0.750000
vt 0.125000 0.750000
vt 0.375000 0.750000
vt 0.125000 0.500000
vt 0.375000 1.000000
vt 0.125000 0.750000
vt 0.375000 0.500000
vt 0.125000 0.500000
vt 0.125000 0.750000
vt 0.125000 0.500000
vt 0.125000 0.750000
vt 0.125000 0.750000
vt 0.125000 0.500000
vt 0.125000 0.750000
vt 0.625000 0.750000
vt 0.625000 0.750000
vt 0.625000 0.750000
vt 0.625000 0.750000
vt 0.125000 0.500000
vt 0.125000 0.500000
vt 0.625000 1.000000
vt 0.625000 1.000000
vt 0.625000 0.750000
vt 0.625000 0.750000
vt 0.125000 0.500000
vt 0.125000 0.750000
vt 0.125000 0.750000
vt 0.625000 0.750000
vt 0.125000 0.500000
vt 0.125000 0.750000
vt 0.125000 0.500000
vt 0.125000 0.500000
vt 0.125000 0.500000
vt 0.125000 0.750000
vt 0.125000 0.750000
vt 0.125000 0.750000
vt 0.125000 0.500000
vt 0.375000 1.000000
vt 0.375000 1.000000
vt 0.375000 1.000000
vt 0.375000 1.000000
vt 0.375000 0.750000
vt 0.375000 0.500000
vt 0.125000 0.750000
vt 0.125000 0.500000
vt 0.375000 0.500000
vt 0.375000 0.750000
vt 0.125000 0.500000
vt 0.125000 0.500000
vt 0.375000 1.000000
vt 0.375000 0.500000
vt 0.375000 0.250000
vt 0.375000 0.250000
vt 0.375000 0.750000
vt 0.375000 0.750000
vt 0.375000 0.500000
vt 0.125000 0.750000
vt 0.375000 0.500000
vt 0.375000 0.500000
vt 0.375000 0.250000
vt 0.375000 0.250000
vt 0.125000 0.500000
vt 0.625000 1.000000
vt 0.625000 1.000000
vt 0.625000 0.750000
vt 0.625000 0.750000
vt 0.375000 0.750000
vt 0.375000 0.500000
vt 0.625000 1.000000
vt 0.625000 0.750000
vt 0.625000 0.750000
vt 0.625000 1.000000
vt 0.625000 0.750000
vt 0.625000 1.000000
vt 0.375000 1.000000
vt 0.625000 0.750000
vt 0.625000 1.000000
vt 0.375000 1.000000
vt 0.375000 0.750000
vt 0.125000 0.750000
vt 0.625000 1.000000
vt 0.375000 1.000000
vt 0.125000 0.500000
vt 0.625000 0.750000
vt 0.125000 0.750000
vt 0.625000 0.750000
vt 0.625000 1.000000
vt 0.125000 0.500000
vt 0.375000 0.500000
vt 0.625000 0.500000
vt 0.625000 0.500000
vn 0.0000 0.0000 -1.0000
vn -1.0000 0.0000 0.0000
vn 1.0000 0.0000 0.0000
vn 0.0000 0.0000 1.0000
vn 0.0000 -1.0000 0.0000
vn 0.0000 1.0000 0.0000
vn 0.0000 1.0000 0.0054
vn 0.0000 1.0000 -0.0041
vn 0.3045 0.9525 0.0000
vn -0.7004 0.7138 0.0000
vn 0.0000 0.7309 -0.6825
vn 0.0000 0.7309 0.6825
usemtl Material
s off
f 27/1/1 28/2/1 45/3/1 46/4/1
f 7/5/2 8/6/2 29/7/2 30/8/2
f 8/6/2 7/5/2 5/9/2 6/10/2
f 105/11/1 106/12/1 152/13/1 135/14/1
f 2/15/3 1/16/3 3/17/3 4/18/3
f 30/8/4 31/19/4 47/20/4 48/21/4
f 57/22/2 15/23/2 16/24/2 58/25/2
f 16/24/2 15/23/2 13/26/2 14/27/2
f 24/28/2 22/29/2 74/30/2 75/31/2
f 10/32/3 9/33/3 11/34/3 12/35/3
f 56/36/3 12/35/3 11/34/3 55/37/3
f 5/9/2 7/5/2 34/38/2 36/39/2
f 50/40/4 20/41/4 19/42/4 49/43/4
f 24/28/2 23/44/2 21/45/2 22/29/2
f 6/10/1 2/15/1 71/46/1 69/47/1
f 18/48/3 17/49/3 19/42/3 20/41/3
f 56/36/4 58/25/4 78/50/4 77/51/4
f 19/42/3 17/49/3 43/52/3 41/53/3
f 51/54/4 23/44/4 24/28/4 52/55/4
f 55/37/3 11/34/3 37/56/3 59/57/3
f 50/40/4 52/58/4 24/59/4 20/41/4
f 32/60/4 82/61/4 103/62/4 94/63/4
f 26/64/1 28/2/1 27/1/1 25/65/1
f 31/66/3 3/17/3 33/67/3 47/68/3
f 32/69/5 4/70/5 62/71/5 68/72/5
f 22/29/2 21/45/2 28/73/2 26/74/2
f 32/60/4 31/19/4 30/8/4 29/7/4
f 8/6/2 6/10/2 69/47/2 70/75/2
f 3/17/3 1/16/3 35/76/3 33/67/3
f 18/77/5 25/65/5 66/78/5 64/79/5
f 35/80/6 36/81/6 34/82/6 33/83/6
f 39/84/6 40/85/6 38/86/6 37/87/6
f 43/88/6 44/89/6 42/90/6 41/91/6
f 60/92/7 59/57/7 37/87/7 38/93/7
f 54/94/1 53/95/1 41/91/1 42/96/1
f 44/89/6 43/88/6 46/97/6 45/98/6
f 33/83/6 34/82/6 48/99/6 47/100/6
f 57/22/4 5/9/4 36/39/4 60/92/4
f 21/45/2 23/44/2 42/96/2 44/101/2
f 11/34/3 9/33/3 39/102/3 37/56/3
f 51/54/2 13/26/2 40/103/2 54/94/2
f 7/5/2 30/8/2 48/21/2 34/38/2
f 17/49/3 27/104/3 46/105/3 43/52/3
f 13/26/2 15/23/2 38/93/2 40/103/2
f 49/43/4 19/42/4 41/53/4 53/106/4
f 28/73/2 21/45/2 44/101/2 45/107/2
f 9/33/3 49/43/3 53/106/3 39/102/3
f 23/44/4 51/54/4 54/94/4 42/96/4
f 40/103/8 39/102/8 53/95/8 54/94/8
f 26/64/1 25/65/1 79/108/1 80/109/1
f 13/26/2 51/54/2 52/55/2 14/27/2
f 10/32/3 50/40/3 49/43/3 9/33/3
f 15/23/2 57/22/2 60/92/2 38/93/2
f 36/39/4 35/76/4 59/57/4 60/92/4
f 2/15/4 6/10/4 58/25/4 56/36/4
f 1/16/4 55/37/4 59/57/4 35/76/4
f 2/15/4 56/36/4 55/37/4 1/16/4
f 5/9/4 57/22/4 58/25/4 6/10/4
f 63/110/3 64/111/3 66/112/3 65/113/3
f 62/114/3 61/115/3 67/116/3 68/117/3
f 25/65/1 27/1/1 65/118/1 66/78/1
f 27/104/6 17/49/6 63/110/6 65/113/6
f 3/17/6 31/66/6 67/116/6 61/115/6
f 4/18/1 3/17/1 61/115/1 62/114/1
f 17/49/4 18/48/4 64/111/4 63/110/4
f 31/19/4 32/60/4 68/119/4 67/120/4
f 104/121/9 99/122/9 125/123/9 127/124/9
f 70/75/10 69/47/10 117/125/10 118/126/10
f 100/127/4 76/128/4 108/129/4 113/130/4
f 76/128/4 75/131/4 107/132/4 108/129/4
f 110/133/4 78/50/4 136/134/4 148/135/4
f 78/50/10 73/136/10 124/137/10 136/134/10
f 96/138/9 103/139/9 133/140/9 132/141/9
f 20/41/4 24/59/4 75/131/4 76/128/4
f 32/60/4 29/7/4 81/142/4 82/61/4
f 22/29/2 26/74/2 80/143/2 74/30/2
f 12/35/6 56/36/6 93/144/6 87/145/6
f 58/25/2 16/24/2 73/136/2 78/50/2
f 83/146/1 104/121/1 116/147/1 111/148/1
f 29/7/2 8/6/2 70/75/2 81/142/2
f 16/24/2 14/27/2 72/149/2 73/136/2
f 10/32/6 12/35/6 87/145/6 88/150/6
f 52/58/1 50/40/1 83/146/1 84/151/1
f 20/41/4 76/128/4 100/127/4 91/152/4
f 14/27/2 52/55/2 84/153/2 72/149/2
f 69/47/1 105/11/1 135/14/1 117/125/1
f 87/145/3 93/144/3 102/154/3 98/155/3
f 88/150/3 87/145/3 98/155/3 99/122/3
f 86/156/3 85/157/3 96/158/3 97/159/3
f 95/160/3 88/150/3 99/122/3 104/121/3
f 89/161/3 92/162/3 101/163/3 90/164/3
f 92/165/3 91/152/3 100/127/3 101/166/3
f 85/167/3 94/168/3 103/139/3 96/138/3
f 79/108/1 25/65/1 89/161/1 90/164/1
f 69/47/1 71/46/1 106/12/1 105/11/1
f 90/164/9 101/163/9 146/169/9 140/170/9
f 56/36/4 77/51/4 102/154/4 93/144/4
f 2/15/6 4/18/6 85/157/6 86/156/6
f 77/51/4 78/50/4 110/133/4 109/171/4
f 50/40/6 10/32/6 88/150/6 95/160/6
f 71/46/1 2/15/1 86/156/1 97/159/1
f 25/65/6 18/77/6 92/162/6 89/161/6
f 83/146/1 50/40/1 95/160/1 104/121/1
f 18/48/6 20/41/6 91/152/6 92/165/6
f 111/148/1 116/147/1 128/172/1 162/173/1
f 4/70/6 32/69/6 94/168/6 85/167/6
f 79/108/11 90/164/11 140/170/11 137/174/11
f 98/155/9 102/154/9 147/175/9 144/176/9
f 115/177/4 109/171/4 160/178/4 168/179/4
f 113/130/4 108/129/4 159/180/4 164/181/4
f 101/166/9 100/127/9 145/182/9 146/183/9
f 108/129/4 107/132/4 149/184/4 159/180/4
f 102/154/4 115/177/4 168/179/4 147/175/4
f 109/171/4 110/133/4 148/135/4 160/178/4
f 99/122/9 98/155/9 144/176/9 125/123/9
f 84/151/1 112/185/1 163/186/1 142/187/1
f 112/185/1 111/148/1 162/173/1 163/186/1
f 75/31/10 74/30/10 129/188/10 130/189/10
f 97/159/9 96/158/9 132/190/9 143/191/9
f 72/149/10 84/153/10 142/192/10 123/193/10
f 116/147/1 104/121/1 127/124/1 128/172/1
f 106/12/1 114/194/1 166/195/1 152/13/1
f 107/132/4 75/131/4 130/196/4 149/184/4
f 81/142/10 70/75/10 118/126/10 121/197/10
f 102/154/4 77/51/4 109/171/4 115/177/4
f 73/136/10 72/149/10 123/193/10 124/137/10
f 82/61/12 81/142/12 121/197/12 120/198/12
f 71/46/1 97/159/1 114/194/1 106/12/1
f 84/151/1 83/146/1 111/148/1 112/185/1
f 114/194/1 97/159/1 143/191/1 166/195/1
f 103/62/12 82/61/12 120/198/12 133/199/12
f 74/30/10 80/143/10 138/200/10 129/188/10
f 124/137/2 123/193/2 154/201/2 155/202/2
f 143/191/3 132/190/3 131/203/3 166/195/3
f 121/197/2 118/126/2 151/204/2 122/205/2
f 133/199/4 120/198/4 119/206/4 134/207/4
f 120/198/4 121/197/4 122/205/4 119/206/4
f 127/124/3 125/123/3 126/208/3 128/172/3
f 132/141/3 133/140/3 134/209/3 131/210/3
f 137/174/1 140/170/1 141/211/1 139/212/1
f 130/189/2 129/188/2 150/213/2 149/214/2
f 159/215/5 158/216/5 165/217/5 164/218/5
f 135/14/5 152/219/5 153/220/5 151/221/5
f 154/201/5 156/222/5 157/223/5 155/224/5
f 150/213/5 158/216/5 159/215/5 149/184/5
f 158/216/5 150/213/5 161/225/5 139/212/5
f 160/178/5 148/135/5 155/224/5 157/226/5
f 151/221/5 153/220/5 119/227/5 122/228/5
f 156/229/5 154/201/5 163/186/5 162/173/5
f 153/220/5 152/219/5 166/230/5 131/210/5
f 158/216/5 139/212/5 141/211/5 165/217/5
f 119/227/5 153/220/5 131/210/5 134/209/5
f 160/178/5 157/226/5 167/231/5 168/179/5
f 156/229/5 162/173/5 128/172/5 126/208/5
f 157/223/5 156/222/5 126/232/5 167/233/5
f 125/123/3 144/176/3 167/231/3 126/208/3
f 146/183/3 145/182/3 164/181/3 165/234/3
f 136/134/2 124/137/2 155/202/2 148/135/2
f 123/193/2 142/192/2 163/235/2 154/201/2
f 144/176/3 147/175/3 168/179/3 167/231/3
f 138/236/1 137/174/1 139/212/1 161/237/1
f 118/126/2 117/125/2 135/14/2 151/204/2
f 140/170/3 146/169/3 165/217/3 141/211/3
f 129/188/2 138/200/2 161/225/2 150/213/2
f 80/109/11 79/108/11 137/174/11 138/236/11
f 100/127/4 113/130/4 164/181/4 145/182/4
