# This file uses centimeters as units for non-parametric coordinates.

mtllib Prim_RuneV1_0.mtl
g default
v -0.852838 2.078570 -0.782651
v -0.642575 2.068966 -1.039707
v -0.461504 1.771523 -0.677518
v -0.375916 1.972582 -1.076152
v -0.631237 2.390250 -0.816310
v -0.891275 2.357244 -0.902014
v -1.339677 2.730550 -0.055871
v -0.166479 2.339409 -0.864367
v -0.556905 2.646039 -0.820550
v -1.288344 3.171505 -0.638918
v 0.380492 1.849704 -0.842706
v -0.556752 2.585871 -0.821351
v 0.090994 1.561291 -0.056237
v -0.386243 2.585871 -0.838738
v -0.564031 3.422572 -0.783305
v -0.958885 2.452950 0.656774
v -0.377326 2.956632 -0.832828
v -0.374976 2.884533 -0.833574
v 0.490618 1.619563 -0.303219
v -0.376871 2.797678 -0.835205
v -0.398392 2.797678 -0.722723
v 0.454477 2.585871 -0.744705
v 0.391563 1.779158 0.605318
v -0.387878 3.227687 -0.830190
v -0.398392 2.956632 -0.722723
v -0.784618 4.208261 -0.744507
v -0.397649 2.884533 -0.713076
v -0.006826 3.205331 -0.792915
v 0.950634 1.821095 0.000000
v -1.089743 3.972138 -0.706738
v -0.305170 3.512300 -0.834907
v 0.615652 2.585871 -0.713306
v 0.455056 3.178231 -0.747734
v -0.397649 2.725579 -0.713076
v 0.406637 3.443460 -0.523621
v -0.390219 3.482819 -0.817953
v 1.163282 2.339844 -0.605317
v 0.128201 3.321862 -0.785214
v -0.401933 4.479905 -0.594886
v -0.389615 3.561793 -0.821112
v -0.573269 2.585871 -0.735019
v -0.411990 2.585871 -0.704163
v 0.406637 3.602414 -0.523621
v -0.390037 3.635492 -0.818906
v 0.086379 3.199862 -0.783798
v 0.447159 3.674514 -0.728535
v 0.446423 3.602414 -0.731574
v 0.164379 3.195286 -0.776168
v 0.249332 3.268634 -0.771324
v 0.445401 3.823533 -0.697268
v 0.409800 3.515560 -0.533268
v -0.374342 2.725579 -0.836941
v -0.397071 3.823533 -0.782139
v -0.519578 3.823533 -0.794481
v 0.409800 3.674514 -0.533268
v 0.451033 3.706741 -0.726706
v 0.939778 3.832410 -0.656774
v 0.616445 3.396040 -0.717449
v -0.090994 4.697771 0.056237
v 1.216489 3.129531 1.076152
v -0.562191 3.662940 -0.792920
v -0.573269 3.823533 -0.735019
v -0.411990 3.823533 -0.704163
v 0.610147 3.823533 -0.684530
v 0.613761 3.748582 -0.703422
v 0.358201 4.367790 0.638918
v 0.793436 4.280348 0.055870
v 0.416398 2.585871 -0.545673
v 0.577676 2.585871 -0.514817
v 0.194457 3.292747 -0.777616
v 0.169051 4.657494 0.270457
v 0.447633 3.443460 -0.737898
v 0.416398 3.823533 -0.545673
v 0.577676 3.823533 -0.514817
v -0.563111 3.823533 -0.788112
v 0.448369 3.515560 -0.734859
vt 1.110130 0.257156
vt 1.086054 0.288238
vt 1.088104 0.176208
vt 1.058093 0.269654
vt 1.075552 0.359024
vt 1.132156 0.338104
vt 0.110130 0.257156
vt 0.243378 0.428472
vt 0.132156 0.338104
vt 0.088104 0.176208
vt 1.022577 0.352890
vt 1.065113 0.406372
vt 0.176208 0.500000
vt 0.936071 0.273451
vt 1.065544 0.395355
vt 0.838104 0.176208
vt 1.045970 0.396521
vt 1.176208 0.500000
vt 1.068320 0.549156
vt 0.354990 0.386101
vt 1.042000 0.464392
vt 1.042227 0.451187
vt 0.838104 0.231056
vt 0.375000 0.913909
vt 0.375000 1.000000
vt 0.931094 0.402386
vt 0.338104 0.176208
vt 0.588104 0.176208
vt 1.041377 0.514040
vt 0.375000 0.915729
vt 0.375000 1.000000
vt 0.625000 0.907774
vt 0.110130 0.742844
vt 0.625000 1.000000
vt 0.750904 0.111717
vt 0.717226 0.000000
vt 0.625000 0.000000
vt 0.744343 0.269539
vt 0.132156 0.661896
vt 1.029762 0.566724
vt 0.907540 0.404307
vt 0.929239 0.503565
vt 0.625000 0.000000
vt 0.375000 0.000000
vt 0.625000 0.250000
vt 1.042431 0.560952
vt 0.828244 0.368814
vt 0.768548 0.152299
vt 0.088104 0.823792
vt 1.040783 0.576967
vt 0.625000 0.897000
vt 0.375000 0.933924
vt 0.375000 1.000000
vt 0.625000 1.000000
vt 0.375000 0.000000
vt 0.625000 0.250000
vt 1.043988 0.597899
vt 0.990685 0.509304
vt 0.978285 0.508146
vt 0.925340 0.593885
vt 0.784161 0.250000
vt 0.967909 0.507177
vt 0.956442 0.520656
vt 0.930618 0.630619
vt 0.375000 0.250000
vt 0.625000 0.905197
vt 0.625000 1.000000
vt 1.048553 0.643597
vt 1.065703 0.645484
vt 1.088104 0.823792
vt 1.110130 0.742844
vt 0.375000 0.250000
vt 0.924488 0.599736
vt 0.856447 0.621072
vt 0.905003 0.542689
vt 0.926164 0.580769
vt 0.338104 0.823792
vt 0.632386 0.500000
vt 1.132156 0.661896
vt 1.063306 0.597901
vt 0.375000 0.000000
vt 0.375000 0.250000
vt 0.625000 0.250000
vt 0.625000 0.000000
vt 0.905767 0.626659
vt 0.901834 0.606840
vt 0.588104 0.823792
vt 0.737254 0.727082
vt 0.625000 0.848082
vt 0.375000 0.847667
vt 0.375000 1.000000
vt 0.625000 1.000000
vt 0.838104 0.823792
vt 0.972459 0.530719
vt 0.963698 0.525215
vt 0.290729 0.000000
vt 0.225548 0.250000
vt 0.713104 0.823792
vt 0.463104 0.823792
vt 0.719803 0.000000
vt 0.927593 0.551844
vt 0.375000 0.000000
vt 0.375000 0.250000
vt 0.625000 0.250000
vt 0.625000 0.000000
vt 0.375000 0.399452
vt 0.625000 0.409161
vt 0.375000 0.366026
vt 0.625000 0.379894
vt 1.070290 0.643512
vt 0.375000 0.290635
vt 0.438276 0.301487
vt 0.625000 0.309681
vt 0.375000 0.404292
vt 0.625000 0.414002
vt 0.308924 0.000000
vt 0.309538 0.012154
vt 0.338043 0.169008
vt 0.330685 0.217561
vt 0.334365 0.250000
vt 0.789002 0.250000
vt 0.779272 0.189117
vt 0.768164 0.163574
vt 1.043156 0.435298
vt 1.043453 0.422135
vt 0.222667 0.000000
vt 0.220348 0.119653
vt 0.236442 0.226409
vt 0.258974 0.250000
vt 0.926769 0.564960
vt 0.754894 0.250000
vt 0.769354 0.234861
vt 0.780089 0.163649
vt 0.776918 0.000000
vt 0.684681 0.250000
vt 0.712821 0.212017
vt 0.714510 0.197130
vt 0.712092 0.181178
vt 0.721458 0.129643
vt 0.728000 0.000000
vt 0.288909 0.000000
vt 0.247019 0.140059
vt 0.232988 0.172406
vt 0.220708 0.250000
vn -0.472175 -0.880859 0.033738
vn -0.760643 -0.647212 -0.050390
vn -0.336867 -0.179510 -0.924282
vn 0.000577 -0.267522 -0.963552
vn -0.029583 0.133821 -0.990564
vn -0.639433 -0.121802 -0.759138
vn 0.144397 0.022821 -0.989257
vn -0.914396 0.025219 0.404034
vn -0.838440 0.147582 -0.524631
vn -0.445377 -0.241147 0.862257
vn 0.267942 -0.352567 -0.896607
vn -0.304450 -0.930965 0.201528
vn 0.321861 -0.919247 -0.226696
vn -0.144621 0.049276 -0.988259
vn -0.084657 0.122664 -0.988831
vn 0.981965 0.032495 0.186248
vn 0.981965 0.032495 0.186248
vn 0.981965 0.032495 0.186248
vn 0.981965 0.032495 0.186248
vn 0.943254 0.140043 -0.301099
vn 0.959437 0.071414 -0.272729
vn 0.116722 0.035381 -0.992534
vn 0.191031 0.042137 -0.980679
vn 0.191031 0.042137 -0.980679
vn 0.190312 0.042117 -0.980820
vn 0.477715 -0.684019 0.551277
vn 0.981963 0.032556 0.186252
vn 0.981963 0.032556 0.186252
vn 0.981963 0.032556 0.186252
vn 0.981963 0.032556 0.186252
vn -0.695414 0.717039 0.047485
vn -0.895647 0.417133 -0.154329
vn -0.644486 0.754671 -0.122915
vn -0.644487 0.754671 -0.122915
vn -0.644487 0.754671 -0.122915
vn -0.644487 0.754671 -0.122915
vn -0.644487 0.754671 -0.122915
vn -0.644486 0.754671 -0.122915
vn 0.875772 -0.145045 0.460418
vn 0.335412 -0.130470 -0.932993
vn 0.335412 -0.130470 -0.932993
vn 0.335412 -0.130470 -0.932993
vn 0.335412 -0.130470 -0.932993
vn -0.205770 0.031135 -0.978105
vn 0.088278 0.145045 -0.985479
vn 0.072766 0.031616 -0.996848
vn -0.646265 0.762258 0.036101
vn -0.158260 0.005188 -0.987384
vn 0.000000 1.000000 -0.000000
vn 0.000000 1.000000 -0.000000
vn 0.000000 1.000000 -0.000000
vn 0.000000 1.000000 -0.000000
vn 0.335412 -0.130470 -0.932993
vn 0.335412 -0.130470 -0.932993
vn 0.335412 -0.130470 -0.932993
vn 0.335412 -0.130470 -0.932993
vn 0.103728 0.249828 -0.962718
vn 0.073354 0.031187 -0.996818
vn 0.073861 0.029422 -0.996834
vn 0.103945 0.250013 -0.962647
vn 0.103945 0.250013 -0.962647
vn 0.092732 0.167347 -0.981527
vn 0.103945 0.250013 -0.962647
vn 0.087022 0.235526 -0.967964
vn 0.106542 0.232047 -0.966852
vn -0.648416 0.654588 0.388678
vn -0.352106 0.432894 0.829834
vn 0.467506 -0.084218 0.879969
vn -0.176345 -0.026621 -0.983968
vn 0.187915 0.000000 -0.982185
vn 0.187915 0.000000 -0.982185
vn 0.187915 0.000000 -0.982185
vn 0.187915 0.000000 -0.982185
vn 0.462532 0.679149 0.569930
vn 0.000000 1.000000 -0.000001
vn 0.000000 1.000000 -0.000001
vn 0.000000 1.000000 -0.000001
vn 0.000000 1.000000 -0.000001
vn 0.379868 0.895797 -0.230756
vn 0.074207 0.028216 -0.996844
vn 0.073345 0.031220 -0.996818
vn 0.073811 0.029595 -0.996833
vn 0.073420 0.030958 -0.996821
vn 0.642789 -0.756108 0.122981
vn 0.642789 -0.756108 0.122981
vn 0.642789 -0.756108 0.122981
vn 0.642789 -0.756108 0.122981
vn -0.644497 0.754676 -0.122830
vn -0.644497 0.754676 -0.122830
vn -0.644497 0.754676 -0.122830
vn -0.644497 0.754676 -0.122830
vn -0.644497 0.754676 -0.122830
vn -0.644497 0.754676 -0.122830
vn 0.073238 0.031591 -0.996814
vn 0.073238 0.031591 -0.996814
vn 0.073238 0.031591 -0.996814
vn 0.073238 0.031591 -0.996814
vn 0.073238 0.031591 -0.996814
vn 0.073238 0.031591 -0.996814
vn 0.073238 0.031591 -0.996814
vn 0.073238 0.031591 -0.996814
vn 0.073238 0.031591 -0.996814
vn 0.073238 0.031591 -0.996814
vn 0.187915 0.000000 -0.982185
vn 0.187915 0.000000 -0.982185
vn 0.187915 0.000000 -0.982185
vn 0.187915 0.000000 -0.982185
vn -0.982027 0.017943 -0.187885
vn -0.982027 0.017943 -0.187885
vn -0.982027 0.017943 -0.187885
vn -0.982027 0.017943 -0.187885
vn 0.000000 -1.000000 0.000002
vn 0.000000 -1.000000 0.000002
vn 0.000000 -1.000000 0.000002
vn 0.000000 -1.000000 0.000002
vn -0.144702 0.028786 -0.989056
vn 0.000000 -1.000000 -0.000005
vn 0.000000 -1.000000 -0.000005
vn 0.000000 -1.000000 -0.000005
vn 0.000000 -1.000000 -0.000005
vn 0.000000 -1.000000 -0.000005
vn -0.982027 0.017943 -0.187885
vn -0.982027 0.017943 -0.187885
vn -0.982027 0.017943 -0.187885
vn -0.982027 0.017943 -0.187885
vn 0.982185 0.000000 0.187916
vn 0.982185 0.000000 0.187916
vn 0.982185 0.000000 0.187916
vn 0.982185 0.000000 0.187916
vn 0.982185 0.000000 0.187916
vn 0.982185 0.000000 0.187916
vn 0.982185 0.000000 0.187916
vn 0.982185 0.000000 0.187915
vn 0.982185 0.000000 0.187915
vn 0.982185 0.000000 0.187915
vn 0.982185 0.000000 0.187915
vn 0.982185 0.000000 0.187915
vn 0.982185 0.000000 0.187915
vn -0.982185 0.000000 -0.187915
vn -0.982185 0.000000 -0.187915
vn -0.982185 0.000000 -0.187915
vn -0.982185 0.000000 -0.187915
vn -0.982185 0.000000 -0.187915
vn -0.982185 0.000000 -0.187915
vn -0.982185 0.000000 -0.187916
vn -0.982185 0.000000 -0.187916
vn -0.982185 0.000000 -0.187916
vn -0.982185 0.000000 -0.187916
vn -0.982185 0.000000 -0.187916
vn -0.982185 0.000000 -0.187916
vn -0.982185 0.000000 -0.187916
vn -0.982185 0.000000 -0.187916
vn 0.642789 -0.756108 0.122980
vn 0.642789 -0.756108 0.122980
vn 0.642789 -0.756108 0.122980
vn 0.642789 -0.756108 0.122980
vn 0.642789 -0.756108 0.122980
vn 0.642789 -0.756108 0.122980
s 1
g pPlatonic5
usemtl lambert2SG
f 3/3/1 1/1/2 2/2/3 4/4/4
f 5/5/5 2/2/3 1/1/2 6/6/6
f 4/4/4 2/2/3 5/5/5 8/11/7
f 6/9/6 1/7/2 7/8/8 10/13/9
f 7/8/8 1/7/2 3/10/1 16/20/10
f 3/3/1 4/4/4 8/11/7 11/14/11
f 13/16/12 3/3/1 11/14/11 19/23/13
f 6/6/6 10/18/9 15/19/14 9/12/15 5/5/5
s off
f 20/24/16 21/25/17 34/67/18 52/66/19
s 1
f 57/74/20 37/47/21 11/14/11 8/11/7 33/42/22 22/26/23 32/41/24 58/75/25
f 3/10/1 13/27/12 23/28/26 16/20/10
s off
f 18/32/27 17/30/28 25/31/29 27/34/30
s 1
f 10/13/9 7/8/8 26/33/31 30/39/32
s off
f 47/61/33 38/48/34 28/35/35 18/36/36 27/37/37 43/56/38
s 1
f 29/38/39 19/23/13 11/14/11 37/47/21
f 13/16/12 19/23/13 29/38/39 23/28/26
s off
f 35/45/40 34/43/41 21/44/42 51/65/43
s 1
f 36/46/44 31/40/45 24/29/46
f 7/8/8 16/20/10 39/49/47 26/33/31
f 31/40/45 36/46/44 40/50/48
s off
f 14/51/49 12/52/50 41/53/51 42/54/52
f 43/56/53 27/37/54 25/55/55 55/72/56
s 1
f 31/40/45 40/50/48 44/57/57
f 33/42/22 48/62/58 49/63/59
f 64/85/60 50/64/61 56/73/62 31/40/45 44/57/57 53/68/63 54/69/64 26/71/31 39/70/47 57/74/20 65/86/65
f 23/28/26 29/38/39 37/47/21 57/74/20
f 59/77/66 39/49/47 16/20/10 66/87/67
f 60/78/68 16/20/10 23/28/26 57/74/20
f 15/19/14 10/18/9 30/79/32 61/80/69
s off
f 41/81/70 62/82/71 63/83/72 42/84/73
s 1
f 57/74/20 58/75/25 65/86/65
f 57/74/20 39/70/47 67/88/74
f 66/87/67 16/20/10 60/78/68 67/88/74
s off
f 32/89/75 22/90/76 68/91/77 69/92/78
s 1
f 67/88/74 39/70/47 59/93/66 71/98/79
f 45/59/80 28/58/81 38/94/82 70/95/83
s off
f 17/96/84 46/97/85 55/72/86 25/55/87
s 1
f 57/74/20 67/88/74 60/78/68
f 66/87/67 71/99/79 59/77/66
s off
f 52/100/88 34/43/89 35/45/90 72/121/91 49/122/92 48/123/93
s 1
f 67/88/74 71/98/79 66/87/67
f 33/42/22 49/63/59 72/101/94 76/130/95 70/95/83 38/94/82 47/76/96 46/60/97 17/21/98 18/22/99 28/58/81 45/59/80 20/124/100 52/125/101 48/62/58 33/42/22 8/11/7 5/5/5 9/12/15 12/15/102 14/17/103 24/29/46 31/40/45 56/73/62
s off
f 68/102/104 73/103/105 74/104/106 69/105/107
f 46/106/108 47/107/109 43/56/110 55/72/111
f 50/108/112 64/109/113 74/104/114 73/103/115
s 1
f 61/80/69 30/79/32 26/71/31 54/69/64 75/110/116
s off
f 62/82/117 75/111/118 54/112/119 53/113/120 63/83/121
f 51/65/122 76/114/123 72/115/124 35/45/125
f 12/116/126 9/117/127 15/118/128 61/119/129 75/120/130 62/82/131 41/81/132
f 22/126/133 33/127/134 56/128/135 50/129/136 73/103/137 68/102/138
f 69/105/139 74/104/140 64/131/141 65/132/142 58/133/143 32/134/144
f 42/84/145 63/83/146 53/135/147 44/136/148 40/137/149 36/138/150 24/139/151 14/140/152
f 20/141/153 45/142/154 70/143/155 76/144/156 51/65/157 21/44/158
g default
v -0.398392 2.956632 -0.566218
v -0.397649 2.884533 -0.556571
v 0.409800 3.674514 -0.376764
v 0.406637 3.602414 -0.367116
v 0.472293 3.674514 -0.703402
v 0.469130 3.602414 -0.693755
v -0.335898 2.956632 -0.892857
v -0.336187 2.884533 -0.883210
vt 0.375000 0.000000
vt 0.625000 0.000000
vt 0.625000 0.250000
vt 0.375000 0.250000
vt 0.625000 0.500000
vt 0.375000 0.500000
vt 0.625000 0.750000
vt 0.375000 0.750000
vt 0.625000 1.000000
vt 0.375000 1.000000
vt 0.875000 0.000000
vt 0.875000 0.250000
vt 0.125000 0.000000
vt 0.125000 0.250000
vn -0.335413 0.130470 0.932993
vn -0.335413 0.130470 0.932993
vn -0.335413 0.130470 0.932993
vn -0.335413 0.130470 0.932993
vn 0.982027 -0.017943 0.187885
vn 0.982027 -0.017943 0.187885
vn 0.982027 -0.017943 0.187885
vn 0.982027 -0.017943 0.187885
vn 0.337044 -0.132785 -0.932078
vn 0.337044 -0.132785 -0.932078
vn 0.337044 -0.132785 -0.932078
vn 0.337044 -0.132785 -0.932078
vn -0.982085 -0.028018 -0.186345
vn -0.982085 -0.028018 -0.186345
vn -0.982085 -0.028018 -0.186345
vn -0.982085 -0.028018 -0.186345
vn 0.644477 -0.754782 0.122286
vn 0.644477 -0.754782 0.122286
vn 0.644477 -0.754782 0.122286
vn 0.644477 -0.754782 0.122286
vn -0.642789 0.756107 -0.122981
vn -0.642789 0.756107 -0.122980
vn -0.642789 0.756107 -0.122981
vn -0.642789 0.756107 -0.122981
s off
g polySurface10 polySurface4
usemtl lambert6SG
f 77/145/159 78/146/160 80/147/161 79/148/162
f 79/148/163 80/147/164 82/149/165 81/150/166
f 81/150/167 82/149/168 84/151/169 83/152/170
f 83/152/171 84/151/172 78/153/173 77/154/174
f 78/146/175 84/155/176 82/156/177 80/147/178
f 83/157/179 77/145/180 79/148/181 81/158/182
g default
v -0.398392 2.849221 -0.386461
v -0.397649 2.777121 -0.376814
v 0.409800 3.567102 -0.197007
v 0.406637 3.495002 -0.187359
v 0.472293 3.567102 -0.523645
v 0.469130 3.495002 -0.513998
v -0.335898 2.849221 -0.713100
v -0.336187 2.777121 -0.703453
vt 0.375000 0.000000
vt 0.625000 0.000000
vt 0.625000 0.250000
vt 0.375000 0.250000
vt 0.625000 0.500000
vt 0.375000 0.500000
vt 0.625000 0.750000
vt 0.375000 0.750000
vt 0.625000 1.000000
vt 0.375000 1.000000
vt 0.875000 0.000000
vt 0.875000 0.250000
vt 0.125000 0.000000
vt 0.125000 0.250000
vn -0.335413 0.130470 0.932993
vn -0.335413 0.130470 0.932993
vn -0.335413 0.130470 0.932993
vn -0.335413 0.130470 0.932993
vn 0.982027 -0.017943 0.187885
vn 0.982027 -0.017943 0.187885
vn 0.982027 -0.017943 0.187885
vn 0.982027 -0.017943 0.187885
vn 0.337044 -0.132785 -0.932078
vn 0.337044 -0.132785 -0.932078
vn 0.337044 -0.132785 -0.932078
vn 0.337044 -0.132785 -0.932078
vn -0.982085 -0.028018 -0.186345
vn -0.982085 -0.028018 -0.186345
vn -0.982085 -0.028018 -0.186345
vn -0.982085 -0.028018 -0.186345
vn 0.644477 -0.754782 0.122286
vn 0.644477 -0.754782 0.122286
vn 0.644477 -0.754782 0.122286
vn 0.644477 -0.754782 0.122286
vn -0.642789 0.756107 -0.122981
vn -0.642789 0.756107 -0.122980
vn -0.642789 0.756107 -0.122981
vn -0.642789 0.756107 -0.122981
s off
g polySurface4 polySurface14
usemtl lambert5SG
f 85/159/183 86/160/184 88/161/185 87/162/186
f 87/162/187 88/161/188 90/163/189 89/164/190
f 89/164/191 90/163/192 92/165/193 91/166/194
f 91/166/195 92/165/196 86/167/197 85/168/198
f 86/160/199 92/169/200 90/170/201 88/161/202
f 91/171/203 85/159/204 87/162/205 89/172/206
g default
v -0.573269 2.585871 -0.524233
v -0.411990 2.585871 -0.493377
v -0.573269 3.823533 -0.524233
v -0.411990 3.823533 -0.493377
v -0.510775 3.823533 -0.850871
v -0.349496 3.823533 -0.820015
v -0.510775 2.585871 -0.850871
v -0.349496 2.585871 -0.820015
vt 0.375000 0.000000
vt 0.625000 0.000000
vt 0.625000 0.250000
vt 0.375000 0.250000
vt 0.625000 0.500000
vt 0.375000 0.500000
vt 0.625000 0.750000
vt 0.375000 0.750000
vt 0.625000 1.000000
vt 0.375000 1.000000
vt 0.875000 0.000000
vt 0.875000 0.250000
vt 0.125000 0.000000
vt 0.125000 0.250000
vn -0.187915 0.000000 0.982185
vn -0.187915 0.000000 0.982185
vn -0.187915 0.000000 0.982185
vn -0.187915 0.000000 0.982185
vn 0.000000 1.000000 -0.000000
vn 0.000000 1.000000 -0.000000
vn 0.000000 1.000000 -0.000000
vn 0.000000 1.000000 -0.000000
vn 0.187915 0.000000 -0.982185
vn 0.187915 0.000000 -0.982185
vn 0.187915 0.000000 -0.982185
vn 0.187915 0.000000 -0.982185
vn 0.000000 -1.000000 -0.000000
vn 0.000000 -1.000000 -0.000000
vn 0.000000 -1.000000 -0.000000
vn 0.000000 -1.000000 -0.000000
vn 0.982185 0.000000 0.187916
vn 0.982185 0.000000 0.187916
vn 0.982185 0.000000 0.187916
vn 0.982185 0.000000 0.187916
vn -0.982185 0.000000 -0.187916
vn -0.982185 0.000000 -0.187916
vn -0.982185 0.000000 -0.187916
vn -0.982185 0.000000 -0.187916
s off
g polySurface11 polySurface5
usemtl lambert3SG
f 93/173/207 94/174/208 96/175/209 95/176/210
f 95/176/211 96/175/212 98/177/213 97/178/214
f 97/178/215 98/177/216 100/179/217 99/180/218
f 99/180/219 100/179/220 94/181/221 93/182/222
f 94/174/223 100/183/224 98/184/225 96/175/226
f 99/185/227 93/173/228 95/176/229 97/186/230
g default
v 0.416398 2.585871 -0.334887
v 0.577676 2.585871 -0.304030
v 0.416398 3.823533 -0.334887
v 0.577676 3.823533 -0.304030
v 0.478891 3.823533 -0.661525
v 0.640170 3.823533 -0.630669
v 0.478891 2.585871 -0.661525
v 0.640170 2.585871 -0.630669
vt 0.375000 0.000000
vt 0.625000 0.000000
vt 0.625000 0.250000
vt 0.375000 0.250000
vt 0.625000 0.500000
vt 0.375000 0.500000
vt 0.625000 0.750000
vt 0.375000 0.750000
vt 0.625000 1.000000
vt 0.375000 1.000000
vt 0.875000 0.000000
vt 0.875000 0.250000
vt 0.125000 0.000000
vt 0.125000 0.250000
vn -0.187915 0.000000 0.982185
vn -0.187915 0.000000 0.982185
vn -0.187915 0.000000 0.982185
vn -0.187915 0.000000 0.982185
vn 0.000000 1.000000 0.000001
vn 0.000000 1.000000 0.000001
vn 0.000000 1.000000 0.000001
vn 0.000000 1.000000 0.000001
vn 0.187915 0.000000 -0.982185
vn 0.187915 0.000000 -0.982185
vn 0.187915 0.000000 -0.982185
vn 0.187915 0.000000 -0.982185
vn 0.000000 -1.000000 0.000000
vn 0.000000 -1.000000 0.000000
vn 0.000000 -1.000000 0.000000
vn 0.000000 -1.000000 0.000000
vn 0.982185 0.000000 0.187915
vn 0.982185 0.000000 0.187915
vn 0.982185 0.000000 0.187915
vn 0.982185 0.000000 0.187915
vn -0.982185 0.000000 -0.187915
vn -0.982185 0.000000 -0.187915
vn -0.982185 0.000000 -0.187915
vn -0.982185 0.000000 -0.187915
s off
g polySurface5 polySurface13
usemtl lambert4SG
f 101/187/231 102/188/232 104/189/233 103/190/234
f 103/190/235 104/189/236 106/191/237 105/192/238
f 105/192/239 106/191/240 108/193/241 107/194/242
f 107/194/243 108/193/244 102/195/245 101/196/246
f 102/188/247 108/197/248 106/198/249 104/189/250
f 107/199/251 101/187/252 103/190/253 105/200/254
