# This file uses centimeters as units for non-parametric coordinates.

mtllib Ascen_RuneV1_0.mtl
g default
v 0.033472 4.768828 -0.043979
v 0.263648 4.768828 0.096753
v -0.158495 6.229457 0.269995
v 0.071682 6.229457 0.410727
v 0.134288 6.370873 -0.208871
v 0.364465 6.370873 -0.068140
v 0.326255 4.910244 -0.522845
v 0.556431 4.910244 -0.382114
v -0.190499 6.472968 0.322340
v 0.024811 6.586088 0.487388
v 0.317594 6.727504 0.008521
v 0.102284 6.614384 -0.156527
v -0.750482 5.911198 -0.185937
v -0.457699 6.052614 -0.664803
v -0.686001 6.197579 -0.061941
v -0.393218 6.338995 -0.540807
v -1.010944 6.560973 -0.153376
v -0.717970 6.690600 -0.635452
v -0.865162 6.650520 -0.037721
v -0.572379 6.791936 -0.516588
v 0.359334 4.658555 -0.576948
v 0.603857 4.549389 -0.459682
v 0.311074 4.407973 0.019184
v 0.066551 4.517139 -0.098082
v -0.372664 5.259578 -0.847007
v -0.665447 5.118162 -0.368141
v -0.271691 5.007888 -0.859599
v -0.564474 4.866472 -0.380732
v -0.535317 4.652205 -1.125820
v -0.828100 4.510789 -0.646954
v -0.371340 4.510115 -1.067525
v -0.664123 4.368699 -0.588658
vt 0.375000 0.000000
vt 0.625000 0.000000
vt 0.375000 0.250000
vt 0.625000 0.250000
vt 0.375000 0.500000
vt 0.625000 0.500000
vt 0.375000 0.750000
vt 0.625000 0.750000
vt 0.375000 1.000000
vt 0.625000 1.000000
vt 0.875000 0.000000
vt 0.875000 0.250000
vt 0.125000 0.000000
vt 0.125000 0.250000
vt 0.375000 0.250000
vt 0.625000 0.250000
vt 0.625000 0.500000
vt 0.375000 0.500000
vt 0.375000 0.500000
vt 0.375000 0.250000
vt 0.375000 0.250000
vt 0.375000 0.500000
vt 0.375000 0.500000
vt 0.375000 0.250000
vt 0.375000 0.250000
vt 0.375000 0.500000
vt 0.375000 0.750000
vt 0.625000 0.750000
vt 0.625000 1.000000
vt 0.375000 1.000000
vt 0.375000 1.000000
vt 0.375000 0.750000
vt 0.375000 0.750000
vt 0.375000 1.000000
vt 0.375000 1.000000
vt 0.375000 0.750000
vt 0.375000 0.750000
vt 0.375000 1.000000
vn -0.505827 -0.244317 0.827314
vn -0.505827 -0.244317 0.827314
vn -0.505827 -0.244317 0.827314
vn -0.505827 -0.244317 0.827314
vn -0.465521 0.884729 -0.023351
vn -0.455585 0.890054 -0.015703
vn -0.455585 0.890054 -0.015703
vn -0.465521 0.884729 -0.023351
vn 0.505827 0.244317 -0.827314
vn 0.505827 0.244317 -0.827314
vn 0.505827 0.244317 -0.827314
vn 0.505827 0.244317 -0.827314
vn -0.264136 -0.869123 -0.418159
vn -0.210936 -0.894909 -0.393247
vn -0.210936 -0.894909 -0.393247
vn -0.264136 -0.869123 -0.418159
vn 0.853169 -0.000000 0.521635
vn 0.853169 -0.000000 0.521635
vn 0.853169 -0.000000 0.521635
vn 0.853169 -0.000000 0.521635
vn -0.853169 0.000000 -0.521635
vn -0.853169 0.000000 -0.521635
vn -0.853169 0.000000 -0.521635
vn -0.853169 0.000000 -0.521635
vn -0.505827 -0.244317 0.827314
vn -0.505827 -0.244317 0.827314
vn 0.853169 -0.000000 0.521635
vn 0.853169 -0.000000 0.521635
vn 0.505827 0.244317 -0.827314
vn 0.505827 0.244317 -0.827314
vn -0.508127 0.858629 -0.067552
vn -0.508127 0.858629 -0.067552
vn -0.508127 0.858629 -0.067552
vn -0.508127 0.858629 -0.067552
vn 0.461350 -0.886990 0.020133
vn 0.461350 -0.886990 0.020133
vn -0.165925 -0.914902 -0.368000
vn -0.165924 -0.914902 -0.367999
vn -0.505901 -0.244320 0.827268
vn -0.505894 -0.244319 0.827272
vn -0.469759 0.882393 -0.026632
vn -0.469759 0.882393 -0.026632
vn 0.505759 0.244315 -0.827356
vn 0.505753 0.244315 -0.827360
vn -0.779291 -0.288375 -0.556368
vn -0.779291 -0.288375 -0.556368
vn -0.506001 -0.244323 0.827206
vn -0.506001 -0.244323 0.827206
vn 0.505654 0.244312 -0.827421
vn 0.505654 0.244312 -0.827421
vn 0.505827 0.244317 -0.827314
vn 0.505827 0.244317 -0.827314
vn 0.853169 -0.000000 0.521635
vn 0.853169 -0.000000 0.521635
vn -0.505827 -0.244317 0.827314
vn -0.505827 -0.244317 0.827314
vn -0.459834 -0.735070 -0.498223
vn -0.459834 -0.735070 -0.498223
vn -0.459834 -0.735070 -0.498223
vn -0.459834 -0.735070 -0.498223
vn 0.248022 0.877369 0.410742
vn 0.248022 0.877369 0.410742
vn -0.333205 0.939957 0.073858
vn -0.333205 0.939957 0.073858
vn 0.505827 0.244317 -0.827314
vn 0.505827 0.244317 -0.827314
vn -0.283929 -0.858463 -0.427113
vn -0.283929 -0.858463 -0.427113
vn -0.505827 -0.244317 0.827314
vn -0.505827 -0.244317 0.827314
vn -0.829589 0.400682 -0.388891
vn -0.829589 0.400682 -0.388891
vn 0.505827 0.244317 -0.827314
vn 0.505827 0.244317 -0.827314
vn -0.505827 -0.244317 0.827314
vn -0.505827 -0.244317 0.827314
vn 0.843293 -0.342002 0.414598
vn 0.843293 -0.342002 0.414598
vn 0.843293 -0.342002 0.414598
vn 0.843293 -0.342002 0.414598
vn 0.780501 0.278807 0.559540
vn 0.780501 0.278807 0.559540
vn 0.780501 0.278807 0.559540
vn 0.780501 0.278807 0.559540
s 1
g pCube2
usemtl lambert2SG
f 1/1/1 2/2/2 4/4/3 3/3/4
s 2
f 9/15/5 10/16/6 11/17/7 12/18/8
s 3
f 5/5/9 6/6/10 8/8/11 7/7/12
s 4
f 21/27/13 22/28/14 23/29/15 24/30/16
s 5
f 2/2/17 8/11/18 6/12/19 4/4/20
s off
f 7/13/21 1/1/22 3/3/23 5/14/24
s 1
f 3/3/4 4/4/3 10/16/25 9/15/26
s 5
f 4/4/20 6/6/19 11/17/27 10/16/28
s 3
f 6/6/10 5/5/9 12/18/29 11/17/30
s off
f 18/23/31 17/24/32 19/25/33 20/26/34
s 6
f 5/5/35 3/3/36 13/20/37 14/19/38
s 1
f 3/3/4 9/15/26 15/21/39 13/20/40
s 2
f 9/15/5 12/18/8 16/22/41 15/21/42
s 3
f 12/18/29 5/5/9 14/19/43 16/22/44
s 6
f 14/19/38 13/20/37 17/24/45 18/23/46
s 1
f 13/20/40 15/21/39 19/25/47 17/24/48
s 3
f 16/22/44 14/19/43 18/23/49 20/26/50
f 7/7/12 8/8/11 22/28/51 21/27/52
s 5
f 8/8/18 2/10/17 23/29/53 22/28/54
s 1
f 2/10/2 1/9/1 24/30/55 23/29/56
s off
f 30/35/57 29/36/58 31/37/59 32/38/60
s 7
f 1/9/61 7/7/62 25/32/63 26/31/64
s 3
f 7/7/12 21/27/52 27/33/65 25/32/66
s 4
f 21/27/13 24/30/16 28/34/67 27/33/68
s 1
f 24/30/55 1/9/1 26/31/69 28/34/70
s 7
f 26/31/64 25/32/63 29/36/71 30/35/72
s 3
f 25/32/66 27/33/65 31/37/73 29/36/74
s 1
f 28/34/70 26/31/69 30/35/75 32/38/76
s off
f 28/34/77 32/38/78 31/37/79 27/33/80
f 16/22/81 20/26/82 19/25/83 15/21/84
g default
v 0.639674 3.096644 -0.830410
v -1.234574 3.357034 -1.153847
v -0.648533 3.351118 -1.323063
v -0.657465 4.157972 -0.195555
v -0.537949 3.360511 -0.267302
v -1.356939 4.731882 -0.957657
v -1.033254 6.069089 -1.084397
v -0.478127 3.502875 -0.018931
v -1.073036 6.930839 0.053917
v -0.365169 6.021437 -0.773536
v -0.488356 5.994191 -0.572055
v -0.703483 6.659847 -0.613645
v -0.403894 6.287575 -0.480740
v -0.697491 7.028008 -0.328725
v -0.689996 6.662293 -0.635833
v -0.359570 4.447155 -1.044169
v -0.529219 4.589273 -1.093189
v -0.663685 4.559533 -0.873261
v -0.509622 4.413968 -0.798750
v 0.827682 5.360450 1.250988
v -0.551452 6.751593 -0.508209
v 1.018742 5.719698 -0.130092
v 1.005232 4.884960 1.373397
v -0.375241 4.923914 -0.647629
v -0.458654 5.181759 -0.663759
v 0.319744 7.349212 -0.201810
v 0.101634 6.484207 0.921220
v -0.061830 7.161048 0.468911
v 0.850369 5.565481 1.328668
v 0.431224 4.610232 -0.651924
v -0.220941 4.958042 -0.899997
v 0.231409 4.566038 -0.325113
v 0.215891 4.823883 -0.299733
v -0.315315 5.213463 -0.898199
v 0.408935 4.866580 -0.615469
v -0.279657 4.730104 -0.969985
v 0.279585 6.354238 -0.403907
v 0.125836 6.320232 -0.152442
v -0.402262 4.947948 -0.988599
v -0.508496 6.761094 -0.578466
v 0.356013 6.320232 -0.011710
v 0.446067 4.823883 -0.159001
v 0.110823 6.569698 -0.127886
v 0.520238 6.356555 -0.280312
v 0.649087 4.868786 -0.491053
v -0.282108 6.314511 -0.679930
v 0.258020 6.602255 -0.368637
v 0.528930 4.568680 -0.612819
v 0.515751 4.464694 -0.272973
v 0.427959 4.473254 -0.217488
v 0.457361 4.636228 -0.177472
v 0.334025 6.685585 0.024253
v 0.488778 6.719813 -0.228856
v 0.680919 4.501225 -0.543117
v 0.371623 6.659626 -0.303742
vt 1.088104 0.176208
vt 0.838531 0.236174
vt 0.338104 0.176208
vt 0.990379 0.373416
vt 1.060377 0.273290
vt 0.482966 0.369419
vt 0.641560 0.542266
vt 1.060569 0.317452
vt 0.746989 0.721565
vt 0.375000 0.352675
vt 0.375000 0.250000
vt 0.375000 0.250000
vt 0.375000 0.250000
vt 0.645757 0.737918
vt 0.375000 0.261264
vt 0.375000 0.874934
vt 0.375000 0.887924
vt 0.375000 1.000000
vt 0.375000 1.000000
vt 0.121143 0.297630
vt 0.132156 0.661896
vt 0.132156 0.338104
vt 0.375000 0.250000
vt 0.246143 0.629891
vt 0.165468 0.583303
vt 0.375000 1.000000
vt 0.375000 1.000000
vt 0.713104 0.823792
vt 1.132156 0.661896
vt 1.088104 0.823792
vt 0.838104 0.823792
vt 0.121143 0.702370
vt 0.338104 0.823792
vt 0.463104 0.823792
vt 0.088104 0.823792
vt 0.375000 0.833456
vt 0.375000 0.871392
vt 0.375000 1.000000
vt 1.121143 0.702370
vt 0.375000 1.000000
vt 0.375000 0.880529
vt 0.375000 0.839100
vt 0.375000 0.870197
vt 0.214100 0.000000
vt 0.246852 0.250000
vt 0.375000 0.250000
vt 0.375000 0.000000
vt 0.375000 0.880040
vt 0.375000 0.285803
vt 0.375000 0.378148
vt 0.625000 0.250000
vt 0.625000 0.000000
vt 0.375000 0.250000
vt 0.761880 0.250000
vt 0.794215 0.000000
vt 0.375000 0.351508
vt 0.375000 0.372687
vt 0.088104 0.176208
vt 0.392247 0.377370
vt 0.397097 0.416613
vt 0.240588 0.401048
vt 0.217911 0.400371
vt 0.172870 0.426812
vt 0.174034 0.432163
vt 0.183810 0.460097
vt 0.625000 0.250000
vt 0.625000 0.378985
vt 0.625000 0.386880
vt 0.625000 1.000000
vt 0.582412 1.000000
vt 0.625000 1.000000
vt 0.625000 0.830785
vt 0.625000 0.822797
vt 0.625000 0.960463
vt 0.432809 0.404197
vt 0.424214 0.351026
vt 0.381886 0.335978
vt 0.402295 0.718781
vt 0.420940 0.703000
vt 0.508495 0.625619
vt 0.471147 0.827960
vt 0.496181 0.377198
vt 0.503780 0.574710
vt 0.398485 0.665405
vt 0.263797 0.439905
vt 0.434729 0.451018
vt 0.587129 0.689808
vt 0.616582 0.666347
vt 0.193288 0.403924
vt 0.226232 0.459503
vt 0.359577 0.684469
vt 0.392135 0.739398
vn 0.453277 -0.298474 -0.839913
vn -0.822935 -0.507047 0.256284
vn -0.391859 0.022431 -0.919752
vn -0.908095 -0.154809 0.389098
vn -0.666735 0.087948 -0.740088
vn -0.726485 -0.609457 0.317461
vn -0.840623 0.151365 0.520040
vn 0.059259 0.236156 -0.969907
vn -0.043662 0.204396 -0.977914
vn -0.183872 0.168497 -0.968401
vn -0.183872 0.168497 -0.968401
vn 0.092756 0.174654 -0.980251
vn -0.266513 -0.382610 0.884636
vn 0.798606 0.291303 0.526660
vn 0.798606 0.291303 0.526660
vn 0.798606 0.291303 0.526660
vn 0.798606 0.291303 0.526660
vn 0.518271 0.114616 -0.847501
vn 0.518265 0.114616 -0.847505
vn 0.518371 0.114619 -0.847439
vn 0.518371 0.114619 -0.847439
vn 0.216780 0.408763 -0.886521
vn 0.434110 -0.888241 0.150255
vn 0.434110 -0.888241 0.150255
vn 0.434110 -0.888241 0.150255
vn 0.434110 -0.888241 0.150255
vn 0.511121 0.753047 0.414337
vn 0.511121 0.753047 0.414337
vn 0.511121 0.753047 0.414337
vn 0.511121 0.753047 0.414337
vn -0.611550 -0.116929 0.782518
vn -0.081331 -0.305859 0.948597
vn 0.991602 0.025742 -0.126736
vn 0.818141 -0.542938 0.189380
vn 0.813505 -0.538263 0.220185
vn 0.518197 0.114613 -0.847547
vn 0.518197 0.114614 -0.847547
vn 0.518197 0.114614 -0.847547
vn 0.518197 0.114613 -0.847547
vn 0.512019 0.456945 -0.727350
vn 0.203888 0.467770 0.860012
vn 0.633905 0.502104 0.588266
vn 0.454342 0.870534 0.189063
vn 0.661598 0.263485 -0.702042
vn 0.830508 0.336727 -0.443701
vn 0.830508 0.336727 -0.443701
vn 0.830508 0.336727 -0.443701
vn 0.830508 0.336728 -0.443701
vn 0.471833 0.305129 -0.827206
vn 0.320633 0.892671 0.316753
vn 0.343826 0.879458 0.329147
vn 0.343826 0.879458 0.329147
vn 0.322816 0.891467 0.317925
vn 0.518197 0.114613 -0.847547
vn 0.518197 0.114613 -0.847547
vn -0.309238 -0.898826 -0.310619
vn -0.309238 -0.898826 -0.310619
vn -0.309238 -0.898826 -0.310619
vn -0.309238 -0.898826 -0.310619
vn -0.819431 0.350366 -0.453627
vn -0.819431 0.350366 -0.453627
vn -0.819431 0.350366 -0.453627
vn -0.819431 0.350366 -0.453627
vn -0.819431 0.350366 -0.453627
vn 0.853169 -0.000000 0.521635
vn 0.853169 -0.000000 0.521635
vn 0.853169 -0.000000 0.521635
vn 0.853169 -0.000000 0.521635
vn 0.801633 -0.410481 0.434615
vn 0.801633 -0.410481 0.434615
vn 0.801633 -0.410481 0.434615
vn 0.801633 -0.410481 0.434615
vn 0.801633 -0.410481 0.434615
vn -0.399462 0.908682 -0.121353
vn -0.399462 0.908682 -0.121353
vn -0.399462 0.908682 -0.121353
vn -0.399462 0.908682 -0.121353
vn 0.518197 0.114613 -0.847547
vn 0.518197 0.114613 -0.847547
vn 0.518197 0.114613 -0.847547
vn 0.518197 0.114613 -0.847547
vn -0.853169 0.000000 -0.521635
vn -0.853169 -0.000000 -0.521635
vn -0.853169 -0.000000 -0.521635
vn -0.853169 0.000000 -0.521635
vn 0.408192 -0.903973 0.127329
vn 0.403106 -0.906735 0.123846
vn 0.403408 -0.906572 0.124052
vn 0.408192 -0.903973 0.127329
vn 0.425753 0.163577 -0.889931
vn 0.425753 0.163577 -0.889931
vn 0.490865 -0.290256 0.821464
vn 0.518198 0.114614 -0.847547
vn -0.853169 0.000000 -0.521635
vn -0.853169 0.000000 -0.521635
vn 0.518197 0.114613 -0.847547
vn 0.518197 0.114613 -0.847547
vn -0.853169 -0.000000 -0.521635
vn -0.853169 -0.000000 -0.521635
vn -0.853169 -0.000000 -0.521635
vn -0.799954 -0.285626 -0.527723
vn -0.799954 -0.285626 -0.527723
vn -0.799954 -0.285626 -0.527723
vn -0.799954 -0.285626 -0.527723
vn 0.273376 0.916795 0.291122
vn 0.273376 0.916795 0.291122
vn 0.273376 0.916795 0.291122
vn 0.273376 0.916795 0.291122
vn 0.393484 -0.911821 0.117275
vn 0.393484 -0.911821 0.117275
vn 0.393484 -0.911821 0.117275
vn 0.335781 0.278713 -0.899761
vn 0.335781 0.278712 -0.899761
vn 0.335781 0.278712 -0.899761
vn 0.335781 0.278713 -0.899761
vn 0.335781 0.278713 -0.899761
vn 0.335781 0.278713 -0.899761
vn 0.335781 0.278713 -0.899761
vn 0.335781 0.278712 -0.899761
s 1
g pPlatonic2
usemtl initialShadingGroup
f 33/39/85 34/40/86 35/41/87
f 36/42/88 38/44/89 35/41/87 34/40/86 37/43/90
f 37/43/90 34/40/86 33/39/85
f 35/41/87 38/44/89 41/47/91 39/45/92 71/113/93 49/114/94 48/115/95 68/97/96 33/96/85
f 40/46/97 37/43/90 33/39/85
f 41/47/91 38/44/89 36/42/88
s off
f 43/49/98 42/48/99 47/53/100 44/50/101
s 2
f 45/51/102 43/49/103 44/50/104 53/61/105
s 1
f 46/52/106 39/45/92 41/47/91
s off
f 44/50/107 47/53/108 72/87/109 53/61/110
f 48/54/111 49/55/112 50/56/113 51/57/114
s 1
f 52/59/115 41/60/91 40/58/97 55/63/116
f 54/62/117 55/63/116 40/58/97 83/103/118 81/101/119 33/96/85
s 2
f 56/64/120 51/57/121 50/56/122 57/65/123
s 1
f 58/66/124 46/52/106 41/47/91
f 41/47/91 36/42/88 37/43/90 40/46/97
f 59/68/125 41/47/91 52/67/115 61/77/126
f 60/69/127 58/66/124 41/47/91 59/68/125
f 61/70/126 55/63/116 54/62/117 59/73/125
f 58/72/124 60/71/127 54/62/117 33/96/85 80/100/128 86/127/129 77/128/130 76/129/131 85/130/132 87/116/133
f 54/62/117 60/71/127 59/73/125
s 5
f 62/74/134 63/75/135 56/64/136 64/76/137
s 1
f 55/63/116 61/70/126 52/59/115
s 2
f 64/76/138 56/64/120 57/65/123 65/78/139
s off
f 66/79/140 67/80/141 65/78/142 57/65/143
f 56/64/144 63/75/145 68/81/146 48/54/147 51/57/148
f 67/82/149 69/83/150 70/84/151 65/85/152
f 57/65/153 50/56/154 49/55/155 71/86/156 66/79/157
f 69/88/158 42/48/159 43/49/160 70/84/161
s 2
f 65/85/139 70/84/162 73/89/163 74/90/164
f 70/84/162 43/49/103 45/51/102 75/91/165
s 7
f 76/92/166 77/93/167 74/90/168 73/89/169
s 8
f 78/94/170 79/95/171 75/91/172 45/51/173
s 1
f 33/96/85 68/97/96 63/98/174 62/99/175 80/100/128
f 33/96/85 81/101/119 82/102/176 83/103/118 40/58/97
s 2
f 70/84/162 75/91/165 84/104/177 73/89/163
s 7
f 85/105/178 76/106/166 73/89/169 84/104/179
s 2
f 83/107/180 82/108/181 64/76/138 65/78/139 74/109/164
s 7
f 77/110/167 86/111/182 81/112/183 83/107/184 74/109/168
s off
f 72/87/185 78/94/186 45/51/187 53/61/188
s 5
f 86/111/189 80/119/190 62/74/134 64/76/137 82/108/191 81/112/192
s 8
f 75/91/172 79/95/171 87/120/193 85/105/194 84/104/195
s 1
f 47/126/196 42/121/197 69/122/198 67/123/199 66/124/200 71/113/93 39/45/92 46/52/106 58/72/124 87/116/133 79/117/201 78/118/202 72/125/203
