# Blender v2.80 (sub 75) OBJ File: 'tree1.blend'
# www.blender.org
mtllib tree1.mtl
o Cube
v -0.000000 2.161521 -0.389824
v -0.000000 16.214052 -0.088622
v 0.207365 2.161521 -0.337597
v 0.044311 16.214052 -0.076749
v 0.359167 2.161521 -0.194912
v 0.076749 16.214052 -0.044311
v 0.414731 2.161521 0.000000
v 0.088622 16.214052 0.000000
v 0.359167 2.161521 0.194912
v 0.076749 16.214052 0.044311
v 0.207365 2.161521 0.337597
v 0.044311 16.214052 0.076749
v 0.000000 2.161521 0.389824
v 0.000000 16.214052 0.088622
v -0.207365 2.161521 0.337597
v -0.044311 16.214052 0.076749
v -0.359167 2.161521 0.194912
v -0.076749 16.214052 0.044311
v -0.414731 2.161521 0.000000
v -0.088622 16.214052 0.000000
v -0.359168 2.161521 -0.194912
v -0.076749 16.214052 -0.044311
v -0.207366 2.161521 -0.337597
v -0.044311 16.214052 -0.076749
v 0.000000 8.486311 -3.285733
v 1.642867 8.486311 -2.845528
v 2.845528 8.486311 -1.642867
v 3.285733 8.486311 -0.000000
v 2.845528 8.486311 1.642866
v 1.642867 8.486311 2.845528
v 0.000001 8.486311 3.285733
v -1.642866 8.486311 2.845529
v -2.845528 8.486311 1.642867
v -3.285733 8.486311 0.000001
v -2.845529 8.486311 -1.642865
v -1.642869 8.486311 -2.845527
v 0.207365 4.629602 -0.337597
v 0.359167 4.629602 -0.194912
v 0.414731 4.629602 0.000000
v 0.359167 4.629602 0.194912
v 0.207365 4.629602 0.337597
v 0.000000 4.629602 0.389824
v -0.207365 4.629602 0.337597
v -0.359167 4.629602 0.194912
v -0.414731 4.629602 0.000000
v -0.359168 4.629602 -0.194912
v -0.207366 4.629602 -0.337597
v -0.000000 4.629602 -0.389824
v 0.000000 12.350181 -2.550897
v 1.275448 12.350181 -2.209141
v 2.209141 12.350181 -1.275449
v 2.550897 12.350181 -0.000000
v 2.209141 12.350181 1.275448
v 1.275448 12.350181 2.209141
v 0.000000 12.350181 2.550897
v -1.275448 12.350181 2.209141
v -2.209141 12.350181 1.275449
v -2.550897 12.350181 0.000001
v -2.209142 12.350181 -1.275447
v -1.275450 12.350181 -2.209141
v 0.000000 6.554378 -3.268821
v 1.634410 6.554378 -2.830881
v 2.830881 6.554378 -1.634410
v 3.268820 6.554378 -0.000000
v 2.830881 6.554378 1.634410
v 1.634410 6.554378 2.830881
v 0.000001 6.554378 3.268820
v -1.634409 6.554378 2.830881
v -2.830881 6.554378 1.634411
v -3.268820 6.554378 0.000001
v -2.830882 6.554378 -1.634409
v -1.634412 6.554378 -2.830880
v 0.207365 6.389891 -0.337597
v 0.359167 6.389891 -0.194912
v 0.414731 6.389891 0.000000
v 0.359167 6.389891 0.194912
v 0.207365 6.389891 0.337597
v 0.000000 6.389891 0.389824
v -0.207365 6.389891 0.337597
v -0.359167 6.389891 0.194912
v -0.414731 6.389891 0.000000
v -0.359168 6.389891 -0.194912
v -0.207366 6.389891 -0.337597
v -0.000000 6.389891 -0.389824
v 0.000000 8.464061 -1.025502
v 0.512751 8.464061 -0.888111
v 0.888111 8.464061 -0.512751
v 1.025502 8.464061 0.000000
v 0.888111 8.464061 0.512751
v 0.512751 8.464061 0.888111
v 0.000000 8.464061 1.025502
v -0.512751 8.464061 0.888111
v -0.888110 8.464061 0.512751
v -1.025502 8.464061 0.000000
v -0.888111 8.464061 -0.512750
v -0.512752 8.464061 -0.888110
v 1.466641 10.418248 -2.540297
v 2.540297 10.418248 -1.466641
v 2.933282 10.418248 -0.000000
v 2.540297 10.418248 1.466641
v 1.466641 10.418248 2.540297
v 0.000000 10.418248 2.933282
v -1.466640 10.418248 2.540297
v -2.540296 10.418248 1.466642
v -2.933282 10.418248 0.000001
v -2.540298 10.418248 -1.466640
v -1.466643 10.418248 -2.540296
v 0.000000 10.418248 -2.933282
v 0.000000 14.282115 -2.233961
v 1.116980 14.282115 -1.934667
v 1.934667 14.282115 -1.116981
v 2.233961 14.282115 -0.000000
v 1.934667 14.282115 1.116980
v 1.116981 14.282115 1.934667
v 0.000000 14.282115 2.233961
v -1.116980 14.282115 1.934667
v -1.934666 14.282115 1.116981
v -2.233961 14.282115 0.000001
v -1.934667 14.282115 -1.116979
v -1.116982 14.282115 -1.934666
v 0.535355 10.338230 -0.927263
v 0.927263 10.338230 -0.535355
v 1.070711 10.338230 0.000000
v 0.927263 10.338230 0.535356
v 0.535356 10.338230 0.927263
v 0.000000 10.338230 1.070711
v -0.535355 10.338230 0.927263
v -0.927263 10.338230 0.535356
v -1.070711 10.338230 0.000000
v -0.927263 10.338230 -0.535355
v -0.535356 10.338230 -0.927263
v 0.000000 10.338230 -1.070711
v 0.000000 12.253586 -1.064061
v 0.532031 12.253586 -0.921504
v 0.921504 12.253586 -0.532031
v 1.064061 12.253586 0.000000
v 0.921504 12.253586 0.532031
v 0.532031 12.253586 0.921504
v 0.000000 12.253586 1.064061
v -0.532030 12.253586 0.921504
v -0.921504 12.253586 0.532031
v -1.064061 12.253586 0.000000
v -0.921504 12.253586 -0.532030
v -0.532031 12.253586 -0.921504
v 0.549749 14.158174 -0.952193
v 0.952193 14.158174 -0.549749
v 1.099498 14.158174 0.000000
v 0.952193 14.158174 0.549749
v 0.549749 14.158174 0.952193
v 0.000000 14.158174 1.099498
v -0.549749 14.158174 0.952193
v -0.952193 14.158174 0.549749
v -1.099498 14.158174 0.000000
v -0.952193 14.158174 -0.549748
v -0.549750 14.158174 -0.952193
v 0.000000 14.158174 -1.099498
vt 1.000000 0.937500
vt 1.000000 1.000000
vt 0.916667 1.000000
vt 0.916667 0.937500
vt 0.833333 1.000000
vt 0.833333 0.937500
vt 0.750000 1.000000
vt 0.750000 0.937500
vt 0.666667 1.000000
vt 0.666667 0.937500
vt 0.583333 1.000000
vt 0.583333 0.937500
vt 0.500000 1.000000
vt 0.500000 0.937500
vt 0.416667 1.000000
vt 0.416667 0.937500
vt 0.333333 1.000000
vt 0.333333 0.937500
vt 0.250000 1.000000
vt 0.250000 0.937500
vt 0.166667 1.000000
vt 0.166667 0.937500
vt 0.370000 0.457846
vt 0.250000 0.490000
vt 0.130000 0.457846
vt 0.042154 0.370000
vt 0.010000 0.250000
vt 0.042154 0.130000
vt 0.130000 0.042154
vt 0.250000 0.010000
vt 0.370000 0.042154
vt 0.457846 0.130000
vt 0.490000 0.250000
vt 0.457846 0.370000
vt 0.083333 1.000000
vt 0.083333 0.937500
vt 0.000000 1.000000
vt 0.000000 0.937500
vt 0.750000 0.490000
vt 0.870000 0.457846
vt 0.957846 0.370000
vt 0.990000 0.250000
vt 0.957846 0.130000
vt 0.870000 0.042154
vt 0.750000 0.010000
vt 0.630000 0.042154
vt 0.542154 0.130000
vt 0.510000 0.250000
vt 0.542154 0.370000
vt 0.630000 0.457846
vt 0.083333 0.749280
vt 0.083333 0.750000
vt 0.000000 0.750000
vt 0.000000 0.749280
vt 0.166667 0.749280
vt 0.166667 0.750000
vt 0.250000 0.749280
vt 0.250000 0.750000
vt 0.333333 0.749280
vt 0.333333 0.750000
vt 0.416667 0.749280
vt 0.416667 0.750000
vt 0.500000 0.749280
vt 0.500000 0.750000
vt 0.583333 0.749280
vt 0.583333 0.750000
vt 0.666667 0.749280
vt 0.666667 0.750000
vt 0.750000 0.749280
vt 0.750000 0.750000
vt 0.833333 0.749280
vt 0.833333 0.750000
vt 0.916667 0.749280
vt 0.916667 0.750000
vt 1.000000 0.749280
vt 1.000000 0.750000
vt 1.000000 0.500000
vt 1.000000 0.625000
vt 0.916667 0.625000
vt 0.916667 0.500000
vt 0.833333 0.625000
vt 0.833333 0.500000
vt 0.750000 0.625000
vt 0.750000 0.500000
vt 0.666667 0.625000
vt 0.666667 0.500000
vt 0.583333 0.625000
vt 0.583333 0.500000
vt 0.500000 0.625000
vt 0.500000 0.500000
vt 0.416667 0.625000
vt 0.416667 0.500000
vt 0.333333 0.625000
vt 0.333333 0.500000
vt 0.250000 0.625000
vt 0.250000 0.500000
vt 0.166667 0.625000
vt 0.166667 0.500000
vt 0.083333 0.625000
vt 0.083333 0.500000
vt 0.000000 0.625000
vt 0.000000 0.500000
vt 0.083333 0.871875
vt 0.083333 0.875000
vt 0.000000 0.875000
vt 0.000000 0.871875
vt 0.166667 0.871875
vt 0.166667 0.875000
vt 0.250000 0.871875
vt 0.250000 0.875000
vt 0.333333 0.871875
vt 0.333333 0.875000
vt 0.416667 0.871875
vt 0.416667 0.875000
vt 0.500000 0.871875
vt 0.500000 0.875000
vt 0.583333 0.871875
vt 0.583333 0.875000
vt 0.666667 0.871875
vt 0.666667 0.875000
vt 0.750000 0.871875
vt 0.750000 0.875000
vt 0.833333 0.871875
vt 0.833333 0.875000
vt 0.916667 0.871875
vt 0.916667 0.875000
vt 1.000000 0.871875
vt 1.000000 0.875000
vt 1.000000 0.681376
vt 1.000000 0.687500
vt 0.916667 0.687500
vt 0.916667 0.681376
vt 0.833333 0.687500
vt 0.833333 0.681376
vt 0.750000 0.687500
vt 0.750000 0.681376
vt 0.666667 0.687500
vt 0.666667 0.681376
vt 0.583333 0.687500
vt 0.583333 0.681376
vt 0.500000 0.687500
vt 0.500000 0.681376
vt 0.416667 0.687500
vt 0.416667 0.681376
vt 0.333333 0.687500
vt 0.333333 0.681376
vt 0.250000 0.687500
vt 0.250000 0.681376
vt 0.166667 0.687500
vt 0.166667 0.681376
vt 0.083333 0.687500
vt 0.083333 0.681376
vt 0.000000 0.687500
vt 0.000000 0.681376
vt 1.000000 0.809911
vt 1.000000 0.812500
vt 0.916667 0.812500
vt 0.916667 0.809911
vt 0.833333 0.812500
vt 0.833333 0.809911
vt 0.750000 0.812500
vt 0.750000 0.809911
vt 0.666667 0.812500
vt 0.666667 0.809911
vt 0.583333 0.812500
vt 0.583333 0.809911
vt 0.500000 0.812500
vt 0.500000 0.809911
vt 0.416667 0.812500
vt 0.416667 0.809911
vt 0.333333 0.812500
vt 0.333333 0.809911
vt 0.250000 0.812500
vt 0.250000 0.809911
vt 0.166667 0.812500
vt 0.166667 0.809911
vt 0.083333 0.812500
vt 0.083333 0.809911
vt 0.000000 0.812500
vt 0.000000 0.809911
vt 0.083333 0.933490
vt 0.000000 0.933490
vt 0.166667 0.933490
vt 0.250000 0.933490
vt 0.333333 0.933490
vt 0.416667 0.933490
vt 0.500000 0.933490
vt 0.583333 0.933490
vt 0.666667 0.933490
vt 0.750000 0.933490
vt 0.833333 0.933490
vt 0.916667 0.933490
vt 1.000000 0.933490
vn 0.1765 0.7314 -0.6587
vn 0.4822 0.7314 -0.4822
vn 0.6587 0.7314 -0.1765
vn 0.6587 0.7314 0.1765
vn 0.4822 0.7314 0.4822
vn 0.1765 0.7314 0.6587
vn -0.1765 0.7314 0.6587
vn -0.4822 0.7314 0.4822
vn -0.6587 0.7314 0.1765
vn -0.6587 0.7314 -0.1765
vn 0.0000 1.0000 0.0000
vn -0.4822 0.7314 -0.4822
vn -0.1765 0.7314 -0.6587
vn 0.0000 -1.0000 0.0000
vn -0.0026 -0.9999 -0.0098
vn -0.0072 -0.9999 -0.0072
vn -0.0098 -0.9999 -0.0026
vn -0.0098 -0.9999 0.0026
vn -0.0072 -0.9999 0.0072
vn -0.0026 -0.9999 0.0098
vn 0.0026 -0.9999 0.0098
vn 0.0072 -0.9999 0.0072
vn 0.0098 -0.9999 0.0026
vn 0.0098 -0.9999 -0.0026
vn 0.0072 -0.9999 -0.0072
vn 0.0026 -0.9999 -0.0098
vn 0.2442 0.0000 -0.9697
vn 0.6849 0.0000 -0.7286
vn 0.9617 0.0000 -0.2741
vn 0.9617 0.0000 0.2741
vn 0.6849 0.0000 0.7286
vn 0.2442 0.0000 0.9697
vn -0.2442 0.0000 0.9697
vn -0.6849 0.0000 0.7286
vn -0.9617 0.0000 0.2741
vn -0.9617 0.0000 -0.2741
vn -0.6849 0.0000 -0.7286
vn -0.2442 0.0000 -0.9697
vn -0.0174 -0.9977 -0.0648
vn -0.0475 -0.9977 -0.0475
vn -0.0648 -0.9977 -0.0174
vn -0.0648 -0.9977 0.0174
vn -0.0475 -0.9977 0.0475
vn -0.0174 -0.9977 0.0648
vn 0.0174 -0.9977 0.0648
vn 0.0475 -0.9977 0.0475
vn 0.0648 -0.9977 0.0174
vn 0.0648 -0.9977 -0.0174
vn 0.0475 -0.9977 -0.0475
vn 0.0174 -0.9977 -0.0648
vn 0.0152 -0.9983 -0.0571
vn 0.0418 -0.9982 -0.0421
vn 0.0575 -0.9982 -0.0155
vn 0.0575 -0.9982 0.0155
vn 0.0418 -0.9982 0.0421
vn 0.0152 -0.9983 0.0571
vn -0.0152 -0.9983 0.0571
vn -0.0418 -0.9982 0.0421
vn -0.0575 -0.9982 0.0155
vn -0.0575 -0.9982 -0.0155
vn -0.0418 -0.9982 -0.0421
vn -0.0152 -0.9983 -0.0571
vn 0.1711 0.7502 -0.6387
vn 0.4675 0.7502 -0.4675
vn 0.6387 0.7502 -0.1711
vn 0.6387 0.7502 0.1711
vn 0.4675 0.7502 0.4675
vn 0.1711 0.7502 0.6387
vn -0.1711 0.7502 0.6387
vn -0.4675 0.7502 0.4675
vn -0.6387 0.7502 0.1711
vn -0.6387 0.7502 -0.1711
vn -0.4675 0.7502 -0.4675
vn -0.1711 0.7502 -0.6387
vn 0.0115 -0.9990 -0.0429
vn 0.0314 -0.9990 -0.0314
vn 0.0429 -0.9990 -0.0115
vn 0.0429 -0.9990 0.0115
vn 0.0314 -0.9990 0.0314
vn 0.0115 -0.9990 0.0429
vn -0.0115 -0.9990 0.0429
vn -0.0314 -0.9990 0.0314
vn -0.0429 -0.9990 0.0115
vn -0.0429 -0.9990 -0.0115
vn -0.0314 -0.9990 -0.0314
vn -0.0115 -0.9990 -0.0429
vn -0.0291 -0.9937 -0.1086
vn -0.0795 -0.9937 -0.0795
vn -0.1086 -0.9937 -0.0291
vn -0.1086 -0.9937 0.0291
vn -0.0795 -0.9937 0.0795
vn -0.0291 -0.9937 0.1086
vn 0.0291 -0.9937 0.1086
vn 0.0795 -0.9937 0.0795
vn 0.1086 -0.9937 0.0291
vn 0.1086 -0.9937 -0.0291
vn 0.0795 -0.9937 -0.0795
vn 0.0291 -0.9937 -0.1086
vn -0.1694 0.7561 -0.6322
vn -0.4628 0.7561 -0.4628
vn -0.6322 0.7561 -0.1694
vn -0.6322 0.7561 0.1694
vn -0.4628 0.7561 0.4628
vn -0.1694 0.7561 0.6322
vn 0.1694 0.7561 0.6322
vn 0.4628 0.7561 0.4628
vn 0.6322 0.7561 0.1694
vn 0.6322 0.7561 -0.1694
vn 0.4628 0.7561 -0.4628
vn 0.1694 0.7561 -0.6322
vn 0.1845 0.7013 -0.6886
vn 0.5041 0.7013 -0.5041
vn 0.6886 0.7013 -0.1845
vn 0.6886 0.7013 0.1845
vn 0.5041 0.7013 0.5041
vn 0.1845 0.7013 0.6886
vn -0.1845 0.7013 0.6886
vn -0.5041 0.7013 0.5041
vn -0.6886 0.7013 0.1845
vn -0.6886 0.7013 -0.1845
vn -0.5041 0.7013 -0.5041
vn -0.1845 0.7013 -0.6886
vn 0.2045 0.6128 -0.7633
vn 0.5588 0.6128 -0.5588
vn 0.7633 0.6128 -0.2045
vn 0.7633 0.6128 0.2045
vn 0.5588 0.6128 0.5588
vn 0.2045 0.6128 0.7633
vn -0.2045 0.6128 0.7633
vn -0.5588 0.6128 0.5588
vn -0.7633 0.6128 0.2045
vn -0.7633 0.6128 -0.2045
vn -0.5588 0.6128 -0.5588
vn -0.2045 0.6128 -0.7633
usemtl Material
s off
f 109/1/1 2/2/1 4/3/1 110/4/1
f 110/4/2 4/3/2 6/5/2 111/6/2
f 111/6/3 6/5/3 8/7/3 112/8/3
f 112/8/4 8/7/4 10/9/4 113/10/4
f 113/10/5 10/9/5 12/11/5 114/12/5
f 114/12/6 12/11/6 14/13/6 115/14/6
f 115/14/7 14/13/7 16/15/7 116/16/7
f 116/16/8 16/15/8 18/17/8 117/18/8
f 117/18/9 18/17/9 20/19/9 118/20/9
f 118/20/10 20/19/10 22/21/10 119/22/10
f 4/23/11 2/24/11 24/25/11 22/26/11 20/27/11 18/28/11 16/29/11 14/30/11 12/31/11 10/32/11 8/33/11 6/34/11
f 119/22/12 22/21/12 24/35/12 120/36/12
f 120/36/13 24/35/13 2/37/13 109/38/13
f 1/39/14 3/40/14 5/41/14 7/42/14 9/43/14 11/44/14 13/45/14 15/46/14 17/47/14 19/48/14 21/49/14 23/50/14
f 96/51/15 36/52/15 25/53/15 85/54/15
f 95/55/16 35/56/16 36/52/16 96/51/16
f 94/57/17 34/58/17 35/56/17 95/55/17
f 93/59/18 33/60/18 34/58/18 94/57/18
f 92/61/19 32/62/19 33/60/19 93/59/19
f 91/63/20 31/64/20 32/62/20 92/61/20
f 90/65/21 30/66/21 31/64/21 91/63/21
f 89/67/22 29/68/22 30/66/22 90/65/22
f 88/69/23 28/70/23 29/68/23 89/67/23
f 87/71/24 27/72/24 28/70/24 88/69/24
f 86/73/25 26/74/25 27/72/25 87/71/25
f 85/75/26 25/76/26 26/74/26 86/73/26
f 1/77/27 48/78/27 37/79/27 3/80/27
f 3/80/28 37/79/28 38/81/28 5/82/28
f 5/82/29 38/81/29 39/83/29 7/84/29
f 7/84/30 39/83/30 40/85/30 9/86/30
f 9/86/31 40/85/31 41/87/31 11/88/31
f 11/88/32 41/87/32 42/89/32 13/90/32
f 13/90/33 42/89/33 43/91/33 15/92/33
f 15/92/34 43/91/34 44/93/34 17/94/34
f 17/94/35 44/93/35 45/95/35 19/96/35
f 19/96/36 45/95/36 46/97/36 21/98/36
f 21/98/37 46/97/37 47/99/37 23/100/37
f 23/100/38 47/99/38 48/101/38 1/102/38
f 144/103/39 60/104/39 49/105/39 133/106/39
f 143/107/40 59/108/40 60/104/40 144/103/40
f 142/109/41 58/110/41 59/108/41 143/107/41
f 141/111/42 57/112/42 58/110/42 142/109/42
f 140/113/43 56/114/43 57/112/43 141/111/43
f 139/115/44 55/116/44 56/114/44 140/113/44
f 138/117/45 54/118/45 55/116/45 139/115/45
f 137/119/46 53/120/46 54/118/46 138/117/46
f 136/121/47 52/122/47 53/120/47 137/119/47
f 135/123/48 51/124/48 52/122/48 136/121/48
f 134/125/49 50/126/49 51/124/49 135/123/49
f 133/127/50 49/128/50 50/126/50 134/125/50
f 84/129/51 61/130/51 62/131/51 73/132/51
f 73/132/52 62/131/52 63/133/52 74/134/52
f 74/134/53 63/133/53 64/135/53 75/136/53
f 75/136/54 64/135/54 65/137/54 76/138/54
f 76/138/55 65/137/55 66/139/55 77/140/55
f 77/140/56 66/139/56 67/141/56 78/142/56
f 78/142/57 67/141/57 68/143/57 79/144/57
f 79/144/58 68/143/58 69/145/58 80/146/58
f 80/146/59 69/145/59 70/147/59 81/148/59
f 81/148/60 70/147/60 71/149/60 82/150/60
f 82/150/61 71/149/61 72/151/61 83/152/61
f 83/152/62 72/151/62 61/153/62 84/154/62
f 47/99/38 83/152/38 84/154/38 48/101/38
f 46/97/37 82/150/37 83/152/37 47/99/37
f 45/95/36 81/148/36 82/150/36 46/97/36
f 44/93/35 80/146/35 81/148/35 45/95/35
f 43/91/34 79/144/34 80/146/34 44/93/34
f 42/89/33 78/142/33 79/144/33 43/91/33
f 41/87/32 77/140/32 78/142/32 42/89/32
f 40/85/31 76/138/31 77/140/31 41/87/31
f 39/83/30 75/136/30 76/138/30 40/85/30
f 38/81/29 74/134/29 75/136/29 39/83/29
f 37/79/28 73/132/28 74/134/28 38/81/28
f 48/78/27 84/129/27 73/132/27 37/79/27
f 61/130/63 85/75/63 86/73/63 62/131/63
f 62/131/64 86/73/64 87/71/64 63/133/64
f 63/133/65 87/71/65 88/69/65 64/135/65
f 64/135/66 88/69/66 89/67/66 65/137/66
f 65/137/67 89/67/67 90/65/67 66/139/67
f 66/139/68 90/65/68 91/63/68 67/141/68
f 67/141/69 91/63/69 92/61/69 68/143/69
f 68/143/70 92/61/70 93/59/70 69/145/70
f 69/145/71 93/59/71 94/57/71 70/147/71
f 70/147/72 94/57/72 95/55/72 71/149/72
f 71/149/73 95/55/73 96/51/73 72/151/73
f 72/151/74 96/51/74 85/54/74 61/153/74
f 132/155/75 108/156/75 97/157/75 121/158/75
f 121/158/76 97/157/76 98/159/76 122/160/76
f 122/160/77 98/159/77 99/161/77 123/162/77
f 123/162/78 99/161/78 100/163/78 124/164/78
f 124/164/79 100/163/79 101/165/79 125/166/79
f 125/166/80 101/165/80 102/167/80 126/168/80
f 126/168/81 102/167/81 103/169/81 127/170/81
f 127/170/82 103/169/82 104/171/82 128/172/82
f 128/172/83 104/171/83 105/173/83 129/174/83
f 129/174/84 105/173/84 106/175/84 130/176/84
f 130/176/85 106/175/85 107/177/85 131/178/85
f 131/178/86 107/177/86 108/179/86 132/180/86
f 155/181/87 120/36/87 109/38/87 156/182/87
f 154/183/88 119/22/88 120/36/88 155/181/88
f 153/184/89 118/20/89 119/22/89 154/183/89
f 152/185/90 117/18/90 118/20/90 153/184/90
f 151/186/91 116/16/91 117/18/91 152/185/91
f 150/187/92 115/14/92 116/16/92 151/186/92
f 149/188/93 114/12/93 115/14/93 150/187/93
f 148/189/94 113/10/94 114/12/94 149/188/94
f 147/190/95 112/8/95 113/10/95 148/189/95
f 146/191/96 111/6/96 112/8/96 147/190/96
f 145/192/97 110/4/97 111/6/97 146/191/97
f 156/193/98 109/1/98 110/4/98 145/192/98
f 36/52/99 131/178/99 132/180/99 25/53/99
f 35/56/100 130/176/100 131/178/100 36/52/100
f 34/58/101 129/174/101 130/176/101 35/56/101
f 33/60/102 128/172/102 129/174/102 34/58/102
f 32/62/103 127/170/103 128/172/103 33/60/103
f 31/64/104 126/168/104 127/170/104 32/62/104
f 30/66/105 125/166/105 126/168/105 31/64/105
f 29/68/106 124/164/106 125/166/106 30/66/106
f 28/70/107 123/162/107 124/164/107 29/68/107
f 27/72/108 122/160/108 123/162/108 28/70/108
f 26/74/109 121/158/109 122/160/109 27/72/109
f 25/76/110 132/155/110 121/158/110 26/74/110
f 108/156/111 133/127/111 134/125/111 97/157/111
f 97/157/112 134/125/112 135/123/112 98/159/112
f 98/159/113 135/123/113 136/121/113 99/161/113
f 99/161/114 136/121/114 137/119/114 100/163/114
f 100/163/115 137/119/115 138/117/115 101/165/115
f 101/165/116 138/117/116 139/115/116 102/167/116
f 102/167/117 139/115/117 140/113/117 103/169/117
f 103/169/118 140/113/118 141/111/118 104/171/118
f 104/171/119 141/111/119 142/109/119 105/173/119
f 105/173/120 142/109/120 143/107/120 106/175/120
f 106/175/121 143/107/121 144/103/121 107/177/121
f 107/177/122 144/103/122 133/106/122 108/179/122
f 49/128/123 156/193/123 145/192/123 50/126/123
f 50/126/124 145/192/124 146/191/124 51/124/124
f 51/124/125 146/191/125 147/190/125 52/122/125
f 52/122/126 147/190/126 148/189/126 53/120/126
f 53/120/127 148/189/127 149/188/127 54/118/127
f 54/118/128 149/188/128 150/187/128 55/116/128
f 55/116/129 150/187/129 151/186/129 56/114/129
f 56/114/130 151/186/130 152/185/130 57/112/130
f 57/112/131 152/185/131 153/184/131 58/110/131
f 58/110/132 153/184/132 154/183/132 59/108/132
f 59/108/133 154/183/133 155/181/133 60/104/133
f 60/104/134 155/181/134 156/182/134 49/105/134
