# Blender v2.80 (sub 75) OBJ File: 'tree3.blend'
# www.blender.org
mtllib tree3.mtl
o Sphere_Sphere.001
v 0.000000 3.229106 -0.500000
v 0.000000 1.863081 -0.866025
v -0.000000 3.363081 -0.000000
v 0.353553 3.229106 -0.353553
v 0.612372 2.863081 -0.612373
v 0.707107 2.363081 -0.707107
v 0.612372 1.863081 -0.612372
v 0.189159 1.424072 -0.189159
v 0.500000 3.229106 -0.000000
v 0.866025 2.863081 -0.000000
v 1.000000 2.363081 -0.000000
v 0.866025 1.863081 -0.000000
v 0.267511 1.424072 -0.000000
v 0.353553 3.229106 0.353553
v 0.612372 2.863081 0.612372
v 0.707107 2.363081 0.707106
v 0.612372 1.863081 0.612372
v 0.189159 1.424072 0.189159
v -0.000000 3.229106 0.500000
v 0.000000 2.863081 0.866025
v 0.000000 2.363081 1.000000
v 0.000000 1.863081 0.866025
v -0.000000 1.424072 0.267511
v -0.353553 3.229106 0.353553
v -0.612372 2.863081 0.612372
v -0.707107 2.363081 0.707106
v -0.612372 1.863081 0.612372
v -0.189159 1.424072 0.189159
v -0.500000 3.229106 -0.000000
v -0.866025 2.863081 -0.000000
v -1.000000 2.363081 -0.000000
v -0.866025 1.863081 -0.000000
v -0.267511 1.424072 -0.000000
v -0.353553 3.229106 -0.353553
v -0.612372 2.863081 -0.612372
v -0.707107 2.363081 -0.707107
v -0.612372 1.863081 -0.612372
v -0.189159 1.424072 -0.189159
v -0.000000 2.863081 -0.866025
v 0.000000 2.363081 -1.000000
v 0.000000 1.424072 -0.267511
v 0.353553 1.497055 -0.353553
v 0.500000 1.497055 -0.000000
v 0.353553 1.497055 0.353553
v -0.000000 1.497055 0.500000
v -0.353553 1.497055 0.353553
v -0.500000 1.497055 -0.000000
v -0.353553 1.497055 -0.353553
v -0.000000 1.497055 -0.500000
v 0.086358 1.385238 -0.086358
v 0.122129 1.385238 -0.000000
v 0.086358 1.385238 0.086358
v -0.000000 1.385238 0.122128
v -0.086358 1.385238 0.086358
v -0.122129 1.385238 -0.000000
v -0.086358 1.385238 -0.086358
v 0.000000 1.385238 -0.122129
v 0.061254 1.378781 -0.061254
v 0.086627 1.378781 -0.000000
v 0.061254 1.378781 0.061254
v -0.000000 1.378781 0.086626
v -0.061254 1.378781 0.061254
v -0.086627 1.378781 -0.000000
v -0.061254 1.378781 -0.061254
v -0.000000 1.378781 -0.086627
v 0.061254 0.086949 0.061254
v 0.000000 0.077192 -0.000000
v 0.000000 0.086949 -0.086627
v 0.061254 0.086949 -0.061255
v 0.086627 0.086949 -0.000000
v 0.000000 0.086949 0.086626
v -0.061254 0.086949 0.061254
v -0.086626 0.086949 -0.000000
v -0.061254 0.086949 -0.061255
vt 0.750000 0.166667
vt 0.750000 0.333333
vt 0.625000 0.333333
vt 0.625000 0.166667
vt 0.750000 0.500000
vt 0.750000 0.666667
vt 0.625000 0.666667
vt 0.625000 0.500000
vt 0.750000 0.833333
vt 0.687500 1.000000
vt 0.625000 0.833333
vt 0.679248 0.021380
vt 0.445974 0.021380
vt 0.445974 0.021380
vt 0.679248 0.021380
vt 0.500000 0.666667
vt 0.500000 0.500000
vt 0.562500 1.000000
vt 0.500000 0.833333
vt 0.320974 0.021380
vt 0.195974 0.021380
vt 0.195974 0.021380
vt 0.320974 0.021380
vt 0.500000 0.333333
vt 0.500000 0.166667
vt 0.437500 1.000000
vt 0.375000 0.833333
vt 0.070752 0.021380
vt 0.054248 0.021380
vt 0.054248 0.021380
vt 0.070752 0.021380
vt 0.375000 0.500000
vt 0.375000 0.333333
vt 0.375000 0.666667
vt 0.375000 0.166667
vt 0.820974 0.021380
vt 0.695752 0.021380
vt 0.695752 0.021380
vt 0.820974 0.021380
vt 0.250000 0.500000
vt 0.250000 0.333333
vt 0.250000 0.833333
vt 0.250000 0.666667
vt 0.250000 0.166667
vt 0.312500 1.000000
vt 0.125000 0.500000
vt 0.125000 0.333333
vt 0.125000 0.833333
vt 0.125000 0.666667
vt 0.125000 0.166667
vt 0.187500 1.000000
vt 0.000000 0.500000
vt 0.000000 0.333333
vt 0.000000 0.833333
vt 0.000000 0.666667
vt 0.000000 0.166667
vt 0.062500 1.000000
vt 1.000000 0.333333
vt 1.000000 0.500000
vt 0.875000 0.500000
vt 0.875000 0.333333
vt 1.000000 0.666667
vt 1.000000 0.833333
vt 0.875000 0.833333
vt 0.875000 0.666667
vt 1.000000 0.166667
vt 0.875000 0.166667
vt 0.937500 1.000000
vt 0.945974 0.021380
vt 0.945974 0.021380
vt 0.812500 1.000000
vt 0.470939 0.088139
vt 0.654061 0.088139
vt 0.345939 0.088139
vt 0.220939 0.088139
vt 0.095939 0.088139
vt 0.029061 0.088139
vt 0.845939 0.088139
vt 0.970939 0.088139
vt 0.720939 0.088139
vt 0.452922 0.039767
vt 0.672234 0.039767
vt 0.327922 0.039767
vt 0.202922 0.039767
vt 0.077766 0.039767
vt 0.047234 0.039767
vt 0.827922 0.039767
vt 0.952922 0.039767
vt 0.702766 0.039767
vt 0.687500 0.000000
vt 0.562500 0.000000
vt 0.437500 0.000000
vt 0.312500 0.000000
vt 0.187500 0.000000
vt 0.062500 0.000000
vt 0.937500 0.000000
vt 0.812500 0.000000
vn 0.2811 -0.6786 -0.6786
vn 0.3715 0.2403 -0.8968
vn 0.1066 0.9604 -0.2573
vn 0.9239 0.0000 -0.3827
vn 0.3715 -0.2403 -0.8968
vn 0.2811 0.6786 -0.6786
vn 0.8968 0.2403 -0.3715
vn 0.2573 0.9604 -0.1066
vn 0.3827 -0.0000 0.9239
vn 0.8968 -0.2403 -0.3715
vn 0.6786 0.6786 -0.2811
vn 0.6786 -0.6786 -0.2811
vn 0.2573 0.9604 0.1066
vn -0.9239 -0.0000 0.3827
vn 0.8968 -0.2403 0.3715
vn 0.6786 0.6786 0.2811
vn 0.6786 -0.6786 0.2811
vn 0.8968 0.2403 0.3715
vn -0.3827 0.0000 -0.9239
vn 0.3715 -0.2403 0.8968
vn 0.2811 0.6786 0.6786
vn 0.2811 -0.6786 0.6786
vn 0.3715 0.2403 0.8968
vn 0.1066 0.9604 0.2573
vn 0.9239 0.0000 0.3827
vn -0.3715 -0.2403 0.8968
vn -0.2811 0.6786 0.6786
vn -0.2811 -0.6786 0.6786
vn -0.3715 0.2403 0.8968
vn -0.1066 0.9604 0.2573
vn -0.3827 -0.0000 0.9239
vn -0.8968 -0.2403 0.3715
vn -0.6786 0.6786 0.2811
vn -0.6786 -0.6786 0.2811
vn -0.8968 0.2403 0.3715
vn -0.2573 0.9604 0.1066
vn -0.8968 -0.2403 -0.3715
vn -0.6786 0.6786 -0.2811
vn -0.6786 -0.6786 -0.2811
vn -0.8968 0.2403 -0.3715
vn -0.2573 0.9604 -0.1066
vn -0.9239 -0.0000 -0.3827
vn -0.2811 0.6786 -0.6786
vn -0.2811 -0.6786 -0.6786
vn -0.3715 0.2403 -0.8968
vn -0.1066 0.9604 -0.2573
vn 0.3827 0.0000 -0.9239
vn -0.3715 -0.2403 -0.8968
vn 0.2972 -0.9468 -0.1231
vn 0.2972 -0.9468 0.1231
vn 0.1231 -0.9468 0.2972
vn -0.1231 -0.9468 0.2972
vn -0.2972 -0.9468 0.1231
vn -0.2972 -0.9468 -0.1231
vn -0.1231 -0.9468 -0.2972
vn 0.1231 -0.9468 -0.2972
vn 0.2566 -0.9607 -0.1063
vn 0.2566 -0.9607 0.1063
vn 0.1063 -0.9607 0.2566
vn -0.1063 -0.9607 0.2566
vn -0.2566 -0.9607 0.1063
vn -0.2566 -0.9607 -0.1063
vn -0.1063 -0.9607 -0.2566
vn 0.1063 -0.9607 -0.2566
vn 0.1785 -0.9812 -0.0739
vn 0.1785 -0.9812 0.0739
vn 0.0739 -0.9812 0.1785
vn -0.0739 -0.9812 0.1785
vn -0.1785 -0.9812 0.0739
vn -0.1785 -0.9812 -0.0739
vn -0.0739 -0.9812 -0.1785
vn 0.0739 -0.9812 -0.1785
vn 0.0463 -0.9926 -0.1118
vn 0.1118 -0.9926 -0.0463
vn 0.1118 -0.9926 0.0463
vn 0.0463 -0.9926 0.1118
vn -0.0463 -0.9926 0.1118
vn -0.1118 -0.9926 0.0463
vn -0.1118 -0.9926 -0.0463
vn -0.0463 -0.9926 -0.1118
usemtl None
s off
f 49/1/1 2/2/1 7/3/1 42/4/1
f 40/5/2 39/6/2 5/7/2 6/8/2
f 1/9/3 3/10/3 4/11/3
f 58/12/4 59/13/4 70/14/4 69/15/4
f 2/2/5 40/5/5 6/8/5 7/3/5
f 39/6/6 1/9/6 4/11/6 5/7/6
f 6/8/7 5/7/7 10/16/7 11/17/7
f 4/11/8 3/18/8 9/19/8
f 60/20/9 61/21/9 71/22/9 66/23/9
f 7/3/10 6/8/10 11/17/10 12/24/10
f 5/7/11 4/11/11 9/19/11 10/16/11
f 42/4/12 7/3/12 12/24/12 43/25/12
f 9/19/13 3/26/13 14/27/13
f 62/28/14 63/29/14 73/30/14 72/31/14
f 12/24/15 11/17/15 16/32/15 17/33/15
f 10/16/16 9/19/16 14/27/16 15/34/16
f 43/25/17 12/24/17 17/33/17 44/35/17
f 11/17/18 10/16/18 15/34/18 16/32/18
f 64/36/19 65/37/19 68/38/19 74/39/19
f 17/33/20 16/32/20 21/40/20 22/41/20
f 15/34/21 14/27/21 19/42/21 20/43/21
f 44/35/22 17/33/22 22/41/22 45/44/22
f 16/32/23 15/34/23 20/43/23 21/40/23
f 14/27/24 3/45/24 19/42/24
f 59/13/25 60/20/25 66/23/25 70/14/25
f 22/41/26 21/40/26 26/46/26 27/47/26
f 20/43/27 19/42/27 24/48/27 25/49/27
f 45/44/28 22/41/28 27/47/28 46/50/28
f 21/40/29 20/43/29 25/49/29 26/46/29
f 19/42/30 3/51/30 24/48/30
f 61/21/31 62/28/31 72/31/31 71/22/31
f 27/47/32 26/46/32 31/52/32 32/53/32
f 25/49/33 24/48/33 29/54/33 30/55/33
f 46/50/34 27/47/34 32/53/34 47/56/34
f 26/46/35 25/49/35 30/55/35 31/52/35
f 24/48/36 3/57/36 29/54/36
f 32/58/37 31/59/37 36/60/37 37/61/37
f 30/62/38 29/63/38 34/64/38 35/65/38
f 47/66/39 32/58/39 37/61/39 48/67/39
f 31/59/40 30/62/40 35/65/40 36/60/40
f 29/63/41 3/68/41 34/64/41
f 63/69/42 64/36/42 74/39/42 73/70/42
f 35/65/43 34/64/43 1/9/43 39/6/43
f 48/67/44 37/61/44 2/2/44 49/1/44
f 36/60/45 35/65/45 39/6/45 40/5/45
f 34/64/46 3/71/46 1/9/46
f 65/37/47 58/12/47 69/15/47 68/38/47
f 37/61/48 36/60/48 40/5/48 2/2/48
f 13/72/49 8/73/49 42/4/49 43/25/49
f 18/74/50 13/72/50 43/25/50 44/35/50
f 23/75/51 18/74/51 44/35/51 45/44/51
f 28/76/52 23/75/52 45/44/52 46/50/52
f 33/77/53 28/76/53 46/50/53 47/56/53
f 38/78/54 33/79/54 47/66/54 48/67/54
f 41/80/55 38/78/55 48/67/55 49/1/55
f 8/73/56 41/80/56 49/1/56 42/4/56
f 51/81/57 50/82/57 8/73/57 13/72/57
f 52/83/58 51/81/58 13/72/58 18/74/58
f 53/84/59 52/83/59 18/74/59 23/75/59
f 54/85/60 53/84/60 23/75/60 28/76/60
f 55/86/61 54/85/61 28/76/61 33/77/61
f 56/87/62 55/88/62 33/79/62 38/78/62
f 57/89/63 56/87/63 38/78/63 41/80/63
f 50/82/64 57/89/64 41/80/64 8/73/64
f 59/13/65 58/12/65 50/82/65 51/81/65
f 60/20/66 59/13/66 51/81/66 52/83/66
f 61/21/67 60/20/67 52/83/67 53/84/67
f 62/28/68 61/21/68 53/84/68 54/85/68
f 63/29/69 62/28/69 54/85/69 55/86/69
f 64/36/70 63/69/70 55/88/70 56/87/70
f 65/37/71 64/36/71 56/87/71 57/89/71
f 58/12/72 65/37/72 57/89/72 50/82/72
f 67/90/73 68/38/73 69/15/73
f 67/91/74 69/15/74 70/14/74
f 67/92/75 70/14/75 66/23/75
f 67/93/76 66/23/76 71/22/76
f 67/94/77 71/22/77 72/31/77
f 67/95/78 72/31/78 73/30/78
f 67/96/79 73/70/79 74/39/79
f 67/97/80 74/39/80 68/38/80
