# Blender v2.80 (sub 75) OBJ File: 'bridgebroken.blend'
# www.blender.org
mtllib bridgebroken.mtl
o Cube
v -0.508115 2.691829 -0.294396
v -0.508115 2.691829 0.294590
v -0.985776 2.691829 -0.304380
v 0.924866 2.691829 -0.304380
v -0.508115 2.691829 -0.304380
v 0.924866 2.691829 0.304536
v -0.508115 2.691829 0.304536
v -0.985776 2.691829 0.304536
v -0.985776 2.730467 -0.304380
v 0.924866 2.730467 0.304536
v -0.508115 2.730467 0.348029
v -0.508115 2.730467 -0.347874
v -0.508115 2.730467 0.304536
v 0.924866 2.730467 -0.304380
v -0.508115 2.730467 -0.304380
v -0.985776 2.730467 0.304536
v 0.924866 2.730467 -0.367398
v -0.985776 2.730467 0.367553
v 0.924866 2.730467 0.367553
v -0.985776 2.730467 -0.367398
v 0.208375 2.691829 -0.294396
v 0.208375 2.691829 0.294590
v 0.208375 2.691829 -0.304380
v 0.208375 2.691829 0.304536
v 0.208375 2.730467 0.348029
v 0.208375 2.730467 -0.347626
v 0.208375 2.730467 -0.304380
v 0.208375 2.730467 0.304536
v 0.566620 2.730467 0.348029
v 0.566620 2.691829 -0.294396
v 0.566620 2.691829 0.294590
v 0.566620 2.691829 -0.304380
v 0.566620 2.691829 0.304536
v 0.566620 2.730467 -0.347874
v 0.566620 2.730467 -0.304380
v 0.566620 2.730467 0.304536
v 0.088960 2.618022 -0.367398
v 0.088960 2.730467 0.367553
v 0.088960 2.691829 -0.304380
v 0.088960 2.691829 0.304536
v 0.088960 2.730467 -0.304380
v 0.088960 2.730467 0.304536
v 0.088960 2.618022 0.367553
v 0.088960 2.730467 -0.367398
v -0.866361 2.730467 0.348029
v -0.866361 2.691829 -0.294396
v -0.866361 2.691829 0.294590
v -0.866361 2.691829 -0.304380
v -0.866361 2.691829 0.304536
v -0.866361 2.730467 -0.347874
v -0.866361 2.730467 -0.304380
v -0.866361 2.730467 0.304536
v -0.448408 2.618022 -0.367398
v -0.448408 2.730467 0.367553
v -0.448408 2.691829 -0.304380
v -0.448408 2.691829 0.304536
v -0.448408 2.730467 -0.304380
v -0.448408 2.730467 0.304536
v -0.448408 2.618022 0.367553
v -0.448408 2.730467 -0.367398
v 0.596474 2.730467 0.348029
v 0.596474 2.691829 -0.294396
v 0.596474 2.691829 0.294590
v 0.596474 2.691829 -0.304380
v 0.596474 2.691829 0.304536
v 0.596474 2.730467 -0.347874
v 0.596474 2.730467 -0.304380
v 0.596474 2.730467 0.304536
v 0.238229 2.730467 0.348029
v 0.238229 2.691829 -0.294396
v 0.238229 2.691829 0.294590
v 0.238229 2.691829 -0.304380
v 0.238229 2.691829 0.304536
v 0.238229 2.730467 -0.347874
v 0.238229 2.730467 -0.304380
v 0.238229 2.730467 0.304536
v -0.478262 2.730467 0.348029
v -0.478262 2.691829 -0.294396
v -0.478262 2.691829 0.294590
v -0.478262 2.691829 -0.304380
v -0.478262 2.691829 0.304536
v -0.478262 2.730467 -0.347874
v -0.478262 2.730467 -0.304380
v -0.478262 2.730467 0.304536
v -0.836507 2.730467 0.348029
v -0.836507 2.691829 -0.294396
v -0.836507 2.691829 0.294590
v -0.836507 2.691829 -0.304380
v -0.836507 2.691829 0.304536
v -0.836507 2.730467 -0.347874
v -0.836507 2.730467 -0.304380
v -0.836507 2.730467 0.304536
v -0.508115 2.845054 -0.302943
v -0.508055 2.844767 0.302642
v -0.478262 2.845212 0.348029
v -0.508115 2.845212 0.348029
v -0.508115 2.845212 0.304536
v -0.508115 2.845212 -0.347874
v -0.508115 2.845212 -0.304380
v 0.238229 2.845212 0.348029
v 0.208375 2.845212 0.348029
v 0.208375 2.845212 -0.347626
v 0.208435 2.842076 -0.304380
v 0.208375 2.845212 0.304536
v 0.208435 2.845017 0.303707
v 0.596474 2.845199 0.348029
v 0.566620 2.845199 0.348029
v 0.566620 2.845212 -0.347874
v 0.566620 2.845212 -0.304380
v 0.566620 2.845212 0.304536
v 0.566681 2.845033 0.303658
v 0.566681 2.844060 -0.302943
v -0.836507 2.845212 0.348029
v -0.866361 2.845212 0.348029
v -0.866361 2.844029 -0.347874
v -0.866301 2.842076 -0.304380
v -0.866361 2.845212 0.304536
v -0.866301 2.844760 0.303161
v -0.866301 2.842195 -0.302943
v 0.596534 2.844060 -0.302943
v 0.596534 2.845033 0.303658
v 0.596474 2.845212 -0.347874
v 0.596474 2.845212 -0.304380
v 0.596474 2.845212 0.304536
v 0.238289 2.845017 0.303707
v 0.238229 2.845212 -0.347874
v 0.238289 2.842076 -0.304380
v 0.238229 2.845212 0.304536
v -0.478262 2.845054 -0.302943
v -0.478202 2.844767 0.302642
v -0.478262 2.845212 -0.347874
v -0.478262 2.845212 -0.304380
v -0.478262 2.845212 0.304536
v -0.836447 2.842195 -0.302943
v -0.836447 2.844760 0.303161
v -0.836507 2.844029 -0.347874
v -0.836447 2.842076 -0.304380
v -0.836507 2.845212 0.304536
v -0.987639 2.844027 -0.347746
v -0.987579 2.842074 -0.304252
v -0.987639 2.845211 0.348157
v -0.987639 2.860973 -0.347449
v -0.987579 2.859020 -0.303955
v -0.987639 2.862157 0.348455
v 0.924829 2.845212 0.348029
v 0.924829 2.844029 -0.347874
v 0.924890 2.842076 -0.304380
v 0.924829 2.862159 0.348327
v 0.924829 2.860975 -0.347576
v 0.924890 2.859022 -0.304082
v -0.987639 2.862157 0.266457
v -0.987639 2.845211 0.266197
v -0.987579 2.842074 -0.265772
v -0.987579 2.859020 -0.265513
v 0.924829 2.862159 0.266345
v 0.924829 2.845212 0.266086
v 0.924890 2.842076 -0.265884
v 0.924890 2.859022 -0.265624
v 1.075598 2.618022 0.367553
v -1.136508 2.627301 -0.304380
v 1.075598 2.627301 0.304536
v 1.075598 2.618022 -0.367398
v 1.075598 2.665938 0.367553
v 1.075598 2.665938 -0.304380
v 1.075598 2.627301 -0.304380
v -1.136508 2.627301 0.304536
v -1.136508 2.618022 0.367553
v -1.136508 2.665938 0.367553
v -1.136508 2.665938 -0.304380
v 1.075598 2.665938 0.304536
v -1.136508 2.665938 0.304536
v 1.075598 2.665938 -0.367398
v -1.136508 2.618022 -0.367398
v -1.136508 2.665938 -0.367398
v 1.012684 2.807582 -0.304380
v -1.075431 2.809533 -0.347746
v -1.075366 2.807580 -0.304252
v -1.075431 2.826479 -0.347449
v -1.075366 2.824526 -0.303955
v 1.012619 2.809535 -0.347874
v 1.012619 2.826481 -0.347576
v 1.012684 2.824528 -0.304082
v 1.049384 2.779990 -0.304380
v 1.049384 2.779990 -0.265884
v -1.112131 2.800071 0.266457
v -1.112131 2.781941 -0.347746
v -1.112063 2.779988 -0.304252
v -1.112131 2.783124 0.348158
v -1.112131 2.798887 -0.347449
v -1.112063 2.796934 -0.303955
v -1.112131 2.800071 0.348455
v 1.049317 2.783126 0.348029
v 1.049317 2.781943 -0.347874
v 1.049317 2.800072 0.348327
v 1.049317 2.798889 -0.347576
v 1.049384 2.796936 -0.304082
v -1.112131 2.783124 0.266197
v -1.112063 2.779988 -0.265773
v -1.112063 2.796934 -0.265513
v 1.049317 2.800072 0.266345
v 1.049317 2.783126 0.266086
v 1.049384 2.796936 -0.265624
v 0.088055 2.862159 0.348327
v 0.088055 2.862159 0.266345
v 0.088055 2.845212 0.348029
v 0.088055 2.845212 0.266085
v 0.088413 2.859022 -0.304082
v 0.088413 2.842076 -0.304380
v 0.088413 2.859022 -0.265624
v 0.088413 2.842076 -0.265884
v 0.088352 2.860975 -0.347576
v 0.088352 2.844029 -0.347874
v -0.447408 2.845212 0.348029
v -0.447408 2.845212 0.266085
v -0.447408 2.862159 0.348327
v -0.447408 2.862159 0.266345
v -0.448621 2.860975 -0.347576
v -0.448621 2.844029 -0.347874
v -0.448561 2.859022 -0.304082
v -0.448561 2.842076 -0.304380
v -0.448561 2.859022 -0.265624
v -0.448561 2.842076 -0.265884
vt 0.859375 0.750000
vt 0.859375 0.750000
vt 0.859375 0.734375
vt 0.859375 0.734375
vt 0.859375 0.515625
vt 0.855469 0.515625
vt 0.855469 0.500000
vt 0.859375 0.500000
vt 0.875000 0.515625
vt 0.875000 0.515625
vt 0.875000 0.734375
vt 0.875000 0.734375
vt 0.855469 0.515625
vt 0.855469 0.515625
vt 0.855469 0.515625
vt 0.855469 0.515625
vt 0.855469 0.515625
vt 0.812500 0.515625
vt 0.812500 0.515625
vt 0.855469 0.515625
vt 0.855469 0.515625
vt 0.714844 0.750000
vt 0.714844 0.734375
vt 0.714844 0.734375
vt 0.714844 0.750000
vt 0.714844 0.515625
vt 0.671875 0.515625
vt 0.671875 0.515625
vt 0.714844 0.515625
vt 0.375000 0.070312
vt 0.375000 0.000000
vt 0.625000 0.000000
vt 0.625000 0.000000
vt 0.625000 0.070312
vt 0.625000 0.734375
vt 0.667969 0.734375
vt 0.667969 0.734375
vt 0.625000 0.734375
vt 0.625000 0.734375
vt 0.625000 0.734375
vt 0.734375 0.515625
vt 0.718750 0.515625
vt 0.718750 0.515625
vt 0.734375 0.515625
vt 0.859375 0.515625
vt 0.859375 0.515625
vt 0.859375 0.500000
vt 0.859375 0.500000
vt 0.859375 0.515625
vt 0.859375 0.515625
vt 0.859375 0.531250
vt 0.855469 0.515625
vt 0.855469 0.515625
vt 0.855469 0.531250
vt 0.855469 0.500000
vt 0.855469 0.500000
vt 0.734375 0.734375
vt 0.625000 0.140625
vt 0.265625 0.500000
vt 0.375000 0.859375
vt 0.734375 0.750000
vt 0.734375 0.734375
vt 0.812500 0.734375
vt 0.855469 0.734375
vt 0.855469 0.734375
vt 0.812500 0.734375
vt 0.859375 0.734375
vt 0.859375 0.750000
vt 0.667969 0.531250
vt 0.667969 0.515625
vt 0.667969 0.515625
vt 0.375000 0.929688
vt 0.625000 0.929688
vt 0.625000 1.000000
vt 0.625000 1.000000
vt 0.375000 1.000000
vt 0.855469 0.515625
vt 0.855469 0.515625
vt 0.859375 0.515625
vt 0.859375 0.515625
vt 0.859375 0.750000
vt 0.859375 0.734375
vt 0.375000 0.750000
vt 0.625000 0.750000
vt 0.625000 0.750000
vt 0.625000 0.859375
vt 0.625000 0.515625
vt 0.625000 0.515625
vt 0.625000 0.515625
vt 0.625000 0.515625
vt 0.667969 0.515625
vt 0.875000 0.734375
vt 0.875000 0.750000
vt 0.875000 0.750000
vt 0.875000 0.734375
vt 0.714844 0.734375
vt 0.671875 0.734375
vt 0.671875 0.734375
vt 0.718750 0.734375
vt 0.718750 0.734375
vt 0.714844 0.531250
vt 0.718750 0.531250
vt 0.718750 0.718750
vt 0.714844 0.718750
vt 0.671875 0.718750
vt 0.667969 0.718750
vt 0.671875 0.531250
vt 0.714844 0.734375
vt 0.808594 0.515625
vt 0.808594 0.515625
vt 0.808594 0.531250
vt 0.808594 0.515625
vt 0.808594 0.515625
vt 0.808594 0.500000
vt 0.808594 0.500000
vt 0.855469 0.734375
vt 0.855469 0.734375
vt 0.855469 0.750000
vt 0.855469 0.749999
vt 0.855469 0.750000
vt 0.855469 0.734375
vt 0.855469 0.750000
vt 0.855469 0.750000
vt 0.855469 0.734375
vt 0.855469 0.734375
vt 0.855469 0.750000
vt 0.667969 0.750000
vt 0.671875 0.750000
vt 0.718750 0.750000
vt 0.804688 0.515625
vt 0.804688 0.515625
vt 0.859375 0.734375
vt 0.859375 0.734375
vt 0.875000 0.515625
vt 0.875000 0.515625
vt 0.625000 0.500000
vt 0.734375 0.500000
vt 0.718750 0.500000
vt 0.714844 0.500000
vt 0.671875 0.500000
vt 0.667969 0.500000
vt 0.855469 0.734375
vt 0.855469 0.750000
vt 0.855469 0.750000
vt 0.855469 0.734375
vt 0.804688 0.500000
vt 0.875000 0.500000
vt 0.812500 0.500000
vt 0.859375 0.750000
vt 0.804688 0.750000
vt 0.804688 0.734375
vt 0.808594 0.734375
vt 0.808594 0.750000
vt 0.812500 0.750000
vt 0.804688 0.734375
vt 0.808594 0.734375
vt 0.812500 0.531250
vt 0.859375 0.718750
vt 0.855469 0.718750
vt 0.812500 0.718750
vt 0.808594 0.718750
vt 0.195312 0.750000
vt 0.125000 0.750000
vt 0.125000 0.500000
vt 0.195312 0.500000
vt 0.812500 0.515625
vt 0.808594 0.734375
vt 0.812500 0.734375
vt 0.812500 0.750000
vt 0.808594 0.750000
vt 0.812500 0.500000
vt 0.812500 0.515625
vt 0.714844 0.500000
vt 0.718750 0.500000
vt 0.718750 0.515625
vt 0.714844 0.515625
vt 0.718750 0.734375
vt 0.718750 0.750000
vt 0.667969 0.500000
vt 0.671875 0.500000
vt 0.671875 0.515625
vt 0.667969 0.515625
vt 0.667969 0.734375
vt 0.671875 0.734375
vt 0.671875 0.750000
vt 0.667969 0.750000
vt 0.718750 0.734375
vt 0.859375 0.515625
vt 0.859375 0.515625
vt 0.859375 0.515625
vt 0.855469 0.515625
vt 0.855469 0.734375
vt 0.855469 0.734375
vt 0.671875 0.734375
vt 0.667969 0.734375
vt 0.859375 0.750000
vt 0.859375 0.734375
vt 0.859375 0.734375
vt 0.671875 0.515625
vt 0.812500 0.734375
vt 0.855469 0.500000
vt 0.855469 0.515625
vt 0.855469 0.515625
vt 0.855469 0.515625
vt 0.855469 0.515625
vt 0.855469 0.500000
vt 0.625000 0.250000
vt 0.625000 0.250000
vt 0.375000 0.250000
vt 0.375000 0.140625
vt 0.808594 0.734375
vt 0.855469 0.734375
vt 0.859375 0.515625
vt 0.859375 0.515625
vt 0.855469 0.515625
vt 0.855469 0.500000
vt 0.855469 0.515625
vt 0.855469 0.515625
vt 0.855469 0.515625
vt 0.855469 0.515625
vt 0.855469 0.500000
vt 0.859375 0.500000
vt 0.625000 0.500000
vt 0.855469 0.750000
vt 0.855469 0.750000
vt 0.855469 0.500000
vt 0.855469 0.500000
vt 0.855469 0.500000
vt 0.859375 0.500000
vt 0.859375 0.500000
vt 0.859375 0.500000
vt 0.859375 0.500000
vt 0.875000 0.500000
vt 0.625000 0.265625
vt 0.625000 0.484375
vt 0.625000 0.484375
vt 0.625000 0.500000
vt 0.375000 0.500000
vt 0.375000 0.250000
vt 0.625000 0.250000
vt 0.625000 0.265625
vt 0.375000 0.500000
vt 0.859375 0.515625
vt 0.859375 0.515625
vt 0.855469 0.500000
vt 0.855469 0.500000
vt 0.265625 0.750000
vn 0.4463 -0.8949 0.0000
vn 0.0000 0.9990 0.0449
vn -0.3936 0.9193 0.0000
vn -0.4437 -0.8897 -0.1074
vn 0.0000 0.0000 1.0000
vn 1.0000 0.0000 0.0000
vn 0.0000 0.0000 -1.0000
vn -1.0000 0.0003 0.0008
vn 1.0000 -0.0003 -0.0008
vn -1.0000 0.0000 0.0000
vn 1.0000 -0.0004 0.0000
vn 0.0000 -1.0000 -0.0000
vn -0.4463 0.8949 0.0000
vn 0.0000 1.0000 0.0000
vn 0.0000 0.0557 0.9984
vn 0.0003 0.9974 0.0721
vn 0.0000 0.0567 0.9984
vn 0.0000 1.0000 0.0003
vn 0.0000 0.0594 -0.9982
vn 0.0016 -0.0153 0.9999
vn 0.0010 0.0153 -0.9999
vn -0.0016 0.0153 -0.9999
vn 0.0000 0.0591 -0.9983
vn -1.0000 0.0004 0.0000
vn 0.0000 0.0663 0.9978
vn -1.0000 0.0001 -0.0008
vn -1.0000 -0.0000 0.0007
vn 1.0000 -0.0001 0.0008
vn -0.0083 0.0000 -1.0000
vn 0.9977 0.0000 0.0683
vn -0.9977 0.0000 -0.0684
vn 0.0000 0.9798 -0.2000
vn -0.9974 0.0000 -0.0724
vn 0.0000 0.9732 -0.2298
vn 0.9974 0.0000 0.0719
vn 0.0000 0.9734 -0.2289
vn 0.9990 0.0000 0.0437
vn -0.9990 0.0000 -0.0437
vn -0.4437 0.8897 0.1075
vn 0.0000 0.9966 -0.0827
vn 0.0000 0.9939 0.1099
vn 0.0000 0.0650 0.9979
vn -0.9991 0.0000 0.0419
vn 0.9991 0.0000 -0.0418
vn 0.3936 0.9193 0.0000
vn 0.4437 0.8897 0.1075
vn 1.0000 0.0000 -0.0007
vn -0.0000 -0.9990 -0.0449
vn -0.0011 -0.0175 0.9998
vn 1.0000 0.0000 -0.0008
vn -0.0010 -0.0153 0.9999
vn -0.0014 0.0153 -0.9999
vn -0.4463 -0.8949 0.0000
vn 0.0000 0.0647 -0.9979
vn 0.6005 -0.7987 -0.0368
vn 0.4437 -0.8897 -0.1074
vn -0.3654 0.9299 0.0423
vn -0.3654 -0.9299 -0.0412
vn 0.3654 0.9299 0.0412
vn 0.3654 -0.9299 -0.0423
vn -1.0000 -0.0000 0.0008
vn 0.0000 0.0526 -0.9986
vn -0.6006 -0.7988 -0.0350
vn -0.6005 0.7987 0.0368
vn 0.6006 0.7988 0.0350
vn 0.0014 -0.0153 0.9999
vn 0.0011 0.0175 -0.9998
vn 0.4463 0.8949 0.0000
usemtl Material
s off
f 141/1/1 188/2/1 197/3/1 152/4/1
f 143/5/2 219/6/2 217/7/2 142/8/2
f 3/9/3 160/10/3 166/11/3 8/12/3
f 175/13/4 183/14/4 184/15/4 157/16/4 147/17/4
f 5/18/5 15/19/5 91/20/5 88/21/5
f 69/22/6 76/23/6 128/24/6 100/25/6
f 72/26/5 32/27/5 35/28/5 75/29/5
f 53/30/7 173/31/7 174/32/7 20/33/7 60/34/7
f 6/35/7 65/36/7 68/37/7 10/38/7 170/39/7 161/40/7
f 39/41/5 23/42/5 27/43/5 41/44/5
f 119/45/8 116/46/8 115/47/8 50/48/8 51/49/8 48/50/8 46/51/8
f 137/52/9 134/53/9 86/54/9 88/21/9 91/20/9 90/55/9 136/56/9
f 40/57/10 39/41/10 41/44/10 44/58/10 37/59/10 43/60/10 38/61/10 42/62/10
f 7/63/7 89/64/7 92/65/7 13/66/7
f 185/67/10 197/3/10 188/2/10 191/68/10
f 62/69/11 64/70/11 120/71/11
f 59/72/5 54/73/5 18/74/5 168/75/5 167/76/5
f 137/52/12 220/77/12 222/78/12 153/79/12 140/80/12 116/46/12
f 185/67/13 191/68/13 144/81/13 151/82/13
f 43/60/5 159/83/5 163/84/5 19/85/5 38/86/5
f 4/87/5 165/88/5 164/89/5 14/90/5 67/91/5 64/70/5
f 171/92/3 168/93/3 18/94/3 16/95/3
f 73/96/7 76/23/7 36/97/7 33/98/7
f 24/99/7 40/57/7 42/62/7 28/100/7
f 32/27/14 72/26/14 70/101/14 21/102/14 23/42/14 39/41/14 40/57/14 24/99/14 22/103/14 71/104/14 73/96/14 33/98/14 31/105/14 63/106/14 65/36/14 6/35/14 4/87/14 64/70/14 62/69/14 30/107/14
f 73/96/11 71/104/11 125/108/11
f 132/109/6 129/110/6 78/111/6 80/112/6 83/113/6 82/114/6 131/115/6
f 206/116/12 156/117/12 145/118/12 205/119/12
f 85/120/6 92/65/6 138/121/6 113/122/6
f 148/123/14 155/124/14 204/125/14 203/126/14
f 38/61/14 19/85/14 10/38/14 68/37/14 61/127/14 29/128/14 36/97/14 76/23/14 69/22/14 25/129/14 28/100/14 42/62/14
f 80/112/5 55/130/5 57/131/5 83/113/5
f 8/12/7 166/11/7 171/92/7 16/95/7 52/132/7 49/133/7
f 9/134/5 169/135/5 160/10/5 3/9/5 48/50/5 51/49/5
f 17/136/14 44/137/14 41/44/14 27/43/14 26/138/14 74/139/14 75/29/14 35/28/14 34/140/14 66/141/14 67/91/14 14/90/14
f 216/142/6 215/143/6 213/144/6 214/145/6
f 82/114/14 83/113/14 57/131/14 60/146/14 20/147/14 9/134/14 51/49/14 50/48/14 90/55/14 91/20/14 15/19/14 12/148/14
f 85/120/14 45/149/14 52/132/14 16/95/14 18/94/14 54/150/14 58/151/14 84/152/14 77/153/14 11/154/14 13/66/14 92/65/14
f 56/155/7 81/156/7 84/152/7 58/151/7
f 55/130/14 80/112/14 78/111/14 1/157/14 5/18/14 88/21/14 86/54/14 46/51/14 48/50/14 3/9/14 8/12/14 49/133/14 47/158/14 87/159/14 89/64/14 7/63/14 2/160/14 79/161/14 81/156/14 56/155/14
f 59/162/12 167/163/12 173/164/12 53/165/12
f 1/157/15 78/111/15 129/110/15 93/166/15
f 133/167/14 97/168/14 96/169/14 95/170/14
f 131/115/14 98/171/14 99/172/14 132/109/14
f 126/173/16 102/174/16 103/175/16 127/176/16
f 128/24/14 104/177/14 101/178/14 100/25/14
f 46/51/17 86/54/17 134/53/17 119/45/17
f 122/179/14 108/180/14 109/181/14 123/182/14
f 124/183/18 110/184/18 107/185/18 106/186/18
f 71/104/19 22/103/19 105/187/19 125/108/19
f 154/188/20 199/189/20 198/190/20 153/79/20 222/78/20 221/191/20
f 155/124/21 200/192/21 201/193/21 156/117/21 206/116/21 204/125/21
f 152/4/22 197/3/22 185/67/22 151/82/22 216/142/22 214/145/22
f 63/106/23 31/105/23 111/194/23 121/195/23
f 34/140/10 35/28/10 109/181/10 108/180/10
f 52/132/10 45/149/10 114/196/10 117/197/10
f 65/36/11 63/106/11 121/195/11
f 36/97/10 29/128/10 107/185/10 110/184/10
f 47/158/24 49/133/24 118/198/24
f 103/175/8 102/174/8 26/138/8 27/43/8 23/42/8 21/102/8
f 61/127/6 68/37/6 124/183/6 106/186/6
f 31/105/24 33/98/24 111/194/24
f 67/91/6 66/141/6 122/179/6 123/182/6
f 21/102/25 70/101/25 127/176/25 103/175/25
f 32/27/24 30/107/24 112/199/24
f 97/168/26 94/200/26 2/160/26 7/63/26 13/66/26 11/154/26 96/169/26
f 212/201/27 208/202/27 210/203/27 209/204/27 207/205/27 211/206/27
f 28/100/10 25/129/10 101/178/10 104/177/10
f 17/207/7 172/208/7 162/209/7 37/210/7 44/58/7
f 22/103/24 24/99/24 105/187/24
f 72/26/9 75/29/9 74/139/9 126/173/9 127/176/9 70/101/9
f 84/152/28 81/156/28 79/161/28 130/211/28 133/167/28 95/170/28 77/153/28
f 89/64/11 87/159/11 135/212/11
f 11/154/5 77/153/5 95/170/5 96/169/5
f 25/129/5 69/22/5 100/25/5 101/178/5
f 29/128/5 61/127/5 106/186/5 107/185/5
f 66/141/7 34/140/7 108/180/7 122/179/7
f 74/139/29 26/138/29 102/174/29 126/173/29
f 82/114/7 12/148/7 98/171/7 131/115/7
f 68/37/30 65/36/30 121/195/30 124/183/30
f 36/97/31 110/184/31 111/194/31 33/98/31
f 121/195/32 111/194/32 110/184/32 124/183/32
f 28/100/33 104/177/33 105/187/33 24/99/33
f 125/108/34 105/187/34 104/177/34 128/24/34
f 76/23/35 73/96/35 125/108/35 128/24/35
f 130/211/36 94/200/36 97/168/36 133/167/36
f 89/64/37 135/212/37 138/121/37 92/65/37
f 49/133/38 52/132/38 117/197/38 118/198/38
f 154/188/39 143/5/39 179/213/39 190/214/39 199/189/39
f 134/53/40 137/52/40 116/46/40 119/45/40
f 129/110/41 132/109/41 99/172/41 93/166/41
f 30/107/42 62/69/42 120/71/42 123/182/42 109/181/42 112/199/42
f 35/28/43 32/27/43 112/199/43 109/181/43
f 67/91/44 123/182/44 120/71/44 64/70/44
f 6/35/45 161/40/45 165/88/45 4/87/45
f 211/206/2 207/205/2 150/215/2 149/216/2
f 158/217/46 202/218/46 196/219/46 182/220/46 150/215/46
f 221/191/47 222/78/47 220/77/47 218/221/47 217/7/47 219/6/47
f 115/47/48 116/46/48 140/80/48 139/222/48
f 208/202/12 147/17/12 157/16/12 210/203/12
f 14/90/45 164/89/45 172/223/45 17/136/45
f 145/118/49 192/224/49 194/225/49 148/123/49 203/126/49 205/119/49
f 183/14/50 193/226/50 195/227/50 196/219/50 202/218/50 184/15/50
f 208/202/48 212/201/48 146/228/48 147/17/48
f 157/16/51 184/15/51 202/218/51 158/217/51 209/204/51 210/203/51
f 176/229/52 186/230/52 189/231/52 178/232/52 142/8/52 217/7/52 218/221/52 136/56/52 90/55/52 50/48/52 115/47/52 139/222/52
f 143/5/14 154/188/14 221/191/14 219/6/14
f 156/117/53 201/193/53 192/224/53 145/118/53
f 87/159/54 47/158/54 118/198/54 117/197/54 138/121/54 135/212/54
f 19/85/45 163/84/45 170/39/45 10/38/45
f 9/134/3 20/147/3 174/233/3 169/135/3
f 166/234/10 160/235/10 169/236/10 174/237/10 173/238/10 167/239/10 168/240/10 171/241/10
f 165/88/6 161/40/6 170/39/6 163/84/6 159/83/6 162/242/6 172/223/6 164/89/6
f 113/122/12 138/121/12 117/197/12 114/196/12 141/1/12 152/4/12 214/145/12 213/144/12
f 176/229/55 177/243/55 187/244/55 186/230/55
f 153/79/56 198/190/56 187/244/56 177/243/56 140/80/56
f 192/224/6 201/193/6 200/192/6 194/225/6
f 143/5/57 142/8/57 178/232/57 179/213/57
f 147/17/58 146/228/58 180/245/58 175/13/58
f 149/216/59 150/215/59 182/220/59 181/246/59
f 139/222/60 140/80/60 177/243/60 176/229/60
f 187/244/61 198/190/61 199/189/61 190/214/61 189/231/61 186/230/61
f 79/161/62 2/160/62 94/200/62 130/211/62
f 175/13/63 180/245/63 193/226/63 183/14/63
f 179/213/64 178/232/64 189/231/64 190/214/64
f 181/246/65 182/220/65 196/219/65 195/227/65
f 150/215/14 207/205/14 209/204/14 158/217/14
f 144/81/66 191/68/66 188/2/66 141/1/66 114/196/66 45/149/66 85/120/66 113/122/66 213/144/66 215/143/66
f 206/116/10 205/119/10 203/126/10 204/125/10
f 93/166/10 99/172/10 98/171/10 12/148/10 15/19/10 5/18/10 1/157/10
f 43/247/12 37/59/12 162/242/12 159/83/12
f 53/165/6 60/34/6 57/131/6 55/130/6 56/155/6 58/151/6 54/150/6 59/72/6
f 216/142/14 151/82/14 144/81/14 215/143/14
f 137/52/48 136/56/48 218/221/48 220/77/48
f 149/216/67 181/246/67 195/227/67 193/226/67 180/245/67 146/228/67 212/201/67 211/206/67
f 148/123/68 194/225/68 200/192/68 155/124/68
