# This file uses centimeters as units for non-parametric coordinates.

mtllib Stran_Rune.mtl
g default
v -0.243647 3.944923 1.617711
v 0.131091 3.944923 1.617711
v -0.243647 6.508702 1.425833
v 0.131091 6.508702 1.425833
v -0.243647 6.434069 0.428622
v 0.131091 6.434069 0.428622
v -0.243647 3.870290 0.620499
v 0.131091 3.870290 0.620499
vt 0.375000 0.000000
vt 0.625000 0.000000
vt 0.375000 0.250000
vt 0.625000 0.250000
vt 0.375000 0.500000
vt 0.625000 0.500000
vt 0.375000 0.750000
vt 0.625000 0.750000
vt 0.375000 1.000000
vt 0.625000 1.000000
vt 0.875000 0.000000
vt 0.875000 0.250000
vt 0.125000 0.000000
vt 0.125000 0.250000
vn 0.000000 0.074633 0.997211
vn 0.000000 0.074633 0.997211
vn 0.000000 0.074633 0.997211
vn 0.000000 0.074633 0.997211
vn 0.000000 0.997211 -0.074633
vn 0.000000 0.997211 -0.074633
vn 0.000000 0.997211 -0.074633
vn 0.000000 0.997211 -0.074633
vn 0.000000 -0.074633 -0.997211
vn 0.000000 -0.074633 -0.997211
vn 0.000000 -0.074633 -0.997211
vn 0.000000 -0.074633 -0.997211
vn 0.000000 -0.997211 0.074633
vn 0.000000 -0.997211 0.074633
vn 0.000000 -0.997211 0.074633
vn 0.000000 -0.997211 0.074633
vn 1.000000 0.000000 0.000000
vn 1.000000 0.000000 0.000000
vn 1.000000 0.000000 0.000000
vn 1.000000 0.000000 0.000000
vn -1.000000 0.000000 0.000000
vn -1.000000 0.000000 0.000000
vn -1.000000 0.000000 0.000000
vn -1.000000 0.000000 0.000000
s off
g pCube3
usemtl initialShadingGroup
f 1/1/1 2/2/2 4/4/3 3/3/4
f 3/3/5 4/4/6 6/6/7 5/5/8
f 5/5/9 6/6/10 8/8/11 7/7/12
f 7/7/13 8/8/14 2/10/15 1/9/16
f 2/2/17 8/11/18 6/12/19 4/4/20
f 7/13/21 1/1/22 3/3/23 5/14/24
g default
v -0.925668 3.014159 -0.899960
v -0.543475 2.252407 -0.774490
v -0.813775 2.283662 -0.591624
v -1.141776 3.014159 -0.602513
v -0.902576 2.071458 -0.280230
v -0.577788 3.012214 -1.135407
v -0.299327 2.281125 -0.927221
v -1.296695 4.981687 -2.293874
v -1.257718 3.012214 -0.199563
v -0.972414 2.100176 -0.000795
v -2.134589 4.981687 -1.140611
v -0.198703 3.012214 -1.258579
v -0.011253 2.253010 -0.948105
v -1.813348 4.982759 -1.317550
v -0.692593 4.982759 -2.602502
v -1.032801 4.986631 -2.497756
v -1.627075 4.986527 -1.595913
v -1.257718 3.012214 0.199031
v -0.924739 2.015075 0.300219
v -2.020559 4.986527 -1.054328
v -2.241438 4.982759 -0.470699
v -0.022449 4.981687 -2.707902
v 0.114959 2.478431 -1.106974
v -0.355852 4.986631 -2.717710
v 0.026904 3.382501 -0.018000
v -2.246980 4.986631 -0.826582
v -0.786378 2.479934 0.571767
v -1.134546 3.012214 0.578117
v -1.391632 6.043031 -1.365074
v -0.882416 6.366663 -1.732023
v 0.271887 2.351503 -0.860413
v 0.221218 4.979891 -2.205712
v -2.131731 4.982759 0.692641
v 0.695394 4.977752 -1.981864
v -2.246980 4.986631 0.355880
v -1.919853 6.043923 -0.304113
v -1.728227 6.354330 -0.901790
v -1.783324 6.415487 -0.559262
v -0.304008 6.366663 -1.919960
v -1.082820 6.426929 -1.523424
v -0.565629 2.451215 1.189946
v -1.116765 3.012214 1.361426
v -1.520403 6.404147 -1.104784
v -1.813348 4.982759 1.317503
v -0.580656 6.415589 -1.787551
v -1.879355 6.092849 -0.000045
v 0.181513 6.129425 -1.825612
v -2.027025 4.986631 1.032829
v -0.310610 2.482470 1.390120
v -0.569569 3.014159 1.591724
v -0.019131 6.426929 -1.869038
v 0.015408 2.632164 1.378736
v -1.919853 6.043923 0.304062
v 1.061162 2.940388 -0.088424
v 0.939996 2.660106 0.320278
v 1.207455 4.975054 -1.637739
v 0.281141 2.632164 1.336648
v 1.116360 3.370718 -0.696309
v -1.333141 4.981687 1.796668
v -1.072920 6.949937 -1.039673
v -0.219898 3.014159 1.770036
v 1.216646 3.005487 0.246320
v -1.320165 6.949938 -0.699370
v -0.665842 6.954712 -1.307716
v -1.608648 4.986631 1.608676
v -1.731917 6.043923 0.882470
v -1.449067 6.631972 -0.229698
v -1.787366 6.092849 0.580750
v 0.199892 3.012214 1.755905
v 0.523608 6.239297 -1.524301
v -0.229165 6.954712 -1.449601
v 1.942315 4.983400 -0.600591
v 1.645390 4.995048 -1.342018
v -0.692593 4.982759 1.868283
v -1.449067 6.631972 0.229451
v -0.999321 7.219906 -0.726410
v -0.666586 7.249713 -0.944660
v 0.128734 6.754143 -1.293673
v -0.363920 7.228438 -1.123674
v -1.103335 7.249713 -0.343527
v 1.933066 5.015150 -1.181790
v -1.180085 7.228438 -0.000318
v 1.254916 4.974561 1.726774
v -1.014948 4.986527 1.864563
v -1.520403 6.092849 1.104694
v -0.013971 6.797618 -1.156396
v -1.374440 6.043923 1.374494
v 1.952433 4.996140 -0.899256
v 0.921495 6.247973 -1.250761
v 2.201092 4.987897 0.435267
v 1.318244 6.077245 -1.039116
v 2.120213 4.983122 0.719014
v -1.307182 6.954712 0.666128
v -1.122275 7.228438 0.364682
v 0.669986 4.981687 1.941440
v 0.239431 6.678007 -0.753780
v -0.378277 4.986527 1.912985
v 2.497787 4.989862 -0.262762
v 1.657065 5.790659 -1.010947
v -1.114014 6.104188 1.500664
v 0.011096 7.043003 -0.002275
v -0.868106 6.043031 1.745390
v -1.037301 6.954712 1.037588
v -0.954503 7.228438 0.693953
v 1.508800 6.081614 -0.723525
v 0.842856 6.796169 -0.539846
v 0.355934 4.986631 1.912886
v -0.323484 6.043031 1.922348
v -0.580656 6.092849 1.787460
v 1.362732 6.248201 -0.415599
v -0.690677 7.249713 0.926502
v -0.656956 6.949937 1.341776
v 1.734547 6.089723 -0.177934
v 1.165207 6.717227 -0.069335
v -0.381494 7.219906 1.175064
v -0.256906 6.627197 1.471760
v -0.243647 6.057270 1.909914
v 0.304167 6.043923 1.919906
v 0.015998 6.926972 1.156114
v 1.152465 6.903180 0.393396
v 2.204205 6.054708 0.372012
v 0.344308 6.926972 1.104115
v 1.396979 6.643860 0.289128
v 0.131091 6.080554 1.888928
v 0.982191 6.217890 1.350957
v 0.559361 6.104188 1.783424
v 2.117174 6.096199 0.601849
v 0.229984 6.631972 1.449353
v 0.019315 3.908259 1.663300
v -0.243647 6.479208 1.398181
v -0.243647 3.908259 1.398181
v 0.131091 3.908259 1.398181
v 0.131091 6.479208 1.398181
v -0.243647 4.984901 1.909521
v 0.131091 4.983296 1.905995
v 0.017863 6.479208 1.544039
v -0.243647 3.908259 1.833642
v 0.131091 3.908259 1.823029
v -0.243647 6.479208 1.585350
v 0.131091 6.479208 1.564083
vt 0.325000 0.052083
vt 0.300000 0.050000
vt 0.350000 0.050000
vt 0.375000 0.052083
vt 0.400000 0.050000
vt 0.275000 0.052083
vt 0.250000 0.050000
vt 0.298535 0.520974
vt 0.425000 0.052083
vt 0.450000 0.050000
vt 0.401514 0.520197
vt 0.225000 0.052083
vt 0.200000 0.050000
vt 0.350000 0.519691
vt 0.250000 0.519691
vt 0.275000 0.515321
vt 0.326660 0.515513
vt 0.475000 0.052083
vt 0.500000 0.050000
vt 0.373389 0.514735
vt 0.450000 0.519691
vt 0.201514 0.520197
vt 0.187500 0.051042
vt 0.225000 0.515321
vt 0.375000 0.000000
vt 0.425000 0.515321
vt 0.325000 0.000000
vt 0.275000 0.000000
vt 0.425000 0.000000
vt 0.225000 0.000000
vt 0.475000 0.000000
vt 0.550000 0.050000
vt 0.525000 0.052083
vt 0.175000 0.000000
vt 0.326758 0.689345
vt 0.275000 0.691754
vt 0.162500 0.025000
vt 0.183789 0.518750
vt 0.500000 0.519691
vt 0.146924 0.523633
vt 0.525000 0.000000
vt 0.475000 0.515321
vt 0.425000 0.691754
vt 0.373242 0.689345
vt 0.401367 0.711842
vt 0.225000 0.691754
vt 0.298633 0.711842
vt 0.600000 0.050000
vt 0.575000 0.052083
vt 0.575000 0.000000
vt 0.125000 0.000000
vt 0.350000 0.709751
vt 0.550000 0.519691
vt 0.250000 0.709751
vt 0.450000 0.709751
vt 0.182227 0.707422
vt 0.525000 0.515321
vt 0.625000 0.000000
vt 0.650000 0.050000
vt 0.625000 0.052083
vt 0.201367 0.711842
vt 0.675000 0.000000
vt 0.700000 0.050000
vt 0.475000 0.691754
vt 0.925000 0.000000
vt 0.937500 0.025000
vt 0.900000 0.050000
vt 0.102441 0.522852
vt 0.725000 0.000000
vt 0.750000 0.050000
vt 0.043750 0.012500
vt 0.598535 0.520974
vt 0.328299 0.784414
vt 0.675000 0.052083
vt 0.915625 0.060156
vt 0.371701 0.784414
vt 0.275000 0.828009
vt 0.575000 0.515321
vt 0.525000 0.691754
vt 0.425000 0.792226
vt 0.500000 0.709751
vt 0.725000 0.052083
vt 0.142969 0.738216
vt 0.225000 0.792226
vt 0.025000 0.000000
vt 0.000000 0.537500
vt 0.975000 0.000000
vt 1.000000 0.537500
vt 0.962500 0.025000
vt 0.058561 0.526888
vt 0.650000 0.519691
vt 0.475000 0.792226
vt 0.350000 0.900000
vt 0.300000 0.900000
vt 0.184375 0.861458
vt 0.250000 0.900000
vt 0.400000 0.900000
vt 0.038542 0.530208
vt 0.450000 0.900000
vt 0.875000 0.000000
vt 0.802393 0.523824
vt 0.626660 0.515513
vt 0.550000 0.709751
vt 0.200000 0.900000
vt 0.575000 0.691754
vt 0.825000 0.000000
vt 0.023112 0.527669
vt 0.102930 0.745313
vt 0.919188 0.517027
vt 0.056185 0.736458
vt 0.898339 0.520033
vt 0.525000 0.792226
vt 0.500000 0.900000
vt 0.748535 0.520974
vt 0.137500 0.950000
vt 0.673389 0.514735
vt 0.162500 0.950000
vt 0.968268 0.524652
vt 0.039583 0.683333
vt 0.598633 0.711842
vt 0.325000 1.000000
vt 0.626758 0.689345
vt 0.375000 1.000000
vt 0.225000 1.000000
vt 0.275000 1.000000
vt 0.575000 0.792226
vt 0.175000 1.000000
vt 0.425000 1.000000
vt 0.550000 0.900000
vt 0.125000 1.000000
vt 0.029036 0.739583
vt 0.043750 0.975000
vt 0.475000 1.000000
vt 0.725000 0.515321
vt 0.673242 0.689345
vt 0.650000 0.709751
vt 0.012500 0.768750
vt 0.525000 1.000000
vt 0.600000 0.900000
vt 0.628299 0.784414
vt 0.965747 0.742822
vt 0.987500 0.768750
vt 0.025000 1.000000
vt 0.575000 1.000000
vt 0.962500 0.950000
vt 0.975000 1.000000
vt 0.625000 1.000000
vt 0.650000 0.900000
vt 0.671701 0.784414
vt 0.679790 0.694583
vt 0.725000 0.691754
vt 0.675000 1.000000
vt 0.700000 0.900000
vt 0.925000 1.000000
vt 0.900000 0.900000
vt 0.920109 0.696013
vt 0.725000 1.000000
vt 0.750000 0.900000
vt 0.919777 0.794126
vt 0.710635 0.703964
vt 0.804688 0.732682
vt 0.825000 1.000000
vt 0.748633 0.711842
vt 0.898823 0.710616
vt 0.725000 0.792226
vt 0.700822 0.305378
vt 0.375000 0.500000
vt 0.375000 0.750000
vt 0.625000 0.750000
vt 0.625000 0.500000
vt 0.682834 0.516569
vt 0.709158 0.518610
vt 0.700744 0.797603
vt 0.677643 0.262601
vt 0.715151 0.264844
vt 0.674628 0.761454
vt 0.713788 0.776150
vt 0.375000 0.858865
vt 0.550430 0.816280
vt 0.625000 0.856212
vt 0.625000 0.458525
vt 0.549462 0.463535
vt 0.375000 0.453208
vt 0.125000 0.000000
vt 0.125000 0.250000
vt 0.171792 0.250000
vt 0.252933 0.208971
vt 0.252835 0.104693
vt 0.233865 0.000000
vt 0.768788 0.000000
vt 0.748046 0.104537
vt 0.752313 0.211235
vt 0.833525 0.250000
vt 0.875000 0.250000
vt 0.875000 0.000000
vn -0.111242 -0.935544 -0.335237
vn -0.756504 -0.451415 -0.473209
vn -0.446582 -0.860697 -0.244469
vn 0.723198 -0.682686 0.104520
vn -0.214891 -0.942640 -0.255444
vn -0.536337 -0.434584 -0.723519
vn -0.374023 -0.559512 -0.739631
vn -0.143131 -0.919312 -0.366577
vn -0.726848 -0.166420 -0.666331
vn -0.833969 -0.176651 -0.522771
vn -0.579914 -0.814597 0.011477
vn -0.878218 -0.454272 -0.149566
vn -0.452896 -0.136773 -0.881010
vn -0.924228 -0.176312 -0.338699
vn -0.647293 -0.117799 -0.753084
vn -0.127086 -0.569772 -0.811917
vn 0.290927 -0.935291 -0.201474
vn -0.779498 -0.172998 -0.602041
vn -0.300088 -0.154163 -0.941372
vn -0.977653 -0.160593 -0.135666
vn -0.151845 -0.134737 -0.979178
vn -0.107459 -0.884986 0.453047
vn -0.904551 -0.419992 0.073452
vn -0.979339 -0.202024 -0.008996
vn 0.628476 -0.403459 -0.665011
vn 0.303054 -0.149080 -0.941240
vn 0.682735 -0.121096 -0.720561
vn -0.977080 -0.191800 0.092345
vn -0.265126 -0.933569 0.241159
vn -0.696608 -0.444358 0.563279
vn 0.883112 -0.450317 -0.131632
vn -0.774767 0.341925 -0.531812
vn -0.650396 0.486427 -0.583416
vn -0.399471 0.518987 -0.755695
vn -0.934216 -0.187334 0.303555
vn -0.257692 0.546626 -0.796740
vn -0.663757 0.418893 -0.619641
vn 0.851973 -0.164493 -0.497076
vn -0.821792 -0.182855 0.539650
vn -0.925435 0.373666 -0.062797
vn -0.859148 0.511276 -0.021472
vn -0.750895 0.396687 -0.528012
vn -0.088258 0.549364 -0.830909
vn -0.912784 0.408406 -0.005421
vn 0.457006 0.538245 -0.708123
vn -0.007697 -0.950692 0.310040
vn -0.721121 -0.441697 0.533749
vn 0.702423 -0.271176 -0.658077
vn -0.910172 -0.196887 0.364448
vn -0.917485 0.380684 0.115326
vn 0.672049 0.361542 -0.646249
vn -0.800840 -0.159923 0.577130
vn 0.137761 -0.935800 0.324499
vn -0.220516 -0.283180 0.933371
vn 0.219090 -0.918433 0.329364
vn -0.117685 -0.252758 0.960346
vn -0.892010 0.414328 0.180694
vn 0.523112 0.535015 -0.663411
vn 0.129802 -0.638665 0.758458
vn 0.353221 -0.511198 -0.783525
vn 0.807288 -0.567082 0.163414
vn 0.865973 -0.494166 0.076755
vn 0.080486 -0.248377 0.965314
vn 0.397571 -0.876715 -0.270755
vn 0.236289 -0.270478 -0.933279
vn -0.408816 -0.095185 0.907640
vn -0.527791 0.647545 -0.549657
vn -0.151075 0.978638 -0.139441
vn -0.147089 0.977129 -0.153568
vn -0.623302 0.724190 -0.295030
vn -0.306714 0.727219 -0.614068
vn -0.308081 -0.094504 0.946654
vn -0.272386 0.961903 -0.023414
vn -0.822834 0.383632 0.419249
vn 0.420113 0.869604 -0.259409
vn -0.784587 0.610847 0.106253
vn -0.367632 0.929791 0.018298
vn 0.337229 0.754530 -0.562994
vn 0.387609 0.615496 -0.686238
vn 0.676477 -0.279617 -0.681317
vn 0.914052 -0.252650 0.317296
vn 0.736724 -0.208097 -0.643377
vn -0.741161 0.400867 0.538503
vn -0.199081 -0.076758 0.976972
vn 0.673477 0.701560 -0.232900
vn -0.784851 0.607089 0.124307
vn -0.174570 -0.111331 0.978331
vn 0.608388 0.701396 -0.371358
vn -0.317980 0.947121 0.043014
vn 0.815687 -0.166683 -0.553960
vn 0.650871 -0.272082 0.708758
vn 0.494657 -0.254015 0.831138
vn 0.415458 0.853375 -0.314876
vn -0.649806 0.382746 0.656702
vn 0.873301 -0.232505 0.428120
vn 0.317038 0.940398 0.123038
vn 0.954535 -0.256671 0.151603
vn 0.472165 0.562961 -0.678333
vn -0.709037 0.605611 0.361251
vn -0.508908 0.393923 0.765400
vn 0.106139 -0.108928 0.988367
vn -0.242197 0.958916 0.147718
vn 0.747339 0.453785 -0.485348
vn -0.347600 0.307577 0.885760
vn 0.827964 0.560781 0.000045
vn -0.563033 0.599011 0.569368
vn -0.128944 0.297767 0.945890
vn 0.635576 0.702186 -0.320902
vn 0.411189 0.886207 -0.213449
vn -0.163377 0.962237 0.217734
vn -0.124260 0.256248 0.958591
vn -0.394153 0.600164 0.696021
vn 0.667882 0.506742 -0.545111
vn 0.286252 0.893286 0.346554
vn 0.379954 0.752189 -0.538374
vn 0.142416 0.650083 0.746398
vn 0.074303 -0.006482 0.997215
vn 0.490180 -0.086249 0.867344
vn 0.096693 0.258064 0.961277
vn 0.535270 0.448948 0.715494
vn 0.345881 0.865821 0.361551
vn 0.237438 0.867836 0.436445
vn 0.557753 0.776342 -0.293606
vn 0.908573 0.410481 -0.077465
vn 0.562463 0.799601 0.210415
vn 0.133832 0.712679 0.688606
vn -0.094543 0.002371 0.995518
vn -0.408835 -0.077598 0.909303
vn 0.536022 0.548383 0.641838
vn 0.613323 0.450627 0.648668
vn 0.574141 -0.102573 0.812306
vn 0.574141 -0.102573 0.812306
vn -0.526431 -0.108393 0.843280
vn -0.526431 -0.108393 0.843280
vn 0.000000 0.000000 1.000000
vn 0.000000 0.000000 1.000000
vn 0.000000 0.000000 1.000000
vn 0.000000 0.000000 1.000000
vn 0.011620 0.638550 0.769493
vn 0.115475 0.633505 0.765073
vn 0.115475 0.633505 0.765073
vn -0.075725 0.637444 0.766767
vn -0.075725 0.637444 0.766767
vn 0.000000 1.000000 -0.000001
vn 0.000000 1.000000 -0.000001
vn 0.000000 1.000000 -0.000001
vn 0.000000 1.000000 -0.000001
vn 0.000000 1.000000 -0.000001
vn 0.000000 -1.000000 0.000000
vn 0.000000 -1.000000 0.000000
vn 0.000000 -1.000000 0.000000
vn 0.000000 -1.000000 0.000000
vn 0.000000 -1.000000 0.000000
vn 1.000000 0.000000 0.000000
vn 1.000000 0.000000 0.000000
vn 1.000000 0.000000 0.000000
vn 1.000000 0.000000 0.000000
vn 1.000000 0.000000 0.000000
vn 1.000000 0.000000 0.000000
vn -1.000000 0.000000 0.000000
vn -1.000000 0.000000 0.000000
vn -1.000000 0.000000 0.000000
vn -1.000000 0.000000 0.000000
vn -1.000000 0.000000 0.000000
vn -1.000000 0.000000 0.000000
s 1
g pSphere2
usemtl lambert3SG
f 11/17/25 9/15/26 10/16/27 33/41/28
f 13/19/29 12/18/30 11/17/25 33/39/28
f 10/16/27 14/20/31 15/21/32 33/42/28
f 16/22/33 10/16/27 9/15/26 25/31/34
f 18/24/35 17/23/36 13/19/29 33/43/28
f 14/20/31 10/16/27 16/22/33 24/30/37
f 12/18/30 13/19/29 19/25/38 28/34/39
f 15/21/32 20/26/40 21/27/41 33/44/28
f 9/15/26 11/17/25 22/28/42 25/31/34
f 22/28/42 11/17/25 12/18/30 28/34/39
f 23/29/43 15/21/32 14/20/31 24/30/37
f 19/25/38 13/19/29 17/23/36 34/40/44
f 20/26/40 15/21/32 23/29/43 32/38/45
f 27/33/46 26/32/47 18/24/35 33/45/28
f 17/23/36 18/24/35 29/35/48 34/40/44
f 31/37/49 21/27/41 30/36/50 40/52/51
f 30/36/50 21/27/41 20/26/40 32/38/45
f 29/35/48 18/24/35 26/32/47 43/56/52
f 35/46/53 36/47/54 27/33/46 33/55/28
f 33/48/28 21/27/41 31/37/49 39/51/55
f 16/22/33 25/31/34 37/49/56 48/61/57
f 38/50/58 24/30/37 16/22/33 48/61/57
f 26/32/47 27/33/46 41/53/59 43/56/52
f 23/29/43 24/30/37 38/50/58 53/68/60
f 37/49/56 25/31/34 22/28/42 51/66/61
f 42/54/62 39/51/55 31/37/49 40/52/51
f 41/53/59 27/33/46 36/47/54 56/71/63
f 19/25/38 34/40/44 44/57/64 46/59/65
f 22/28/42 28/34/39 45/58/66 51/66/61
f 28/34/39 19/25/38 46/59/65 45/58/66
f 47/60/67 32/38/45 23/29/43 53/68/60
f 44/57/64 34/40/44 29/35/48 54/69/68
f 30/36/50 32/38/45 47/60/67 59/75/69
f 49/62/70 50/63/71 35/46/53 33/64/28
f 33/65/28 39/51/55 42/54/62 64/82/72
f 36/47/54 35/46/53 52/67/73 56/71/63
f 54/69/68 29/35/48 43/56/52 61/78/74
f 55/70/75 40/52/51 30/36/50 59/75/69
f 52/67/73 35/46/53 50/63/71 73/92/76
f 49/62/70 33/72/28 57/73/77 58/74/78
f 57/73/77 33/76/28 60/77/79 69/88/80
f 61/78/74 43/56/52 41/53/59 76/95/81
f 42/54/62 40/52/51 55/70/75 78/97/82
f 63/81/83 33/79/28 62/80/84 70/89/85
f 60/77/79 33/83/28 65/84/86 77/96/87
f 66/85/88 33/65/28 64/82/72 81/104/89
f 50/63/71 49/62/70 67/86/90 73/92/76
f 68/87/91 37/49/56 51/66/61 84/107/92
f 48/61/57 37/49/56 68/87/91 85/108/93
f 51/66/61 45/58/66 71/90/94 84/107/92
f 72/91/95 38/50/58 48/61/57 85/108/93
f 67/86/90 49/62/70 58/74/78 92/116/96
f 71/90/94 45/58/66 46/59/65 88/111/97
f 41/53/59 56/71/63 74/93/98 76/95/81
f 53/68/60 38/50/58 72/91/95 87/110/99
f 46/59/65 44/57/64 75/94/100 88/111/97
f 75/94/100 44/57/64 54/69/68 90/113/101
f 79/98/102 47/60/67 53/68/60 87/110/99
f 64/82/72 42/54/62 78/97/82 97/122/103
f 80/100/104 33/99/28 66/85/88 96/121/105
f 62/103/84 33/101/28 80/102/104 106/132/106
f 74/93/98 56/71/63 52/67/73 93/117/107
f 58/74/78 57/73/77 82/105/108 92/116/96
f 59/75/69 47/60/67 79/98/102 94/118/109
f 54/69/68 61/78/74 83/106/110 90/113/101
f 82/105/108 57/73/77 69/88/80 105/130/111
f 86/109/112 55/70/75 59/75/69 94/118/109
f 83/106/110 61/78/74 76/95/81 102/127/113
f 66/85/88 81/104/89 89/112/114 96/121/105
f 91/115/115 33/114/28 63/81/83 100/125/116
f 78/97/82 55/70/75 86/109/112 104/129/117
f 52/67/73 73/92/76 95/119/118 93/117/107
f 65/84/86 33/120/28 91/115/115 103/128/119
f 85/108/93 68/87/91 84/107/92 109/135/120
f 98/123/121 70/89/85 62/103/84 106/132/106
f 99/124/122 81/104/89 64/82/72 97/122/103
f 100/125/116 63/81/83 70/89/85 98/123/121
f 84/107/92 71/90/94 88/111/97 109/137/120
f 87/110/99 72/91/95 85/108/93 109/139/120
f 76/95/81 74/93/98 101/126/123 102/127/113
f 95/119/118 73/92/76 67/86/90 108/134/124
f 94/118/109 79/98/102 87/110/99 109/138/120
f 88/111/97 75/94/100 90/113/101 109/142/120
f 77/96/87 65/84/86 103/128/119 115/148/125
f 101/126/123 74/93/98 93/117/107 112/143/126
f 97/122/103 78/97/82 104/129/117 109/144/120
f 104/131/117 86/109/112 94/118/109 109/141/120
f 107/133/127 89/112/114 81/104/89 99/124/122
f 90/113/101 83/106/110 102/127/113 109/147/120
f 67/86/90 92/116/96 110/136/128 108/134/124
f 96/121/105 89/112/114 107/133/127 113/145/129
f 93/117/107 95/119/118 111/140/130 112/143/126
f 110/136/128 92/116/96 82/105/108 117/150/131
f 80/100/104 96/121/105 113/145/129 118/151/132
f 114/146/133 99/124/122 97/122/103 109/144/120
f 111/140/130 95/119/118 108/134/124 119/153/134
f 113/145/129 107/133/127 99/124/122 114/146/133
f 102/127/113 101/126/123 112/143/126 109/152/120
f 82/105/108 105/130/111 116/149/135 117/150/131
f 108/134/124 110/136/128 120/154/136 119/153/134
f 118/151/132 113/145/129 114/146/133 109/157/120
f 80/102/104 118/156/132 121/155/137 106/132/106
f 112/143/126 111/140/130 119/153/134 109/158/120
f 120/154/136 110/136/128 117/150/131 123/162/138
f 118/156/132 109/160/120 122/159/139 121/155/137
f 123/162/138 109/161/120 119/153/134 120/154/136
f 117/150/131 116/149/135 124/163/140 123/162/138
f 125/164/141 116/149/135 105/130/111 142/185/142
f 126/165/143 115/148/125 103/128/119 134/177/144
f 127/167/145 109/166/120 123/162/138 124/163/140
f 122/159/139 109/168/120 128/169/146 131/173/147
f 129/170/148 98/123/121 106/132/106 121/155/137
f 130/172/149 109/171/120 127/167/145 136/179/150
f 121/155/137 122/159/139 131/173/147 129/170/148
f 126/165/143 132/174/151 143/186/152 115/148/125
f 133/175/153 109/176/120 130/172/149 134/177/144
f 134/177/144 103/128/119 91/115/115 133/175/153
f 128/169/146 109/176/120 133/175/153 135/178/154
f 135/178/154 100/125/116 98/123/121 129/170/148
f 133/175/153 91/115/115 100/125/116 135/178/154
f 136/179/150 126/165/143 134/177/144 130/172/149
f 131/173/147 128/169/146 135/178/154 129/170/148
f 69/88/80 60/77/79 137/180/155 145/188/156 142/185/142 105/130/111
f 137/180/157 60/77/79 77/96/87 115/148/125 143/186/152 146/189/158
s off
f 138/181/159 139/182/160 140/183/161 141/184/162
s 1
f 144/187/163 127/167/145 124/163/140 116/149/135 125/164/164 147/190/165
f 132/174/166 126/165/143 136/179/150 127/167/145 144/187/163 148/191/167
s off
f 139/182/168 145/192/169 137/193/170 146/194/171 140/183/172
f 148/195/173 144/196/174 147/197/175 138/181/176 141/184/177
f 139/198/178 138/199/179 147/200/180 125/201/181 142/202/182 145/203/183
f 146/204/184 143/205/185 132/206/186 148/207/187 141/208/188 140/209/189
